Parastoo.glyphspackage
{
glyphname = exclam;
layers = (
{
layerId = m001;
shapes = (
{
closed = 1;
nodes = (
(220.849,1.053,o),
(157.911,61.158,o),
(157.911,133.027,cs),
(157.911,207.45,o),
(218.165,267.441,o),
(292.712,267.441,cs),
(366.58,267.441,o),
(427.485,208.615,o),
(427.485,134.773,cs),
(427.485,60.996,o),
(366.422,1.053,o),
(292.712,1.053,cs)
);
},
{
closed = 1;
nodes = (
(411,1525,o),
(396,1311,o),
(388.386,1226.25,cs),
(329,515,ls),
(328.345,507.135,o),
(313.465,503.444,o),
(298.221,503.444,cs),
(282.208,503.444,o),
(265.793,507.517,o),
(265.038,515.099,cs),
(197.267,1226.05,ls),
(189,1313,o),
(171,1525,o),
(277.229,1525.49,cs),
(306.199,1525.49,ls)
);
}
);
width = 585;
},
{
layerId = "D346AEB9-DD6D-429C-AFEE-90B4948468D3";
shapes = (
{
closed = 1;
nodes = (
(206,2,o),
(140,74,o),
(140.899,152.501,cs),
(142,238,o),
(208,303,o),
(293.409,303.436,cs),
(379,303,o),
(446,238,o),
(445.92,153.309,cs),
(446,69,o),
(378,2,o),
(293.409,1.99,cs)
);
},
{
closed = 1;
nodes = (
(410.733,1543.16,o),
(450.775,1436.92,o),
(426.325,1224.77,cs),
(346.938,543.505,ls),
(344.313,523.835,o),
(328.868,514.292,o),
(300.603,514.875,cs),
(267.301,515.63,o),
(249.472,525.152,o),
(247.115,543.441,cs),
(159.346,1224.37,ls),
(131.739,1437.12,o),
(171.034,1543.49,o),
(277.229,1543.49,cs),
(306.199,1543.49,ls)
);
}
);
width = 586;
}
);
unicode = 33;
}
{
glyphname = quotedbl;
kernLeft = quotesingle;
kernRight = quotesingle;
layers = (
{
layerId = m001;
shapes = (
{
closed = 1;
nodes = (
(562,1006,l),
(579,1466,l),
(419,1466,l),
(436,1006,l)
);
},
{
closed = 1;
nodes = (
(269,1006,l),
(286,1466,l),
(126,1466,l),
(143,1006,l)
);
}
);
width = 709;
},
{
layerId = "D346AEB9-DD6D-429C-AFEE-90B4948468D3";
shapes = (
{
closed = 1;
nodes = (
(561,1006,l),
(580,1466,l),
(381,1466,l),
(397,1006,l)
);
},
{
closed = 1;
nodes = (
(268,1006,l),
(287,1466,l),
(88,1466,l),
(104,1006,l)
);
}
);
width = 668;
}
);
unicode = 34;
}
{
glyphname = numbersign;
layers = (
{
layerId = m001;
shapes = (
{
closed = 1;
nodes = (
(463,-33,l),
(553,365,l),
(981,365,l),
(889,-33,l),
(1036,-33,l),
(1126,365,l),
(1462,365,l),
(1495,487,l),
(1153,487,l),
(1260,961,l),
(1599,961,l),
(1630,1081,l),
(1630,1083,l),
(1288,1083,l),
(1376,1466,l),
(1241,1466,l),
(1151,1083,l),
(715,1083,l),
(803,1466,l),
(668,1466,l),
(578,1083,l),
(236,1083,l),
(203,961,l),
(549,961,l),
(436,487,l),
(100,487,l),
(68,365,l),
(408,365,l),
(315,-33,l)
);
},
{
closed = 1;
nodes = (
(686,961,l),
(1120,961,l),
(1010,487,l),
(580,487,l)
);
}
);
width = 1700;
},
{
layerId = "D346AEB9-DD6D-429C-AFEE-90B4948468D3";
shapes = (
{
closed = 1;
nodes = (
(549,-33,l),
(629,315,l),
(979,315,l),
(895,-33,l),
(1112,-33,l),
(1194,315,l),
(1530,315,l),
(1573,498,l),
(1231,498,l),
(1327,901,l),
(1667,901,l),
(1708,1081,l),
(1708,1083,l),
(1366,1083,l),
(1452,1466,l),
(1247,1466,l),
(1157,1083,l),
(803,1083,l),
(891,1466,l),
(684,1466,l),
(594,1083,l),
(254,1083,l),
(211,901,l),
(555,901,l),
(453,498,l),
(119,498,l),
(76,315,l),
(416,315,l),
(332,-33,l)
);
},
{
closed = 1;
nodes = (
(764,901,l),
(1118,901,l),
(1016,498,l),
(666,498,l)
);
}
);
width = 1784;
}
);
unicode = 35;
}
{
glyphname = dollar;
layers = (
{
layerId = m001;
shapes = (
{
closed = 1;
nodes = (
(608,-313,l),
(608,-33,l),
(877,-14,o),
(1008,158,o),
(1008,348,cs),
(1008,606,o),
(778,713,o),
(573,821,cs),
(412,905,o),
(268,989,o),
(268,1147,cs),
(268,1268,o),
(346,1389,o),
(518,1389,cs),
(758,1389,o),
(831,1217,o),
(844,1020,c),
(920,1020,l),
(920,1466,l),
(817,1466,l),
(825,1380,l),
(752,1436,o),
(676,1458,o),
(598,1466,c),
(600,1706,l),
(489,1706,l),
(489,1466,l),
(203,1460,o),
(102,1239,o),
(102,1110,cs),
(102,868,o),
(297,762,o),
(485,664,cs),
(664,571,o),
(836,485,o),
(836,303,cs),
(836,154,o),
(723,47,o),
(563,47,cs),
(346,47,o),
(203,154,o),
(188,406,c),
(117,406,l),
(117,-27,l),
(227,-27,l),
(217,55,l),
(293,8,o),
(406,-29,o),
(500,-33,c),
(502,-313,l)
);
}
);
width = 1083;
},
{
layerId = "D346AEB9-DD6D-429C-AFEE-90B4948468D3";
shapes = (
{
closed = 1;
nodes = (
(725,-315,l),
(727,-27,l),
(979,8,o),
(1118,166,o),
(1118,381,cs),
(1118,647,o),
(883,766,o),
(680,856,cs),
(444,963,o),
(369,1016,o),
(369,1143,cs),
(369,1245,o),
(446,1319,o),
(561,1319,cs),
(754,1321,o),
(850,1202,o),
(887,975,c),
(1022,975,l),
(1022,1452,l),
(862,1452,l),
(868,1368,l),
(819,1405,o),
(762,1430,o),
(702,1446,c),
(705,1714,l),
(512,1714,l),
(512,1466,l),
(184,1450,o),
(102,1237,o),
(102,1075,cs),
(102,807,o),
(309,668,o),
(547,569,cs),
(702,506,o),
(846,459,o),
(846,319,cs),
(846,203,o),
(764,115,o),
(618,115,cs),
(426,115,o),
(297,231,o),
(258,461,c),
(125,461,l),
(125,-18,l),
(283,-18,l),
(279,68,l),
(358,18,o),
(451,-12,o),
(537,-27,c),
(539,-315,l)
);
}
);
width = 1204;
}
);
unicode = 36;
}
{
glyphname = percent;
layers = (
{
layerId = m001;
shapes = (
{
closed = 1;
nodes = (
(1499,1384,l),
(1407,1466,l),
(252,37,l),
(338,-35,l)
);
},
{
closed = 1;
nodes = (
(653,686,o),
(821,879,o),
(821,1090,cs),
(821,1278,o),
(698,1473,o),
(444,1466,cs),
(205,1462,o),
(74,1262,o),
(74,1069,cs),
(74,872,o),
(201,686,o),
(444,686,cs)
);
},
{
closed = 1;
nodes = (
(289,760,o),
(250,967,o),
(250,1083,cs),
(250,1217,o),
(301,1386,o),
(444,1386,cs),
(600,1386,o),
(645,1186,o),
(645,1055,cs),
(645,924,o),
(600,760,o),
(453,760,cs)
);
},
{
closed = 1;
nodes = (
(1579,-29,o),
(1710,174,o),
(1710,365,cs),
(1710,561,o),
(1583,748,o),
(1339,748,cs),
(1130,748,o),
(961,557,o),
(961,346,cs),
(961,158,o),
(1085,-37,o),
(1339,-33,cs)
);
},
{
closed = 1;
nodes = (
(1188,41,o),
(1139,244,o),
(1139,379,cs),
(1139,508,o),
(1186,668,o),
(1331,668,cs),
(1495,668,o),
(1534,463,o),
(1534,342,cs),
(1534,213,o),
(1489,41,o),
(1346,41,cs)
);
}
);
width = 1782;
},
{
layerId = "D346AEB9-DD6D-429C-AFEE-90B4948468D3";
shapes = (
{
closed = 1;
nodes = (
(1579,1331,l),
(1430,1466,l),
(262,90,l),
(395,-35,l)
);
},
{
closed = 1;
nodes = (
(686,666,o),
(854,860,o),
(854,1077,cs),
(854,1266,o),
(719,1470,o),
(467,1466,cs),
(223,1460,o),
(84,1251,o),
(84,1059,cs),
(84,856,o),
(219,666,o),
(471,666,cs)
);
},
{
closed = 1;
nodes = (
(360,829,o),
(336,987,o),
(336,1090,cs),
(336,1167,o),
(365,1309,o),
(469,1309,cs),
(573,1309,o),
(604,1153,o),
(604,1047,cs),
(604,950,o),
(573,829,o),
(473,829,cs)
);
},
{
closed = 1;
nodes = (
(1602,-33,o),
(1769,164,o),
(1769,379,cs),
(1769,567,o),
(1632,772,o),
(1382,768,cs),
(1139,762,o),
(999,553,o),
(999,360,cs),
(999,158,o),
(1135,-33,o),
(1386,-33,cs)
);
},
{
closed = 1;
nodes = (
(1276,131,o),
(1249,289,o),
(1249,391,cs),
(1249,469,o),
(1280,610,o),
(1384,610,cs),
(1489,610,o),
(1520,455,o),
(1520,348,cs),
(1520,254,o),
(1489,131,o),
(1389,131,cs)
);
}
);
width = 1851;
}
);
unicode = 37;
}
{
glyphname = ampersand;
layers = (
{
layerId = m001;
shapes = (
{
closed = 1;
nodes = (
(768,-33,o),
(907,57,o),
(995,170,c),
(1137,45,o),
(1225,0,o),
(1249,0,cs),
(1440,0,l),
(1440,68,l),
(1397,68,o),
(1305,119,o),
(1182,229,cs),
(1143,262,o),
(1110,295,o),
(1079,322,c),
(1112,410,o),
(1122,494,o),
(1120,547,cs),
(1118,623,o),
(1100,680,o),
(1057,717,c),
(1227,709,l),
(1227,793,l),
(868,793,l),
(868,725,l),
(989,719,o),
(1024,614,o),
(1024,520,cs),
(1024,483,o),
(1018,438,o),
(1004,389,c),
(891,494,o),
(733,655,o),
(625,772,c),
(870,897,o),
(961,1028,o),
(961,1180,cs),
(961,1341,o),
(825,1466,o),
(618,1466,cs),
(399,1466,o),
(242,1341,o),
(240,1145,cs),
(240,1016,o),
(287,907,o),
(395,770,c),
(199,684,o),
(74,545,o),
(74,369,cs),
(74,78,o),
(315,-33,o),
(555,-33,cs)
);
},
{
closed = 1;
nodes = (
(428,76,o),
(279,174,o),
(279,399,cs),
(279,483,o),
(317,633,o),
(449,711,c),
(547,598,o),
(686,463,o),
(870,283,cs),
(891,262,o),
(909,246,o),
(930,227,c),
(860,135,o),
(752,63,o),
(580,70,cs)
);
},
{
closed = 1;
nodes = (
(483,928,o),
(412,1044,o),
(412,1161,cs),
(412,1315,o),
(496,1401,o),
(608,1401,cs),
(733,1401,o),
(805,1305,o),
(805,1174,cs),
(805,1053,o),
(733,922,o),
(580,821,c)
);
}
);
width = 1423;
},
{
layerId = "D346AEB9-DD6D-429C-AFEE-90B4948468D3";
shapes = (
{
closed = 1;
nodes = (
(709,-33,o),
(856,23,o),
(963,117,c),
(1057,43,o),
(1141,0,o),
(1163,0,cs),
(1382,0,l),
(1382,135,l),
(1327,135,o),
(1237,199,o),
(1130,289,cs),
(1120,297,o),
(1110,307,o),
(1100,315,c),
(1124,383,o),
(1139,457,o),
(1139,537,cs),
(1139,586,o),
(1130,629,o),
(1116,662,c),
(1229,655,l),
(1229,809,l),
(885,809,l),
(885,678,l),
(956,674,o),
(993,635,o),
(993,522,cs),
(993,487,o),
(991,453,o),
(983,420,c),
(827,563,o),
(666,727,o),
(651,745,c),
(803,836,o),
(946,975,o),
(946,1145,cs),
(946,1317,o),
(805,1466,o),
(590,1466,cs),
(354,1466,o),
(201,1335,o),
(199,1128,cs),
(197,1016,o),
(219,907,o),
(367,748,c),
(182,680,o),
(47,530,o),
(47,348,cs),
(47,82,o),
(297,-33,o),
(535,-33,cs)
);
},
{
closed = 1;
nodes = (
(430,113,o),
(326,213,o),
(326,399,cs),
(326,459,o),
(348,567,o),
(426,631,c),
(510,535,o),
(596,444,o),
(754,301,cs),
(788,270,o),
(821,240,o),
(856,209,c),
(791,150,o),
(702,113,o),
(600,113,cs)
);
},
{
closed = 1;
nodes = (
(494,936,o),
(442,1057,o),
(442,1139,cs),
(442,1257,o),
(502,1323,o),
(580,1323,cs),
(664,1323,o),
(715,1253,o),
(715,1155,cs),
(715,1069,o),
(664,934,o),
(559,854,c)
);
}
);
width = 1372;
}
);
unicode = 38;
}
{
glyphname = quotesingle;
kernLeft = quotedbl;
kernRight = quotedbl;
layers = (
{
layerId = m001;
shapes = (
{
closed = 1;
nodes = (
(299,1467,l),
(127,1467,l),
(146,1006,l),
(281,1006,l),
(281,1006,l)
);
}
);
userData = {
assembly = "NPUSHB[ ]	/* 22 values pushed */
2 1 1 1 0 93 0 0 0 32 1 76 0 0 0 3 0 3 17 3 8 21
CALL[ ]	/* CallFunction */";
};
width = 426;
},
{
layerId = "D346AEB9-DD6D-429C-AFEE-90B4948468D3";
shapes = (
{
closed = 1;
nodes = (
(299,1467,l),
(87,1467,l),
(106,1006,l),
(281,1006,l),
(281,1006,l)
);
}
);
userData = {
assembly = "NPUSHB[ ]	/* 22 values pushed */
2 1 1 1 0 93 0 0 0 32 1 76 0 0 0 3 0 3 17 3 8 21
CALL[ ]	/* CallFunction */";
};
width = 386;
}
);
note = quotesingle;
unicode = 39;
}
{
glyphname = parenleft;
layers = (
{
layerId = m001;
shapes = (
{
closed = 1;
nodes = (
(280,877,o),
(377,1226.333,o),
(589,1509,c),
(538,1556,l),
(435.898,1463.908,o),
(321.809,1309.111,o),
(229.5,1123.5,cs),
(138.246,940.01,o),
(73,711.976,o),
(73,489,cs),
(73,266.335,o),
(137.614,45.82,o),
(229.5,-134,cs),
(323.522,-318,o),
(434.028,-459.182,o),
(538,-555,c),
(589,-508,l),
(378.333,-228,o),
(280,103.667,o),
(280,489,cs)
);
}
);
userData = {
assembly = "PUSHB[ ]	/* 4 values pushed */
18 4 1 48
CALL[ ]	/* CallFunction */";
};
width = 625;
},
{
layerId = "D346AEB9-DD6D-429C-AFEE-90B4948468D3";
shapes = (
{
closed = 1;
nodes = (
(327,572.418,o),
(336.954,746.556,o),
(377,951,cs),
(415.638,1148.257,o),
(481.576,1347.081,o),
(586,1485,c),
(511,1556,l),
(406.71,1461.934,o),
(297.094,1313.236,o),
(204,1123,cs),
(112.873,936.785,o),
(50,711.404,o),
(50,489,cs),
(50,264.125,o),
(113.079,47.843,o),
(205,-134,cs),
(298.451,-318.87,o),
(407.017,-458.251,o),
(512,-555,c),
(586,-484,l),
(481.652,-346.182,o),
(415.242,-151.198,o),
(377,38,cs),
(337.417,233.834,o),
(327,402.749,o),
(327,489,cs)
);
}
);
userData = {
assembly = "PUSHB[ ]	/* 4 values pushed */
22 8 1 48
CALL[ ]	/* CallFunction */";
};
width = 607;
}
);
note = parenleft;
unicode = 40;
}
{
glyphname = parenright;
layers = (
{
layerId = m001;
shapes = (
{
closed = 1;
nodes = (
(291,-369,o),
(553,57,o),
(553,512,cs),
(553,967,o),
(291,1370,o),
(88,1556,c),
(37,1509,l),
(248,1229,o),
(346,897,o),
(346,512,cs),
(346,127,o),
(248,-227,o),
(37,-508,c),
(88,-555,l)
);
}
);
width = 625;
},
{
layerId = "D346AEB9-DD6D-429C-AFEE-90B4948468D3";
shapes = (
{
closed = 1;
nodes = (
(299,-369,o),
(557,57,o),
(557,512,cs),
(557,967,o),
(299,1370,o),
(94,1556,c),
(20,1485,l),
(231,1204,o),
(281,696,o),
(281,512,cs),
(281,328,o),
(231,-203,o),
(20,-483,c),
(96,-555,l)
);
}
);
width = 606;
}
);
unicode = 41;
}
{
glyphname = asterisk;
layers = (
{
layerId = m001;
shapes = (
{
closed = 1;
nodes = (
(319,575,o),
(373,637,o),
(406,692,cs),
(449,772,o),
(502,870,o),
(532,948,c),
(561,870,o),
(616,772,o),
(659,692,c),
(694,637,o),
(748,575,o),
(807,618,cs),
(868,664,o),
(825,743,o),
(780,791,cs),
(717,858,o),
(645,932,o),
(580,983,c),
(664,987,o),
(768,1008,o),
(858,1024,c),
(926,1040,o),
(999,1071,o),
(975,1145,cs),
(952,1212,o),
(866,1198,o),
(807,1169,cs),
(723,1128,o),
(631,1085,o),
(559,1040,c),
(584,1120,o),
(596,1227,o),
(606,1319,cs),
(614,1382,o),
(608,1466,o),
(532,1466,cs),
(457,1466,o),
(446,1382,o),
(455,1319,cs),
(465,1227,o),
(477,1120,o),
(502,1040,c),
(432,1087,o),
(338,1130,o),
(254,1169,cs),
(193,1198,o),
(111,1214,o),
(86,1145,cs),
(61,1071,o),
(137,1038,o),
(203,1024,cs),
(291,1008,o),
(397,987,o),
(483,983,c),
(416,934,o),
(346,858,o),
(283,791,cs),
(240,741,o),
(199,664,o),
(256,618,c)
);
}
);
width = 1065;
},
{
layerId = "D346AEB9-DD6D-429C-AFEE-90B4948468D3";
shapes = (
{
closed = 1;
nodes = (
(338,555,o),
(397,606,o),
(438,664,cs),
(473,709,o),
(508,786,o),
(547,907,c),
(584,786,o),
(618,711,o),
(653,662,cs),
(694,606,o),
(754,555,o),
(825,606,cs),
(897,659,o),
(866,729,o),
(825,788,cs),
(793,834,o),
(729,891,o),
(627,965,c),
(754,965,o),
(836,975,o),
(893,991,cs),
(958,1012,o),
(1024,1055,o),
(997,1139,cs),
(971,1221,o),
(893,1217,o),
(823,1194,cs),
(770,1176,o),
(698,1135,o),
(596,1061,c),
(637,1182,o),
(653,1264,o),
(653,1321,cs),
(653,1391,o),
(635,1466,o),
(547,1466,cs),
(459,1466,o),
(440,1391,o),
(440,1321,cs),
(440,1264,o),
(457,1182,o),
(498,1061,c),
(393,1135,o),
(322,1176,o),
(266,1194,cs),
(199,1217,o),
(123,1223,o),
(94,1139,cs),
(68,1055,o),
(133,1014,o),
(201,991,cs),
(256,975,o),
(338,965,o),
(467,965,c),
(362,893,o),
(301,836,o),
(266,788,cs),
(225,731,o),
(197,659,o),
(266,606,cs)
);
}
);
width = 1092;
}
);
unicode = 42;
}
{
glyphname = comma;
kernLeft = period;
kernRight = period;
layers = (
{
layerId = m001;
shapes = (
{
closed = 1;
nodes = (
(332,-274,o),
(393,-84,o),
(393,20,cs),
(393,125,o),
(342,207,o),
(248,207,cs),
(186,207,o),
(135,164,o),
(135,88,cs),
(135,31,o),
(176,-12,o),
(229,-12,cs),
(246,-12,o),
(262,-8,o),
(281,0,cs),
(295,-125,o),
(231,-268,o),
(186,-326,c),
(242,-367,l)
);
}
);
width = 518;
},
{
layerId = "D346AEB9-DD6D-429C-AFEE-90B4948468D3";
shapes = (
{
closed = 1;
nodes = (
(365,-225,o),
(426,-66,o),
(426,66,cs),
(426,188,o),
(362,283,o),
(238,281,cs),
(147,281,o),
(90,209,o),
(90,127,cs),
(90,33,o),
(158,-8,o),
(231,-8,cs),
(246,-8,o),
(256,-8,o),
(274,-2,c),
(279,-121,o),
(201,-270,o),
(158,-326,c),
(238,-383,l)
);
}
);
width = 512;
}
);
unicode = 44;
}
{
glyphname = hyphen;
kernLeft = hyphen;
kernRight = hyphen;
layers = (
{
layerId = m001;
shapes = (
{
closed = 1;
nodes = (
(864,592,l),
(864,727,l),
(137,727,l),
(137,584,l)
);
}
);
width = 1001;
},
{
layerId = "D346AEB9-DD6D-429C-AFEE-90B4948468D3";
shapes = (
{
closed = 1;
nodes = (
(858,539,l),
(858,754,l),
(104,754,l),
(104,532,l)
);
}
);
width = 965;
}
);
unicode = 45;
}
{
glyphname = period;
kernLeft = period;
kernRight = period;
layers = (
{
layerId = m001;
shapes = (
{
closed = 1;
nodes = (
(313,-33,o),
(371,25,o),
(371,98,cs),
(371,172,o),
(319,231,o),
(252,231,cs),
(188,231,o),
(131,172,o),
(131,98,cs),
(131,25,o),
(186,-33,o),
(250,-33,cs)
);
}
);
width = 504;
},
{
layerId = "D346AEB9-DD6D-429C-AFEE-90B4948468D3";
shapes = (
{
closed = 1;
nodes = (
(330,-33,o),
(387,39,o),
(387,127,cs),
(387,215,o),
(324,287,o),
(240,287,cs),
(160,287,o),
(90,215,o),
(90,127,cs),
(90,39,o),
(152,-33,o),
(242,-33,cs)
);
}
);
width = 477;
}
);
unicode = 46;
}
{
glyphname = slash;
layers = (
{
layerId = m001;
shapes = (
{
closed = 1;
nodes = (
(1372,1473,l),
(1239,1556,l),
(43,-481,l),
(162,-555,l)
);
}
);
width = 1413;
},
{
layerId = "D346AEB9-DD6D-429C-AFEE-90B4948468D3";
shapes = (
{
closed = 1;
nodes = (
(1380,1427,l),
(1194,1546,l),
(51,-451,l),
(211,-555,l)
);
}
);
width = 1432;
}
);
unicode = 47;
}
{
glyphname = zero;
layers = (
{
layerId = m001;
shapes = (
{
closed = 1;
nodes = (
(1018,-33,o),
(1159,381,o),
(1159,721,cs),
(1159,1063,o),
(1042,1466,o),
(645,1466,cs),
(264,1466,o),
(115,1055,o),
(115,711,cs),
(115,369,o),
(219,-33,o),
(637,-33,cs)
);
},
{
closed = 1;
nodes = (
(385,47,o),
(326,469,o),
(326,754,cs),
(326,1059,o),
(406,1389,o),
(641,1389,cs),
(883,1389,o),
(948,1010,o),
(948,678,cs),
(948,377,o),
(883,47,o),
(649,47,cs)
);
}
);
width = 1272;
},
{
layerId = "D346AEB9-DD6D-429C-AFEE-90B4948468D3";
shapes = (
{
closed = 1;
nodes = (
(1032,-33,o),
(1212,381,o),
(1212,721,cs),
(1212,1063,o),
(1057,1466,o),
(659,1466,cs),
(279,1466,o),
(88,1055,o),
(88,711,cs),
(88,369,o),
(233,-33,o),
(651,-33,cs)
);
},
{
closed = 1;
nodes = (
(428,113,o),
(399,469,o),
(399,754,cs),
(399,1059,o),
(459,1323,o),
(655,1323,cs),
(866,1323,o),
(901,1010,o),
(901,678,cs),
(901,377,o),
(856,113,o),
(664,113,cs)
);
}
);
width = 1303;
}
);
unicode = 48;
}
{
glyphname = one;
layers = (
{
layerId = m001;
shapes = (
{
closed = 1;
nodes = (
(674,0,l),
(674,90,l),
(616,88,o),
(559,84,o),
(502,82,c),
(508,121,o),
(508,170,o),
(508,223,cs),
(506,1466,l),
(436,1466,l),
(37,1169,l),
(78,1110,l),
(324,1268,l),
(330,301,ls),
(330,160,o),
(293,74,o),
(152,68,c),
(152,0,l)
);
}
);
width = 745;
},
{
layerId = "D346AEB9-DD6D-429C-AFEE-90B4948468D3";
shapes = (
{
closed = 1;
nodes = (
(752,0,l),
(752,158,l),
(723,158,o),
(641,156,o),
(598,152,c),
(602,186,o),
(604,262,o),
(604,336,cs),
(604,1466,l),
(481,1466,l),
(12,1124,l),
(86,1001,l),
(309,1135,l),
(309,313,ls),
(309,147,o),
(256,139,o),
(164,135,c),
(164,0,l)
);
}
);
width = 831;
}
);
unicode = 49;
}
{
glyphname = two;
layers = (
{
layerId = m001;
shapes = (
{
closed = 1;
nodes = (
(981,0,l),
(993,287,l),
(932,287,l),
(932,127,o),
(788,139,o),
(590,145,cs),
(227,156,l),
(246,250,o),
(373,391,o),
(559,545,cs),
(852,782,o),
(961,956,o),
(961,1096,cs),
(961,1372,o),
(748,1466,o),
(530,1466,cs),
(248,1466,o),
(102,1284,o),
(102,1167,cs),
(102,1108,o),
(135,1057,o),
(197,1055,cs),
(270,1053,o),
(297,1114,o),
(297,1151,cs),
(297,1180,o),
(287,1212,o),
(260,1241,c),
(289,1323,o),
(385,1386,o),
(498,1386,cs),
(694,1386,o),
(750,1223,o),
(750,1069,cs),
(750,936,o),
(676,795,o),
(498,625,cs),
(293,428,o),
(94,289,o),
(94,0,c)
);
}
);
width = 1100;
},
{
layerId = "D346AEB9-DD6D-429C-AFEE-90B4948468D3";
shapes = (
{
closed = 1;
nodes = (
(977,0,l),
(993,334,l),
(862,334,l),
(862,219,o),
(801,197,o),
(709,201,cs),
(307,211,l),
(319,264,o),
(385,373,o),
(537,496,cs),
(907,799,o),
(987,940,o),
(987,1079,cs),
(987,1366,o),
(748,1466,o),
(528,1466,cs),
(240,1466,o),
(82,1270,o),
(82,1147,cs),
(82,1067,o),
(129,1001,o),
(213,997,cs),
(313,995,o),
(352,1081,o),
(352,1128,cs),
(352,1157,o),
(342,1204,o),
(311,1235,c),
(342,1280,o),
(403,1321,o),
(477,1321,cs),
(633,1323,o),
(674,1184,o),
(674,1055,cs),
(674,907,o),
(598,764,o),
(399,580,cs),
(242,434,o),
(80,285,o),
(80,0,c)
);
}
);
width = 1092;
}
);
unicode = 50;
}
{
glyphname = three;
layers = (
{
layerId = m001;
shapes = (
{
closed = 1;
nodes = (
(791,-33,o),
(1038,100,o),
(1038,379,cs),
(1038,592,o),
(879,739,o),
(621,768,c),
(872,846,o),
(956,981,o),
(956,1110,cs),
(956,1368,o),
(762,1466,o),
(543,1466,cs),
(260,1466,o),
(125,1284,o),
(125,1171,cs),
(125,1114,o),
(156,1067,o),
(213,1067,cs),
(283,1065,o),
(307,1122,o),
(307,1155,cs),
(307,1184,o),
(299,1212,o),
(274,1239,c),
(297,1307,o),
(391,1386,o),
(514,1386,cs),
(702,1386,o),
(758,1262,o),
(758,1094,cs),
(758,981,o),
(688,803,o),
(473,803,cs),
(444,803,o),
(418,803,o),
(389,803,c),
(389,711,l),
(418,713,o),
(442,715,o),
(465,715,cs),
(764,721,o),
(827,545,o),
(827,365,cs),
(827,162,o),
(702,53,o),
(508,53,cs),
(395,53,o),
(285,92,o),
(258,184,c),
(270,211,o),
(281,238,o),
(281,266,cs),
(281,303,o),
(258,362,o),
(184,358,cs),
(123,356,o),
(90,307,o),
(90,246,cs),
(90,125,o),
(227,-33,o),
(522,-33,cs)
);
}
);
width = 1141;
},
{
layerId = "D346AEB9-DD6D-429C-AFEE-90B4948468D3";
shapes = (
{
closed = 1;
nodes = (
(836,-33,o),
(1065,121,o),
(1065,401,cs),
(1065,575,o),
(944,733,o),
(682,780,c),
(907,831,o),
(989,995,o),
(989,1104,cs),
(989,1370,o),
(788,1466,o),
(535,1466,cs),
(246,1466,o),
(104,1276,o),
(104,1153,cs),
(104,1073,o),
(150,1008,o),
(233,1006,cs),
(336,1001,o),
(373,1087,o),
(373,1137,cs),
(373,1161,o),
(365,1206,o),
(340,1237,c),
(362,1280,o),
(428,1323,o),
(502,1323,cs),
(641,1323,o),
(694,1223,o),
(692,1081,cs),
(688,930,o),
(586,825,o),
(406,825,cs),
(385,825,o),
(369,825,o),
(346,827,c),
(346,680,l),
(371,682,o),
(432,686,o),
(453,686,cs),
(688,690,o),
(756,526,o),
(756,387,cs),
(756,233,o),
(668,117,o),
(496,117,cs),
(420,117,o),
(340,147,o),
(311,199,c),
(334,227,o),
(344,266,o),
(344,293,cs),
(344,346,o),
(313,426,o),
(211,424,cs),
(127,422,o),
(72,350,o),
(72,268,cs),
(72,127,o),
(207,-33,o),
(516,-33,cs)
);
}
);
width = 1147;
}
);
unicode = 51;
}
{
glyphname = four;
layers = (
{
layerId = m001;
shapes = (
{
closed = 1;
nodes = (
(1041,395,l),
(1041,516,l),
(834,518,l),
(834,1467,l),
(765,1467,l),
(25,496,l),
(25,395,l),
(648,395,l),
(648,326,ls),
(648,174.124,o),
(621.756,78.597,o),
(484,68,c),
(468,68,l),
(468,0,l),
(984,0,l),
(984,84,l),
(826,78,l),
(834,119.333,o),
(834,167,o),
(834,223,cs),
(834,395,l),
(834,395,l)
);
},
{
closed = 1;
nodes = (
(648,1175,l),
(648,522,l),
(160,528,l),
(644,1175,l),
(644,1175,l)
);
}
);
userData = {
assembly = "NPUSHB[ ]	/* 48 values pushed */
25 1 5 4 16 1 3 5 2 74 7 1 5 6 1 3 0 5 3 101 0 4 4 32 75 2 1 0 0 1 93 0 1 1 33 1 76 17 17 17 18 21 33 17 19 8 8 28
CALL[ ]	/* CallFunction */";
};
width = 1110;
},
{
layerId = "D346AEB9-DD6D-429C-AFEE-90B4948468D3";
shapes = (
{
closed = 1;
nodes = (
(1052,556,l),
(852,556,l),
(852,1467,l),
(728,1467,l),
(25,563,l),
(25,370,l),
(559,370,l),
(559,313,ls),
(559,147.844,o),
(506.372,140.492,o),
(413,135,c),
(413,0,l),
(998,0,l),
(998,158,l),
(844,152,l),
(849.287,186.363,o),
(852,260.681,o),
(852,336,cs),
(852,370,l),
(1052,370,l),
(1052,370,l)
);
},
{
closed = 1;
nodes = (
(559,561,l),
(215,561,l),
(559,1011,l),
(559,1011,l)
);
}
);
userData = {
assembly = "NPUSHB[ ]	/* 52 values pushed */
26 18 2 5 4 1 74 7 1 5 8 6 2 3 0 5 3 101 0 4 4 32 75 2 1 0 0 1 94 0 1 1 33 1 76 0 0 25 24 0 23 0 23 17 18 21 17 17 37 9 8 26
CALL[ ]	/* CallFunction */";
};
width = 1121;
}
);
note = four;
unicode = 52;
}
{
glyphname = five;
layers = (
{
layerId = m001;
shapes = (
{
closed = 1;
nodes = (
(786,-33,o),
(1024,127,o),
(1024,430,cs),
(1024,651,o),
(889,889,o),
(553,889,cs),
(432,889,o),
(322,858,o),
(256,831,c),
(256,1282,l),
(940,1296,l),
(952,1567,l),
(897,1567,l),
(897,1475,o),
(848,1434,o),
(692,1434,cs),
(162,1434,l),
(166,778,l),
(223,725,l),
(293,770,o),
(424,797,o),
(494,797,cs),
(782,797,o),
(811,547,o),
(811,393,cs),
(811,219,o),
(727,55,o),
(528,47,cs),
(432,43,o),
(291,86,o),
(274,186,c),
(287,211,o),
(297,240,o),
(297,266,cs),
(297,303,o),
(274,362,o),
(201,358,cs),
(139,356,o),
(106,307,o),
(106,246,cs),
(106,125,o),
(258,-33,o),
(520,-33,cs)
);
}
);
width = 1116;
},
{
layerId = "D346AEB9-DD6D-429C-AFEE-90B4948468D3";
shapes = (
{
closed = 1;
nodes = (
(778,-33,o),
(1040,129,o),
(1040,446,cs),
(1040,690,o),
(883,907,o),
(543,907,cs),
(461,907,o),
(356,885,o),
(295,858,c),
(295,1223,l),
(938,1235,l),
(952,1567,l),
(823,1567,l),
(823,1452,o),
(762,1434,o),
(668,1434,cs),
(137,1434,l),
(145,750,l),
(233,682,l),
(328,739,o),
(422,758,o),
(479,758,cs),
(709,758,o),
(725,526,o),
(725,403,cs),
(725,262,o),
(662,113,o),
(498,113,cs),
(440,113,o),
(356,141,o),
(338,188,c),
(354,215,o),
(360,250,o),
(360,272,cs),
(360,328,o),
(330,408,o),
(227,403,cs),
(143,401,o),
(90,328,o),
(90,248,cs),
(90,117,o),
(246,-33,o),
(512,-33,cs)
);
}
);
width = 1106;
}
);
unicode = 53;
}
{
glyphname = six;
layers = (
{
layerId = m001;
shapes = (
{
closed = 1;
nodes = (
(879,-33,o),
(1083,180,o),
(1083,436,cs),
(1083,643,o),
(979,895,o),
(651,895,cs),
(492,895,o),
(375,813,o),
(307,723,c),
(313,918,o),
(362,1391,o),
(676,1391,cs),
(788,1391,o),
(864,1321,o),
(879,1272,c),
(862,1243,o),
(854,1212,o),
(854,1186,cs),
(854,1151,o),
(877,1098,o),
(946,1100,cs),
(1006,1104,o),
(1034,1149,o),
(1034,1206,cs),
(1034,1309,o),
(915,1466,o),
(672,1466,cs),
(205,1466,o),
(115,918,o),
(115,674,cs),
(115,240,o),
(240,-33,o),
(604,-33,cs)
);
},
{
closed = 1;
nodes = (
(393,47,o),
(324,317,o),
(309,578,c),
(348,694,o),
(479,803,o),
(608,803,cs),
(838,803,o),
(877,545,o),
(877,391,cs),
(877,211,o),
(801,47,o),
(608,47,cs)
);
}
);
width = 1184;
},
{
layerId = "D346AEB9-DD6D-429C-AFEE-90B4948468D3";
shapes = (
{
closed = 1;
nodes = (
(879,-33,o),
(1090,182,o),
(1090,440,cs),
(1090,721,o),
(956,922,o),
(653,913,cs),
(553,909,o),
(434,850,o),
(391,799,c),
(397,1020,o),
(455,1311,o),
(653,1323,cs),
(721,1327,o),
(770,1298,o),
(793,1266,c),
(770,1239,o),
(764,1198,o),
(764,1176,cs),
(764,1120,o),
(797,1047,o),
(899,1047,cs),
(983,1047,o),
(1028,1118,o),
(1028,1192,cs),
(1028,1317,o),
(913,1466,o),
(655,1466,cs),
(190,1466,o),
(94,897,o),
(94,659,cs),
(94,236,o),
(221,-33,o),
(588,-33,cs)
);
},
{
closed = 1;
nodes = (
(438,111,o),
(391,424,o),
(391,614,c),
(428,688,o),
(510,750,o),
(596,750,cs),
(766,750,o),
(780,512,o),
(780,389,cs),
(780,248,o),
(741,111,o),
(598,111,cs)
);
}
);
width = 1178;
}
);
unicode = 54;
}
{
glyphname = seven;
layers = (
{
layerId = m001;
shapes = (
{
closed = 1;
nodes = (
(465,-37,o),
(496,27,o),
(512,92,cs),
(631,575,o),
(705,887,o),
(903,1294,c),
(903,1434,l),
(45,1434,l),
(45,1130,l),
(94,1130,l),
(94,1241,o),
(158,1288,o),
(268,1290,cs),
(809,1292,l),
(674,1010,o),
(543,668,o),
(467,475,cs),
(414,340,o),
(328,145,o),
(328,57,cs),
(328,8,o),
(346,-29,o),
(399,-33,cs)
);
}
);
width = 944;
},
{
layerId = "D346AEB9-DD6D-429C-AFEE-90B4948468D3";
shapes = (
{
closed = 1;
nodes = (
(489,-35,o),
(537,47,o),
(555,123,cs),
(664,557,o),
(733,870,o),
(918,1247,c),
(918,1434,l),
(45,1434,l),
(31,1085,l),
(160,1085,l),
(160,1198,o),
(221,1233,o),
(315,1231,cs),
(745,1227,l),
(596,879,o),
(496,645,o),
(428,483,cs),
(362,330,o),
(295,166,o),
(295,86,cs),
(295,27,o),
(326,-33,o),
(410,-33,cs)
);
}
);
width = 961;
}
);
unicode = 55;
}
{
glyphname = eight;
layers = (
{
layerId = m001;
shapes = (
{
closed = 1;
nodes = (
(819,-33,o),
(1049,82,o),
(1049,340,cs),
(1049,516,o),
(889,672,o),
(707,778,c),
(858,854,o),
(983,975,o),
(983,1137,cs),
(983,1350,o),
(791,1466,o),
(584,1466,cs),
(377,1466,o),
(150,1354,o),
(150,1096,cs),
(150,977,o),
(223,852,o),
(432,727,c),
(272,629,o),
(121,492,o),
(121,307,cs),
(121,49,o),
(375,-33,o),
(565,-33,cs)
);
},
{
closed = 1;
nodes = (
(395,51,o),
(283,170,o),
(293,344,cs),
(299,444,o),
(358,582,o),
(510,690,c),
(762,584,o),
(848,442,o),
(848,301,cs),
(848,141,o),
(745,47,o),
(569,49,cs)
);
},
{
closed = 1;
nodes = (
(469,877,o),
(340,991,o),
(340,1141,cs),
(340,1268,o),
(426,1389,o),
(588,1386,cs),
(733,1384,o),
(827,1288,o),
(823,1112,cs),
(821,1010,o),
(756,901,o),
(635,819,c)
);
}
);
width = 1151;
},
{
layerId = "D346AEB9-DD6D-429C-AFEE-90B4948468D3";
shapes = (
{
closed = 1;
nodes = (
(846,-33,o),
(1085,86,o),
(1085,352,cs),
(1085,508,o),
(989,655,o),
(780,782,c),
(895,854,o),
(1024,977,o),
(1024,1118,cs),
(1024,1343,o),
(813,1466,o),
(602,1466,cs),
(391,1466,o),
(137,1343,o),
(137,1075,cs),
(137,965,o),
(205,817,o),
(385,705,c),
(250,625,o),
(115,479,o),
(115,324,cs),
(115,53,o),
(385,-33,o),
(580,-33,cs)
);
},
{
closed = 1;
nodes = (
(451,113,o),
(358,215,o),
(365,344,cs),
(369,422,o),
(418,543,o),
(526,629,c),
(729,528,o),
(793,412,o),
(793,309,cs),
(793,197,o),
(713,109,o),
(582,111,cs)
);
},
{
closed = 1;
nodes = (
(526,915,o),
(424,1026,o),
(424,1133,cs),
(424,1237,o),
(500,1323,o),
(618,1323,cs),
(723,1323,o),
(809,1247,o),
(803,1110,cs),
(801,1034,o),
(733,932,o),
(647,866,c)
);
}
);
width = 1171;
}
);
unicode = 56;
}
{
glyphname = nine;
layers = (
{
layerId = m001;
shapes = (
{
closed = 1;
nodes = (
(993,-31,o),
(1063,436,o),
(1063,735,cs),
(1063,1149,o),
(967,1466,o),
(582,1466,cs),
(287,1466,o),
(98,1260,o),
(98,993,cs),
(98,786,o),
(199,537,o),
(526,537,cs),
(686,537,o),
(803,616,o),
(870,709,c),
(872,473,o),
(827,45,o),
(516,45,cs),
(385,45,o),
(326,96,o),
(307,156,c),
(326,182,o),
(336,213,o),
(336,240,cs),
(336,274,o),
(309,330,o),
(244,328,cs),
(184,324,o),
(154,279,o),
(154,219,cs),
(154,113,o),
(258,-35,o),
(526,-33,cs)
);
},
{
closed = 1;
nodes = (
(340,629,o),
(301,885,o),
(301,1038,cs),
(301,1219,o),
(391,1389,o),
(567,1389,cs),
(788,1389,o),
(854,1110,o),
(868,854,c),
(829,735,o),
(698,629,o),
(569,629,cs)
);
}
);
width = 1184;
},
{
layerId = "D346AEB9-DD6D-429C-AFEE-90B4948468D3";
shapes = (
{
closed = 1;
nodes = (
(1001,-33,o),
(1083,469,o),
(1083,774,cs),
(1083,1174,o),
(946,1466,o),
(582,1466,cs),
(289,1466,o),
(88,1272,o),
(88,997,cs),
(88,719,o),
(227,512,o),
(528,520,cs),
(631,524,o),
(743,586,o),
(786,637,c),
(799,377,o),
(723,125,o),
(524,113,cs),
(457,109,o),
(406,137,o),
(385,170,c),
(403,193,o),
(414,236,o),
(414,258,cs),
(414,313,o),
(385,387,o),
(283,387,cs),
(199,387,o),
(147,309,o),
(147,236,cs),
(147,98,o),
(252,-33,o),
(522,-33,cs)
);
},
{
closed = 1;
nodes = (
(416,684,o),
(397,922,o),
(397,1044,cs),
(397,1186,o),
(457,1323,o),
(580,1323,cs),
(739,1323,o),
(786,1081,o),
(786,819,c),
(750,745,o),
(672,684,o),
(586,684,cs)
);
}
);
width = 1180;
}
);
unicode = 57;
}
{
glyphname = colon;
layers = (
{
layerId = m001;
shapes = (
{
closed = 1;
nodes = (
(427.485,647.037,o),
(366.422,587.094,o),
(292.712,587.094,cs),
(220.85,587.094,o),
(157.911,647.198,o),
(157.911,719.067,cs),
(157.911,793.491,o),
(218.164,853.482,o),
(292.712,853.482,cs),
(366.579,853.482,o),
(427.485,794.656,o),
(427.485,720.814,cs)
);
},
{
closed = 1;
nodes = (
(427.485,60.996,o),
(366.422,1.053,o),
(292.712,1.053,cs),
(220.849,1.053,o),
(157.911,61.158,o),
(157.911,133.027,cs),
(157.911,207.45,o),
(218.165,267.441,o),
(292.712,267.441,cs),
(366.58,267.441,o),
(427.485,208.615,o),
(427.485,134.773,cs)
);
}
);
width = 585;
},
{
layerId = "D346AEB9-DD6D-429C-AFEE-90B4948468D3";
shapes = (
{
closed = 1;
nodes = (
(212,586,o),
(141,654,o),
(141,734,cs),
(141,819,o),
(208,886,o),
(293,887,cs),
(377,886,o),
(446,821,o),
(446,737,cs),
(446,654,o),
(377,586,o),
(293,586,cs)
);
},
{
closed = 1;
nodes = (
(212,2,o),
(141,70,o),
(141,150,cs),
(141,235,o),
(208,302,o),
(293,303,cs),
(377,302,o),
(446,237,o),
(446,153,cs),
(446,70,o),
(377,2,o),
(293,2,cs)
);
}
);
width = 585;
}
);
unicode = 58;
}
{
glyphname = less;
layers = (
{
layerId = m001;
shapes = (
{
closed = 1;
nodes = (
(982,174,l),
(982,305,l),
(209,647,l),
(982,987,l),
(982,1114,l),
(70,709,l),
(70,571,l),
(70,571,l)
);
}
);
userData = {
assembly = "PUSHB[ ]	/* 4 values pushed */
5 1 1 48
CALL[ ]	/* CallFunction */";
};
width = 1110;
},
{
layerId = "D346AEB9-DD6D-429C-AFEE-90B4948468D3";
shapes = (
{
closed = 1;
nodes = (
(1001,146,l),
(1001,364,l),
(364,644,l),
(364,646,l),
(1001,926,l),
(1001,1142,l),
(79,733,l),
(79,547,l),
(79,547,l)
);
}
);
userData = {
assembly = "PUSHB[ ]	/* 4 values pushed */
6 1 1 48
CALL[ ]	/* CallFunction */";
};
width = 1128;
}
);
note = less;
unicode = 60;
}
{
glyphname = equal;
layers = (
{
layerId = m001;
shapes = (
{
closed = 1;
nodes = (
(1062,387,l),
(1062,506,l),
(150,510,l),
(150,383,l),
(150,383,l)
);
},
{
closed = 1;
nodes = (
(1062,772,l),
(1062,891,l),
(150,895,l),
(150,768,l),
(150,768,l)
);
}
);
userData = {
assembly = "NPUSHB[ ]	/* 31 values pushed */
0 2 0 3 0 2 3 101 0 0 1 1 0 85 0 0 0 1 93 0 1 0 1 77 17 17 17 16 4 8 24
CALL[ ]	/* CallFunction */";
};
width = 1212;
},
{
layerId = "D346AEB9-DD6D-429C-AFEE-90B4948468D3";
shapes = (
{
closed = 1;
nodes = (
(1052,353,l),
(1052,542,l),
(130,546,l),
(130,349,l),
(130,349,l)
);
},
{
closed = 1;
nodes = (
(1052,733,l),
(1052,923,l),
(130,926,l),
(130,730,l),
(130,730,l)
);
}
);
userData = {
assembly = "NPUSHB[ ]	/* 31 values pushed */
0 2 0 3 0 2 3 101 0 0 1 1 0 85 0 0 0 1 93 0 1 0 1 77 17 17 17 16 4 8 24
CALL[ ]	/* CallFunction */";
};
width = 1181;
}
);
note = equal;
unicode = 61;
}
{
glyphname = greater;
layers = (
{
layerId = m001;
shapes = (
{
alignment = -1;
angle = 180;
pos = (1109,1288);
ref = less;
}
);
userData = {
assembly = "PUSHB[ ]	/* 2 values pushed */
0 1
PUSHW[ ]	/* 1 value pushed */
1288
PUSHB[ ]	/* 1 value pushed */
51
CALL[ ]	/* CallFunction */";
};
width = 1108;
},
{
layerId = "D346AEB9-DD6D-429C-AFEE-90B4948468D3";
shapes = (
{
closed = 1;
nodes = (
(127,1142,l),
(127,924,l),
(764,644,l),
(764,642,l),
(127,362,l),
(127,146,l),
(1049,555,l),
(1049,741,l),
(1049,741,l)
);
}
);
userData = {
assembly = "PUSHB[ ]	/* 4 values pushed */
6 1 1 48
CALL[ ]	/* CallFunction */";
};
width = 1128;
}
);
note = greater;
unicode = 62;
}
{
glyphname = question;
layers = (
{
layerId = m001;
shapes = (
{
closed = 1;
nodes = (
(236.921,1307.523,o),
(334.861,1387,o),
(451,1387,cs),
(646.725,1387,o),
(703.658,1261.164,o),
(701,1115,cs),
(697,1011,o),
(652,930.833,o),
(592,863.5,cs),
(562,829.833,o),
(529.833,798.833,o),
(495.5,770.5,cs),
(426.833,713.833,o),
(365.667,662.5,o),
(327,608.5,cs),
(307.667,581.5,o),
(298,552.667,o),
(298,522,cs),
(298,421.853,o),
(382.01,385,o),
(462,385,cs),
(512.667,385,o),
(580.333,396.667,o),
(623,422,c),
(599,494,l),
(573.667,483.333,o),
(541.667,479,o),
(523,479,cs),
(460.494,479,o),
(437,512.462,o),
(437,547,cs),
(437,592.333,o),
(485.5,640,o),
(551.5,692,cs),
(584.5,718,o),
(620.333,745.833,o),
(659,775.5,cs),
(777.59,866.487,o),
(886.311,976.371,o),
(894,1109,cs),
(899.333,1194.333,o),
(875.167,1284,o),
(810.5,1352,cs),
(745.833,1420,o),
(639.333,1467,o),
(482,1467,cs),
(352.667,1467,o),
(249.833,1425,o),
(178.5,1369,cs),
(107.167,1313,o),
(68,1241,o),
(68,1181,cs),
(68,1122.333,o),
(96.333,1076.667,o),
(155,1074,cs),
(223.652,1071.254,o),
(249,1128.261,o),
(249,1162,cs),
(249,1191.333,o),
(240.667,1218,o),
(226,1242,c)
);
},
{
closed = 1;
nodes = (
(585,155.696,o),
(536.544,209,o),
(476,209,cs),
(420.478,209,o),
(365,155.335,o),
(365,88,cs),
(365,10.941,o),
(420.548,-33,o),
(476,-33,cs),
(539.678,-33,o),
(585,20.458,o),
(585,88,cs)
);
}
);
userData = {
assembly = "NPUSHB[ ]	/* 69 values pushed */
3 0 2 0 4 36 28 2 2 0 37 1 3 2 3 74 0 0 4 2 4 0 2 126 0 2 3 4 2 3 124 0 3 6 4 3 6 124 0 4 4 1 95 0 1 1 40 75 0 6 6 5 95 0 5 5 41 5 76 40 40 47 38 31 38 39 7 8 27
CALL[ ]	/* CallFunction */";
};
width = 971;
},
{
layerId = "D346AEB9-DD6D-429C-AFEE-90B4948468D3";
shapes = (
{
closed = 1;
nodes = (
(655,211.901,o),
(595.612,287,o),
(507,287,cs),
(428.467,287,o),
(358,216.858,o),
(358,126,cs),
(358,37.062,o),
(425.699,-33,o),
(505,-33,cs),
(583.196,-33,o),
(655,39.173,o),
(655,126,cs)
);
},
{
closed = 1;
nodes = (
(638,944.428,o),
(568.321,858.321,o),
(474,764,cs),
(334.491,627.173,o),
(307,578.148,o),
(307,513,cs),
(307,408.26,o),
(397.96,371,o),
(485,371,cs),
(537.404,371,o),
(622.307,381.165,o),
(687,416,c),
(655,521,l),
(631,514.333,o),
(610.667,513,o),
(592,513,cs),
(536,513,o),
(511,538.333,o),
(511,573,cs),
(511,636.519,o),
(616.148,710.238,o),
(724,797.5,cs),
(835.059,887.357,o),
(937,1002.594,o),
(937,1141,cs),
(937,1222.333,o),
(909,1303.667,o),
(841,1365,cs),
(773,1426.333,o),
(663.333,1467,o),
(502,1467,cs),
(379.333,1467,o),
(273,1427.5,o),
(197,1369.5,cs),
(121,1311.5,o),
(75,1236.333,o),
(75,1163,cs),
(75,1079.738,o),
(116.88,1017,o),
(212,1017,cs),
(305.664,1017,o),
(345,1102.881,o),
(345,1156,cs),
(345,1184,o),
(335,1230,o),
(307,1258,c),
(333.414,1289.697,o),
(398.203,1324,o),
(463,1324,cs),
(600.256,1324,o),
(638,1227.775,o),
(638,1100,cs)
);
}
);
userData = {
assembly = "NPUSHB[ ]	/* 67 values pushed */
30 1 3 2 66 1 5 3 67 1 6 5 3 74 0 3 2 5 2 3 5 126 0 5 6 2 5 6 124 0 6 1 2 6 1 124 0 2 2 4 95 0 4 4 40 75 0 1 1 0 95 0 0 0 41 0 76 38 61 40 43 40 40 36 7 8 27
CALL[ ]	/* CallFunction */";
};
width = 1031;
}
);
note = question;
unicode = 63;
}
{
glyphname = at;
layers = (
{
layerId = m001;
shapes = (
{
closed = 1;
nodes = (
(1071,-190,o),
(1257,-119,o),
(1389,33,c),
(1339,84,l),
(1196,-86,o),
(995,-111,o),
(854,-106,cs),
(549,-98,o),
(260,94,o),
(260,539,cs),
(260,883,o),
(461,1190,o),
(799,1217,cs),
(1137,1243,o),
(1411,1061,o),
(1399,567,cs),
(1393,326,o),
(1278,180,o),
(1163,205,cs),
(1087,221,o),
(1081,332,o),
(1090,438,cs),
(1100,573,o),
(1128,774,o),
(1151,961,c),
(1083,979,o),
(993,987,o),
(930,987,cs),
(616,987,o),
(449,727,o),
(449,428,cs),
(449,227,o),
(551,143,o),
(666,143,cs),
(795,143,o),
(897,250,o),
(981,498,c),
(952,340,o),
(926,168,o),
(1114,135,cs),
(1251,111,o),
(1544,221,o),
(1544,651,cs),
(1544,979,o),
(1298,1329,o),
(815,1303,cs),
(326,1276,o),
(102,870,o),
(102,526,cs),
(102,133,o),
(352,-205,o),
(856,-195,cs)
);
},
{
closed = 1;
nodes = (
(631,221,o),
(592,309,o),
(592,446,cs),
(592,662,o),
(686,926,o),
(879,926,cs),
(930,926,o),
(973,920,o),
(1006,907,c),
(1004,621,o),
(848,221,o),
(700,221,cs)
);
}
);
width = 1630;
},
{
layerId = "D346AEB9-DD6D-429C-AFEE-90B4948468D3";
shapes = (
{
closed = 1;
nodes = (
(1063,-199,o),
(1266,-113,o),
(1415,57,c),
(1370,113,l),
(1239,-33,o),
(1040,-102,o),
(874,-102,cs),
(539,-102,o),
(258,123,o),
(258,537,cs),
(258,889,o),
(496,1217,o),
(846,1217,cs),
(1147,1217,o),
(1378,1012,o),
(1378,639,cs),
(1378,498,o),
(1331,244,o),
(1169,244,cs),
(1112,244,o),
(1094,305,o),
(1094,365,cs),
(1094,469,o),
(1135,766,o),
(1159,950,c),
(1069,979,o),
(975,993,o),
(915,993,cs),
(608,993,o),
(444,719,o),
(444,453,cs),
(444,244,o),
(549,156,o),
(662,156,cs),
(750,156,o),
(852,225,o),
(926,410,c),
(907,201,o),
(1016,152,o),
(1112,145,cs),
(1284,135,o),
(1520,285,o),
(1528,621,cs),
(1536,958,o),
(1307,1305,o),
(856,1305,cs),
(365,1305,o),
(96,872,o),
(96,524,cs),
(96,133,o),
(350,-213,o),
(850,-203,cs)
);
},
{
closed = 1;
nodes = (
(676,297,o),
(647,350,o),
(647,446,cs),
(647,637,o),
(729,879,o),
(870,891,cs),
(895,893,o),
(928,891,o),
(946,885,c),
(936,651,o),
(821,297,o),
(717,297,cs)
);
}
);
width = 1624;
}
);
unicode = 64;
}
{
glyphname = B;
kernLeft = I;
layers = (
{
background = {
shapes = (
{
closed = 1;
nodes = (
(711,0,ls),
(987,0,o),
(1194,150,o),
(1194,401,cs),
(1194,612,o),
(1040,766,o),
(739,766,c),
(739,770,l),
(965,811,o),
(1075,954,o),
(1077,1087,cs),
(1081,1329,o),
(893,1438,o),
(575,1438,cs),
(412,1438,o),
(262,1436,o),
(113,1434,c),
(113,1343,l),
(162,1346,o),
(211,1350,o),
(260,1352,c),
(256,1317,o),
(254,1264,o),
(254,1190,cs),
(254,330,ls),
(254,176,o),
(266,72,o),
(113,68,c),
(113,0,l)
);
},
{
closed = 1;
nodes = (
(430,117,o),
(432,168,o),
(432,242,cs),
(432,705,l),
(498,709,o),
(561,711,o),
(643,711,cs),
(829,711,o),
(995,639,o),
(995,389,cs),
(995,184,o),
(854,78,o),
(643,78,cs),
(616,78,o),
(489,76,o),
(426,82,c)
);
},
{
closed = 1;
nodes = (
(432,1165,ls),
(432,1315,o),
(453,1364,o),
(586,1364,cs),
(721,1364,o),
(887,1319,o),
(891,1098,cs),
(893,946,o),
(815,793,o),
(582,788,cs),
(432,784,l)
);
}
);
};
layerId = m001;
shapes = (
{
closed = 1;
nodes = (
(711,0,ls),
(987,0,o),
(1194,150,o),
(1194,401,cs),
(1194,612,o),
(1040,766,o),
(739,766,c),
(739,770,l),
(965,811,o),
(1075,954,o),
(1077,1087,cs),
(1081,1329,o),
(893,1438,o),
(575,1438,cs),
(412,1438,o),
(262,1436,o),
(113,1434,c),
(113,1343,l),
(162,1346,o),
(211,1350,o),
(260,1352,c),
(256,1317,o),
(254,1264,o),
(254,1190,cs),
(254,330,ls),
(254,176,o),
(266,72,o),
(113,68,c),
(113,0,l)
);
},
{
closed = 1;
nodes = (
(430,117,o),
(432,168,o),
(432,242,cs),
(432,705,l),
(498,709,o),
(561,711,o),
(643,711,cs),
(829,711,o),
(995,639,o),
(995,389,cs),
(995,184,o),
(854,78,o),
(643,78,cs),
(616,78,o),
(489,76,o),
(426,82,c)
);
},
{
closed = 1;
nodes = (
(432,1165,ls),
(432,1315,o),
(453,1364,o),
(586,1364,cs),
(721,1364,o),
(887,1319,o),
(891,1098,cs),
(893,946,o),
(815,793,o),
(582,788,cs),
(432,784,l)
);
}
);
width = 1274;
},
{
background = {
shapes = (
{
closed = 1;
nodes = (
(799,0,ls),
(1085,0,o),
(1296,141,o),
(1296,408,cs),
(1296,578,o),
(1171,731,o),
(899,774,c),
(899,776,l),
(1092,827,o),
(1186,946,o),
(1194,1065,cs),
(1206,1315,o),
(997,1440,o),
(670,1438,cs),
(481,1436,o),
(291,1436,o),
(102,1434,c),
(102,1276,l),
(131,1278,o),
(213,1280,o),
(256,1282,c),
(252,1247,o),
(248,1171,o),
(248,1098,cs),
(248,313,ls),
(248,147,o),
(195,139,o),
(102,135,c),
(102,0,l)
);
},
{
closed = 1;
nodes = (
(541,180,o),
(545,252,o),
(545,326,cs),
(545,659,l),
(598,662,o),
(641,662,o),
(711,662,cs),
(842,662,o),
(975,602,o),
(975,414,cs),
(975,262,o),
(901,156,o),
(735,147,cs),
(672,145,o),
(608,145,o),
(537,145,c)
);
},
{
closed = 1;
nodes = (
(545,1122,ls),
(545,1280,o),
(598,1292,o),
(664,1294,cs),
(768,1296,o),
(881,1243,o),
(881,1081,cs),
(881,932,o),
(823,811,o),
(651,807,cs),
(545,805,l)
);
}
);
};
layerId = "D346AEB9-DD6D-429C-AFEE-90B4948468D3";
shapes = (
{
closed = 1;
nodes = (
(799,0,ls),
(1085,0,o),
(1296,141,o),
(1296,408,cs),
(1296,578,o),
(1171,731,o),
(899,774,c),
(899,776,l),
(1092,827,o),
(1186,946,o),
(1194,1065,cs),
(1206,1315,o),
(997,1440,o),
(670,1438,cs),
(481,1436,o),
(291,1436,o),
(102,1434,c),
(102,1276,l),
(131,1278,o),
(213,1280,o),
(256,1282,c),
(252,1247,o),
(248,1171,o),
(248,1098,cs),
(248,313,ls),
(248,147,o),
(195,139,o),
(102,135,c),
(102,0,l)
);
},
{
closed = 1;
nodes = (
(541,180,o),
(545,252,o),
(545,326,cs),
(545,659,l),
(598,662,o),
(641,662,o),
(711,662,cs),
(842,662,o),
(975,602,o),
(975,414,cs),
(975,262,o),
(901,156,o),
(735,147,cs),
(672,145,o),
(608,145,o),
(537,145,c)
);
},
{
closed = 1;
nodes = (
(545,1122,ls),
(545,1280,o),
(598,1292,o),
(664,1294,cs),
(768,1296,o),
(881,1243,o),
(881,1081,cs),
(881,932,o),
(823,811,o),
(651,807,cs),
(545,805,l)
);
}
);
width = 1354;
}
);
unicode = 66;
}
{
glyphname = D;
kernLeft = I;
kernRight = D;
layers = (
{
anchors = (
{
name = center;
pos = (764,717);
},
{
name = top;
pos = (709,1434);
}
);
background = {
anchors = (
{
name = center;
pos = (764,717);
},
{
name = top;
pos = (709,1434);
}
);
shapes = (
{
closed = 1;
nodes = (
(113,0,l),
(651,0,ls),
(1165,0,o),
(1432,338,o),
(1432,715,cs),
(1432,1208,o),
(1090,1438,o),
(596,1436,cs),
(113,1434,l),
(113,1343,l),
(162,1346,o),
(211,1350,o),
(260,1352,c),
(256,1311,o),
(254,1260,o),
(254,1204,cs),
(254,319,ls),
(254,174,o),
(266,74,o),
(113,68,c)
);
},
{
closed = 1;
nodes = (
(432,1114,ls),
(432,1260,o),
(420,1360,o),
(573,1360,cs),
(1024,1360,o),
(1231,1110,o),
(1231,723,cs),
(1231,356,o),
(997,78,o),
(645,78,cs),
(629,78,o),
(535,76,o),
(426,82,c),
(430,117,o),
(432,168,o),
(432,242,cs)
);
}
);
};
layerId = m001;
shapes = (
{
closed = 1;
nodes = (
(113,0,l),
(651,0,ls),
(1165,0,o),
(1432,338,o),
(1432,715,cs),
(1432,1208,o),
(1090,1438,o),
(596,1436,cs),
(113,1434,l),
(113,1343,l),
(162,1346,o),
(211,1350,o),
(260,1352,c),
(256,1311,o),
(254,1260,o),
(254,1204,cs),
(254,319,ls),
(254,174,o),
(266,74,o),
(113,68,c)
);
},
{
closed = 1;
nodes = (
(432,1114,ls),
(432,1260,o),
(420,1360,o),
(573,1360,cs),
(1024,1360,o),
(1231,1110,o),
(1231,723,cs),
(1231,356,o),
(997,78,o),
(645,78,cs),
(629,78,o),
(535,76,o),
(426,82,c),
(430,117,o),
(432,168,o),
(432,242,cs)
);
}
);
width = 1526;
},
{
anchors = (
{
name = center;
pos = (778,717);
},
{
name = top;
pos = (737,1434);
}
);
background = {
anchors = (
{
name = center;
pos = (778,717);
},
{
name = top;
pos = (737,1434);
}
);
shapes = (
{
closed = 1;
nodes = (
(102,0,l),
(688,0,ls),
(1262,0,o),
(1483,397,o),
(1483,731,cs),
(1483,1071,o),
(1239,1438,o),
(698,1436,cs),
(102,1434,l),
(102,1276,l),
(131,1278,o),
(213,1280,o),
(256,1282,c),
(252,1247,o),
(248,1171,o),
(248,1098,cs),
(248,313,ls),
(248,147,o),
(195,139,o),
(102,135,c)
);
},
{
closed = 1;
nodes = (
(545,1124,ls),
(545,1282,o),
(594,1303,o),
(694,1298,cs),
(979,1290,o),
(1159,1106,o),
(1159,688,cs),
(1159,416,o),
(1030,150,o),
(731,150,cs),
(682,150,o),
(575,156,o),
(537,152,c),
(541,186,o),
(545,262,o),
(545,336,cs)
);
}
);
};
layerId = "D346AEB9-DD6D-429C-AFEE-90B4948468D3";
shapes = (
{
closed = 1;
nodes = (
(102,0,l),
(688,0,ls),
(1262,0,o),
(1483,397,o),
(1483,731,cs),
(1483,1071,o),
(1239,1438,o),
(698,1436,cs),
(102,1434,l),
(102,1276,l),
(131,1278,o),
(213,1280,o),
(256,1282,c),
(252,1247,o),
(248,1171,o),
(248,1098,cs),
(248,313,ls),
(248,147,o),
(195,139,o),
(102,135,c)
);
},
{
closed = 1;
nodes = (
(545,1124,ls),
(545,1282,o),
(594,1303,o),
(694,1298,cs),
(979,1290,o),
(1159,1106,o),
(1159,688,cs),
(1159,416,o),
(1030,150,o),
(731,150,cs),
(682,150,o),
(575,156,o),
(537,152,c),
(541,186,o),
(545,262,o),
(545,336,cs)
);
}
);
width = 1554;
}
);
unicode = 68;
}
{
glyphname = F;
kernLeft = I;
layers = (
{
background = {
shapes = (
{
closed = 1;
nodes = (
(635,0,l),
(635,90,l),
(565,88,o),
(496,84,o),
(426,82,c),
(430,117,o),
(432,170,o),
(432,244,cs),
(432,674,l),
(555,680,ls),
(727,688,o),
(799,680,o),
(799,498,c),
(864,498,l),
(864,930,l),
(774,930,l),
(788,752,l),
(432,754,l),
(432,1106,ls),
(432,1247,o),
(422,1354,o),
(573,1358,cs),
(723,1362,ls),
(877,1366,o),
(1006,1317,o),
(1006,1075,c),
(1073,1075,l),
(1063,1434,l),
(113,1434,l),
(113,1343,l),
(162,1346,o),
(211,1350,o),
(260,1352,c),
(256,1311,o),
(254,1260,o),
(254,1204,cs),
(254,319,ls),
(254,174,o),
(266,74,o),
(113,68,c),
(113,0,l)
);
}
);
};
layerId = m001;
shapes = (
{
closed = 1;
nodes = (
(635,0,l),
(635,90,l),
(565,88,o),
(496,84,o),
(426,82,c),
(430,117,o),
(432,170,o),
(432,244,cs),
(432,674,l),
(555,680,ls),
(727,688,o),
(799,680,o),
(799,498,c),
(864,498,l),
(864,930,l),
(774,930,l),
(788,752,l),
(432,754,l),
(432,1106,ls),
(432,1247,o),
(422,1354,o),
(573,1358,cs),
(723,1362,ls),
(877,1366,o),
(1006,1317,o),
(1006,1075,c),
(1073,1075,l),
(1063,1434,l),
(113,1434,l),
(113,1343,l),
(162,1346,o),
(211,1350,o),
(260,1352,c),
(256,1311,o),
(254,1260,o),
(254,1204,cs),
(254,319,ls),
(254,174,o),
(266,74,o),
(113,68,c),
(113,0,l)
);
}
);
width = 1122;
},
{
background = {
shapes = (
{
closed = 1;
nodes = (
(719,0,l),
(719,158,l),
(688,158,o),
(580,156,o),
(537,152,c),
(541,186,o),
(545,262,o),
(545,336,cs),
(545,623,l),
(569,623,ls),
(680,627,o),
(770,614,o),
(770,442,c),
(905,442,l),
(905,940,l),
(748,940,l),
(756,764,l),
(545,764,l),
(545,1120,ls),
(545,1280,o),
(596,1296,o),
(682,1298,cs),
(756,1300,ls),
(866,1305,o),
(1004,1260,o),
(1004,1036,c),
(1139,1036,l),
(1126,1434,l),
(102,1434,l),
(102,1276,l),
(131,1278,o),
(213,1280,o),
(256,1282,c),
(252,1247,o),
(248,1171,o),
(248,1098,cs),
(248,313,ls),
(248,147,o),
(195,139,o),
(102,135,c),
(102,0,l)
);
}
);
};
layerId = "D346AEB9-DD6D-429C-AFEE-90B4948468D3";
shapes = (
{
closed = 1;
nodes = (
(719,0,l),
(719,158,l),
(688,158,o),
(580,156,o),
(537,152,c),
(541,186,o),
(545,262,o),
(545,336,cs),
(545,623,l),
(569,623,ls),
(680,627,o),
(770,614,o),
(770,442,c),
(905,442,l),
(905,940,l),
(748,940,l),
(756,764,l),
(545,764,l),
(545,1120,ls),
(545,1280,o),
(596,1296,o),
(682,1298,cs),
(756,1300,ls),
(866,1305,o),
(1004,1260,o),
(1004,1036,c),
(1139,1036,l),
(1126,1434,l),
(102,1434,l),
(102,1276,l),
(131,1278,o),
(213,1280,o),
(256,1282,c),
(252,1247,o),
(248,1171,o),
(248,1098,cs),
(248,313,ls),
(248,147,o),
(195,139,o),
(102,135,c),
(102,0,l)
);
}
);
width = 1169;
}
);
unicode = 70;
}
{
glyphname = H;
kernLeft = B;
kernRight = H;
layers = (
{
layerId = m001;
shapes = (
{
closed = 1;
nodes = (
(1344,1261.942,o),
(1333.662,1360.69,o),
(1485,1366,c),
(1485,1434,l),
(1024,1434,l),
(1024,1343,l),
(1172,1352,l),
(1168,1310.667,o),
(1166,1261.333,o),
(1166,1204,cs),
(1166,774,l),
(433,774,l),
(433,1114,ls),
(433,1260.576,o),
(421.929,1360.756,o),
(574,1366,c),
(574,1434,l),
(113,1434,l),
(113,1343,l),
(261,1352,l),
(255.667,1310.667,o),
(254,1260,o),
(254,1204,cs),
(254,319,ls),
(254,170.279,o),
(264.812,73.235,o),
(113,68,c),
(113,0,l),
(574,0,l),
(574,90,l),
(426,82,l),
(431.333,116.667,o),
(433,169.333,o),
(433,244,cs),
(433,684,l),
(1166,693,l),
(1166,319,l),
(1166,172.862,o),
(1178.302,73.321,o),
(1024,68,c),
(1024,0,l),
(1485,0,l),
(1485,90,l),
(1338,82,l),
(1342,116.667,o),
(1344,170.667,o),
(1344,244,cs),
(1344,1114,ls)
);
}
);
userData = {
assembly = "NPUSHB[ ]	/* 71 values pushed */
10 1 6 5 4 4 6 112 13 1 3 1 2 1 3 112 0 7 0 0 1 7 0 101 8 1 4 4 5 94 9 1 5 5 32 75 11 1 1 1 2 93 12 1 2 2 33 2 76 49 48 47 46 45 44 37 36 35 34 19 21 17 17 24 17 17 20 16 14 8 29
CALL[ ]	/* CallFunction */";
};
width = 1597;
},
{
layerId = "D346AEB9-DD6D-429C-AFEE-90B4948468D3";
shapes = (
{
closed = 1;
nodes = (
(1404,1284.098,o),
(1455.494,1293.6,o),
(1550,1299,c),
(1550,1434,l),
(962,1434,l),
(962,1276,l),
(1116,1282,l),
(1110.713,1247.637,o),
(1108,1173.319,o),
(1108,1098,cs),
(1108,800,l),
(544,800,l),
(544,1121,ls),
(544,1284.098,o),
(595.494,1293.6,o),
(690,1299,c),
(690,1434,l),
(102,1434,l),
(102,1276,l),
(256,1282,l),
(250.713,1247.637,o),
(248,1173.319,o),
(248,1098,cs),
(248,313,ls),
(248,147.844,o),
(195.372,140.492,o),
(102,135,c),
(102,0,l),
(690,0,l),
(690,158,l),
(536,152,l),
(541.287,186.363,o),
(544,260.681,o),
(544,336,cs),
(544,638,l),
(1108,645,l),
(1108,313,ls),
(1108,147.844,o),
(1055.372,140.492,o),
(962,135,c),
(962,0,l),
(1550,0,l),
(1550,158,l),
(1396,152,l),
(1401.287,186.363,o),
(1404,260.681,o),
(1404,336,cs),
(1404,1121,l)
);
}
);
userData = {
assembly = "NPUSHB[ ]	/* 59 values pushed */
0 10 0 3 0 10 3 101 13 11 9 3 7 7 8 93 12 1 8 8 32 75 6 4 2 3 0 0 1 93 5 1 1 1 33 1 76 59 58 57 56 55 53 48 47 42 41 17 41 17 17 37 21 17 17 36 14 8 29
CALL[ ]	/* CallFunction */";
};
width = 1652;
}
);
note = H;
unicode = 72;
}
{
glyphname = I;
kernLeft = B;
kernRight = H;
layers = (
{
layerId = m001;
shapes = (
{
closed = 1;
nodes = (
(254,170.279,o),
(264.812,73.235,o),
(113,68,c),
(113,0,l),
(574,0,l),
(574,90,l),
(426,82,l),
(431.333,116.667,o),
(433,169.333,o),
(433,244,cs),
(433,1114,ls),
(433,1260.576,o),
(421.929,1360.756,o),
(574,1366,c),
(574,1434,l),
(113,1434,l),
(113,1343,l),
(261,1352,l),
(255.667,1310.667,o),
(254,1260,o),
(254,1204,cs),
(254,319,l)
);
}
);
userData = {
assembly = "NPUSHB[ ]	/* 44 values pushed */
0 2 1 0 0 2 112 0 5 3 4 3 5 112 0 0 0 1 94 0 1 1 32 75 0 3 3 4 93 0 4 4 33 4 76 17 17 24 17 17 19 6 8 26
CALL[ ]	/* CallFunction */";
};
width = 686;
},
{
layerId = "D346AEB9-DD6D-429C-AFEE-90B4948468D3";
shapes = (
{
closed = 1;
nodes = (
(248,147.844,o),
(195.372,140.492,o),
(102,135,c),
(102,0,l),
(690,0,l),
(690,158,l),
(536,152,l),
(541.287,186.363,o),
(544,260.681,o),
(544,336,cs),
(544,1121,l),
(544,1284.098,o),
(595.494,1293.6,o),
(690,1299,c),
(690,1434,l),
(102,1434,l),
(102,1276,l),
(256,1282,l),
(250.713,1247.637,o),
(248,1173.319,o),
(248,1098,cs),
(248,313,ls)
);
}
);
userData = {
assembly = "NPUSHB[ ]	/* 32 values pushed */
5 1 3 3 4 93 0 4 4 32 75 2 1 0 0 1 93 0 1 1 33 1 76 17 17 41 17 17 36 6 8 26
CALL[ ]	/* CallFunction */";
};
width = 792;
}
);
note = I;
unicode = 73;
}
{
glyphname = K;
kernLeft = B;
layers = (
{
layerId = m001;
shapes = (
{
closed = 1;
nodes = (
(433,1260.576,o),
(421.929,1360.756,o),
(574,1366,c),
(574,1434,l),
(113,1434,l),
(113,1343,l),
(261,1352,l),
(255.667,1310.667,o),
(254,1260,o),
(254,1204,cs),
(254,319,l),
(254,170.279,o),
(264.812,73.235,o),
(113,68,c),
(113,0,l),
(574,0,l),
(574,90,l),
(426,82,l),
(431.333,116.667,o),
(433,169.333,o),
(433,244,cs),
(433,696,l),
(533,698,l),
(582.333,667.333,o),
(635,600,o),
(687,532,cs),
(932,201,ls),
(1002.498,109.352,o),
(1094.927,0,o),
(1139,0,cs),
(1389,0,l),
(1389,68,l),
(1345,68,o),
(1309.333,71.5,o),
(1264,101.5,cs),
(1218.667,131.5,o),
(1165.333,187,o),
(1088,291,cs),
(859,596,ls),
(806.307,662.56,o),
(764.971,722.846,o),
(689,770,c),
(889,1090,ls),
(1025.423,1310.376,o),
(1130.252,1352.712,o),
(1303,1366,c),
(1303,1434,l),
(863,1434,l),
(863,1350,l),
(988,1354,l),
(930.361,1307.34,o),
(878.166,1237.64,o),
(842,1182,cs),
(586,778,l),
(433,778,l),
(433,1114,ls)
);
}
);
userData = {
assembly = "NPUSHB[ ]	/* 82 values pushed */
24 1 2 1 30 1 8 3 2 74 0 2 1 0 0 2 112 0 3 0 8 9 3 8 101 4 1 0 0 1 94 5 1 1 1 32 75 0 9 9 7 93 10 1 7 7 33 75 11 1 6 6 7 93 10 1 7 7 33 7 76 62 61 60 59 58 57 53 52 43 42 41 40 17 22 21 17 17 19 12 8 26
CALL[ ]	/* CallFunction */";
};
width = 1364;
},
{
layerId = "D346AEB9-DD6D-429C-AFEE-90B4948468D3";
shapes = (
{
closed = 1;
nodes = (
(544,1284.098,o),
(595.494,1293.6,o),
(690,1299,c),
(690,1434,l),
(102,1434,l),
(102,1276,l),
(256,1282,l),
(250.713,1247.637,o),
(248,1173.319,o),
(248,1098,cs),
(248,313,ls),
(248,147.844,o),
(195.372,140.492,o),
(102,135,c),
(102,0,l),
(690,0,l),
(690,158,l),
(536,152,l),
(541.287,186.363,o),
(544,260.681,o),
(544,336,cs),
(544,645,l),
(618,646,l),
(654.618,619.844,o),
(699.291,555.534,o),
(738,503,cs),
(940,208,ls),
(988.552,138.639,o),
(1103.178,2.832,o),
(1140,0,c),
(1456,0,l),
(1456,135,l),
(1422,137,o),
(1388,152,o),
(1354,175,cs),
(1295,217,o),
(1237,285,o),
(1187,357,cs),
(976,654,ls),
(944,699.333,o),
(904,738.667,o),
(848,772,c),
(1044,1089,ls),
(1123,1217,o),
(1209,1290,o),
(1361,1299,c),
(1361,1434,l),
(860,1434,l),
(860,1276,l),
(990,1282,l),
(953.024,1252.947,o),
(894.845,1155.955,o),
(849,1077,cs),
(693,809,l),
(544,809,l),
(544,1121,ls)
);
}
);
userData = {
assembly = "NPUSHB[ ]	/* 62 values pushed */
18 1 6 0 1 74 0 0 0 6 4 0 6 101 12 10 3 3 1 1 2 93 11 1 2 2 32 75 9 7 2 4 4 5 93 8 1 5 5 33 5 76 68 67 66 65 64 62 53 52 17 37 27 17 30 17 17 38 16 13 8 29
CALL[ ]	/* CallFunction */";
};
width = 1459;
}
);
note = K;
unicode = 75;
}
{
glyphname = M;
layers = (
{
anchors = (
{
name = bottom;
pos = (940,0);
},
{
name = top;
pos = (940,1434);
}
);
background = {
anchors = (
{
name = bottom;
pos = (940,0);
},
{
name = top;
pos = (940,1434);
}
);
shapes = (
{
closed = 1;
nodes = (
(946,-20,l),
(1407,1118,ls),
(1415,1143,o),
(1425,1163,o),
(1434,1184,c),
(1438,1118,o),
(1442,1053,o),
(1446,987,c),
(1487,311,ls),
(1495,156,o),
(1479,72,o),
(1352,68,c),
(1352,0,l),
(1810,0,l),
(1810,90,l),
(1761,88,o),
(1710,86,o),
(1661,84,c),
(1661,119,o),
(1661,164,o),
(1657,211,cs),
(1604,1143,ls),
(1593,1311,o),
(1642,1368,o),
(1745,1366,c),
(1745,1434,l),
(1442,1434,l),
(1315,1112,o),
(1182,813,o),
(1063,514,cs),
(1034,440,o),
(989,324,o),
(958,250,c),
(954,250,l),
(899,377,o),
(846,498,o),
(795,621,c),
(442,1434,l),
(129,1434,l),
(129,1346,l),
(178,1348,o),
(227,1350,o),
(276,1352,c),
(274,1298,o),
(272,1243,o),
(270,1190,c),
(231,256,ls),
(227,156,o),
(217,70,o),
(90,68,c),
(90,0,l),
(481,0,l),
(481,90,l),
(430,88,o),
(379,84,o),
(328,82,c),
(334,133,o),
(334,195,o),
(336,256,cs),
(340,532,o),
(352,915,o),
(358,1112,cs),
(358,1143,o),
(360,1171,o),
(360,1202,c),
(412,1065,o),
(465,932,o),
(522,801,cs),
(639,522,o),
(764,252,o),
(885,-20,c)
);
}
);
};
layerId = m001;
shapes = (
{
closed = 1;
nodes = (
(946,-20,l),
(1407,1118,ls),
(1415,1143,o),
(1425,1163,o),
(1434,1184,c),
(1438,1118,o),
(1442,1053,o),
(1446,987,c),
(1487,311,ls),
(1495,156,o),
(1479,72,o),
(1352,68,c),
(1352,0,l),
(1810,0,l),
(1810,90,l),
(1761,88,o),
(1710,86,o),
(1661,84,c),
(1661,119,o),
(1661,164,o),
(1657,211,cs),
(1604,1143,ls),
(1593,1311,o),
(1642,1368,o),
(1745,1366,c),
(1745,1434,l),
(1442,1434,l),
(1315,1112,o),
(1182,813,o),
(1063,514,cs),
(1034,440,o),
(989,324,o),
(958,250,c),
(954,250,l),
(899,377,o),
(846,498,o),
(795,621,c),
(442,1434,l),
(129,1434,l),
(129,1346,l),
(178,1348,o),
(227,1350,o),
(276,1352,c),
(274,1298,o),
(272,1243,o),
(270,1190,c),
(231,256,ls),
(227,156,o),
(217,70,o),
(90,68,c),
(90,0,l),
(481,0,l),
(481,90,l),
(430,88,o),
(379,84,o),
(328,82,c),
(334,133,o),
(334,195,o),
(336,256,cs),
(340,532,o),
(352,915,o),
(358,1112,cs),
(358,1143,o),
(360,1171,o),
(360,1202,c),
(412,1065,o),
(465,932,o),
(522,801,cs),
(639,522,o),
(764,252,o),
(885,-20,c)
);
}
);
width = 1880;
},
{
anchors = (
{
name = bottom;
pos = (995,0);
},
{
name = top;
pos = (995,1434);
}
);
background = {
anchors = (
{
name = bottom;
pos = (995,0);
},
{
name = top;
pos = (995,1434);
}
);
shapes = (
{
closed = 1;
nodes = (
(1026,-20,l),
(1425,1047,l),
(1432,1065,o),
(1440,1083,o),
(1448,1102,c),
(1452,977,o),
(1462,797,o),
(1464,748,cs),
(1481,313,ls),
(1487,147,o),
(1427,139,o),
(1335,135,c),
(1335,0,l),
(1905,0,l),
(1905,158,l),
(1876,158,o),
(1794,156,o),
(1749,152,c),
(1755,186,o),
(1761,262,o),
(1757,336,cs),
(1726,1120,ls),
(1720,1286,o),
(1782,1294,o),
(1874,1298,c),
(1874,1434,l),
(1401,1434,l),
(1294,1151,o),
(1190,870,o),
(1083,588,cs),
(1051,502,o),
(1022,412,o),
(987,317,c),
(985,317,l),
(965,387,o),
(907,547,o),
(870,641,cs),
(561,1434,l),
(109,1434,l),
(109,1276,l),
(137,1278,o),
(219,1280,o),
(262,1282,c),
(258,1247,o),
(256,1171,o),
(254,1098,cs),
(242,313,ls),
(240,147,o),
(188,139,o),
(96,135,c),
(96,0,l),
(563,0,l),
(563,158,l),
(535,158,o),
(453,156,o),
(408,152,c),
(414,186,o),
(418,262,o),
(418,336,cs),
(418,459,o),
(420,584,o),
(420,707,cs),
(422,829,o),
(418,963,o),
(414,1116,c),
(459,920,o),
(526,729,o),
(559,653,cs),
(651,428,o),
(743,205,o),
(836,-20,c)
);
}
);
};
layerId = "D346AEB9-DD6D-429C-AFEE-90B4948468D3";
shapes = (
{
closed = 1;
nodes = (
(1026,-20,l),
(1425,1047,l),
(1432,1065,o),
(1440,1083,o),
(1448,1102,c),
(1452,977,o),
(1462,797,o),
(1464,748,cs),
(1481,313,ls),
(1487,147,o),
(1427,139,o),
(1335,135,c),
(1335,0,l),
(1905,0,l),
(1905,158,l),
(1876,158,o),
(1794,156,o),
(1749,152,c),
(1755,186,o),
(1761,262,o),
(1757,336,cs),
(1726,1120,ls),
(1720,1286,o),
(1782,1294,o),
(1874,1298,c),
(1874,1434,l),
(1401,1434,l),
(1294,1151,o),
(1190,870,o),
(1083,588,cs),
(1051,502,o),
(1022,412,o),
(987,317,c),
(985,317,l),
(965,387,o),
(907,547,o),
(870,641,cs),
(561,1434,l),
(109,1434,l),
(109,1276,l),
(137,1278,o),
(219,1280,o),
(262,1282,c),
(258,1247,o),
(256,1171,o),
(254,1098,cs),
(242,313,ls),
(240,147,o),
(188,139,o),
(96,135,c),
(96,0,l),
(563,0,l),
(563,158,l),
(535,158,o),
(453,156,o),
(408,152,c),
(414,186,o),
(418,262,o),
(418,336,cs),
(418,459,o),
(420,584,o),
(420,707,cs),
(422,829,o),
(418,963,o),
(414,1116,c),
(459,920,o),
(526,729,o),
(559,653,cs),
(651,428,o),
(743,205,o),
(836,-20,c)
);
}
);
width = 1991;
}
);
unicode = 77;
}
{
glyphname = N;
kernLeft = B;
kernRight = N;
layers = (
{
layerId = m001;
shapes = (
{
closed = 1;
nodes = (
(1336,1255.815,o),
(1317.681,1360.644,o),
(1473,1366,c),
(1473,1434,l),
(1096,1434,l),
(1096,1343,l),
(1243,1352,l),
(1239,1310.667,o),
(1237,1261.333,o),
(1237,1204,cs),
(1235,267,l),
(1233,267,l),
(361,1434,l),
(117,1434,l),
(117,1343,l),
(254,1352,l),
(252,229,ls),
(252,165.029,o),
(241.747,68,o),
(117,68,c),
(117,0,l),
(492,0,l),
(492,90,l),
(344,82,l),
(348,147.333,o),
(348,214.333,o),
(348,285,cs),
(341,1162,l),
(344,1162,l),
(1233,-33,l),
(1332,-33,l),
(1336,1114,l),
(1336,1114,l),
(1336,1114,l)
);
}
);
userData = {
assembly = "NPUSHB[ ]	/* 61 values pushed */
21 2 2 1 4 1 74 0 8 5 4 4 8 112 0 3 1 2 1 3 112 6 1 4 4 5 94 7 1 5 5 32 75 0 1 1 2 93 0 2 2 33 75 0 0 0 33 0 76 17 17 21 17 21 17 17 22 16 9 8 29
CALL[ ]	/* CallFunction */";
};
width = 1561;
},
{
layerId = "D346AEB9-DD6D-429C-AFEE-90B4948468D3";
shapes = (
{
closed = 1;
nodes = (
(1365,1284.098,o),
(1416.494,1293.6,o),
(1511,1299,c),
(1511,1434,l),
(1045,1434,l),
(1045,1276,l),
(1199,1282,l),
(1193.713,1247.637,o),
(1191,1173.319,o),
(1191,1098,cs),
(1191,448,l),
(1189,448,l),
(1157,494.667,o),
(1115.333,556,o),
(1046,644,cs),
(420,1434,l),
(99,1434,l),
(99,1276,l),
(253,1282,l),
(247.713,1247.637,o),
(245,1173.319,o),
(245,1098,cs),
(250,313,ls),
(250,147.844,o),
(197.372,140.492,o),
(104,135,c),
(104,0,l),
(571,0,l),
(571,158,l),
(417,152,l),
(422.287,186.363,o),
(425,260.681,o),
(425,336,cs),
(422,970,l),
(424,970,l),
(464,912.667,o),
(501.333,861.667,o),
(536,817,cs),
(1191,-20,l),
(1365,-20,l),
(1365,1121,l),
(1365,1121,l)
);
}
);
userData = {
assembly = "NPUSHB[ ]	/* 45 values pushed */
33 4 2 1 4 1 74 8 6 2 4 4 5 93 7 1 5 5 32 75 3 1 1 1 0 93 2 1 0 0 33 0 76 17 17 42 17 41 17 17 41 16 9 8 29
CALL[ ]	/* CallFunction */";
};
width = 1583;
}
);
note = N;
unicode = 78;
}
{
glyphname = O;
kernLeft = C;
kernRight = O;
layers = (
{
layerId = m001;
shapes = (
{
closed = 1;
nodes = (
(295,1058.602,o),
(464.077,1385,o),
(800,1385,cs),
(966.17,1385,o),
(1102.399,1295.415,o),
(1193,1157.5,cs),
(1287.788,1013.212,o),
(1332,835.358,o),
(1332,678,cs),
(1332,517.879,o),
(1284.543,366.08,o),
(1205,251.5,cs),
(1120.421,129.666,o),
(991.123,51,o),
(827,51,cs),
(648.75,51,o),
(510.425,147.622,o),
(423.5,288.5,cs),
(334.383,432.931,o),
(295,603.162,o),
(295,754,cs)
);
},
{
closed = 1;
nodes = (
(94,542.835,o),
(142.437,358.535,o),
(263.5,208.5,cs),
(341.5,111.833,o),
(449.167,39.333,o),
(588.5,-2,cs),
(658.167,-22.667,o),
(736.333,-33,o),
(823,-33,cs),
(1075.759,-33,o),
(1254.605,81.957,o),
(1361,214.5,cs),
(1479.934,362.663,o),
(1536,548.33,o),
(1536,717,cs),
(1536,880.176,o),
(1484.019,1065.448,o),
(1358.5,1220.5,cs),
(1279.167,1318.5,o),
(1171.167,1392.333,o),
(1034.5,1435,cs),
(966.167,1456.333,o),
(890.333,1467,o),
(807,1467,cs),
(552.142,1467,o),
(376.779,1354.354,o),
(269,1221,cs),
(155.494,1080.56,o),
(94,902.133,o),
(94,717,cs)
);
}
);
userData = {
assembly = "NPUSHB[ ]	/* 28 values pushed */
0 1 1 2 95 0 2 2 40 75 0 0 0 3 95 0 3 3 41 3 76 44 42 44 38 4 8 24
CALL[ ]	/* CallFunction */";
};
width = 1626;
},
{
layerId = "D346AEB9-DD6D-429C-AFEE-90B4948468D3";
shapes = (
{
closed = 1;
nodes = (
(394,874.471,o),
(416.964,1010.481,o),
(476,1125.5,cs),
(535.85,1242.105,o),
(634.134,1317,o),
(776,1317,cs),
(914.667,1317,o),
(1015.333,1250.167,o),
(1082,1137.5,cs),
(1148.667,1024.833,o),
(1180,866,o),
(1180,682,cs),
(1180,555.337,o),
(1158.314,420.537,o),
(1099,306,cs),
(1039.978,192.027,o),
(943.379,117,o),
(806,117,cs),
(656.663,117,o),
(548.801,204.423,o),
(484,332,cs),
(418.38,461.189,o),
(394,612.098,o),
(394,741,cs)
);
},
{
closed = 1;
nodes = (
(72,535.17,o),
(121.653,352.02,o),
(233.5,208.5,cs),
(308.833,111.833,o),
(414.667,39.333,o),
(552,-2,cs),
(620.667,-22.667,o),
(698.333,-33,o),
(785,-33,cs),
(1038.231,-33,o),
(1218.447,81.859,o),
(1325.5,215,cs),
(1445.026,363.655,o),
(1503,541.984,o),
(1503,717,cs),
(1503,898.134,o),
(1447.817,1073.373,o),
(1333.5,1219.5,cs),
(1217.869,1367.307,o),
(1032.096,1467,o),
(791,1467,cs),
(537.448,1467,o),
(358.316,1354.919,o),
(249.5,1220.5,cs),
(131.792,1075.097,o),
(72,897.109,o),
(72,717,cs)
);
}
);
userData = {
assembly = "NPUSHB[ ]	/* 28 values pushed */
0 1 1 2 95 0 2 2 40 75 0 0 0 3 95 0 3 3 41 3 76 44 44 42 38 4 8 24
CALL[ ]	/* CallFunction */";
};
width = 1574;
}
);
note = O;
unicode = 79;
}
{
glyphname = P;
kernLeft = B;
layers = (
{
layerId = m001;
shapes = (
{
closed = 1;
nodes = (
(692.667,539,o),
(832.5,571.5,o),
(934.5,621.5,cs),
(985.5,646.5,o),
(1027.833,675.833,o),
(1061.5,709.5,cs),
(1128.833,776.833,o),
(1166.833,853.667,o),
(1179.5,923,cs),
(1185.833,957.667,o),
(1189,989.333,o),
(1189,1018,cs),
(1189,1158,o),
(1133.667,1264.333,o),
(1023,1337,cs),
(919.667,1403.667,o),
(768.667,1437,o),
(570,1437,cs),
(408.667,1437,o),
(257,1436.667,o),
(113,1434,c),
(113,1343,l),
(261,1352,l),
(255.667,1310.667,o),
(254,1260,o),
(254,1204,cs),
(254,319,ls),
(254,170.279,o),
(264.812,73.235,o),
(113,68,c),
(113,0,l),
(615,0,l),
(615,92,l),
(426,82,l),
(431.333,116.667,o),
(433,169.333,o),
(433,244,cs),
(433,540,l),
(446.333,539.333,o),
(460,539,o),
(474,539,cs),
(495.333,539,o),
(506,539,o),
(506,539,c)
);
},
{
closed = 1;
nodes = (
(433,1214,ls),
(433,1303.779,o),
(461.315,1357,o),
(566,1357,cs),
(817.281,1357,o),
(990,1260.256,o),
(990,1001,cs),
(990,759.554,o),
(797.541,618,o),
(566,618,cs),
(515.333,618,o),
(483.667,618.333,o),
(433,625,c),
(433,1114,l),
(433,1114,l),
(433,1114,l)
);
}
);
userData = {
assembly = "NPUSHB[ ]	/* 67 values pushed */
37 1 6 4 1 74 0 3 1 2 1 3 112 0 6 8 1 0 1 6 0 103 7 1 4 4 5 93 0 5 5 32 75 0 1 1 2 93 0 2 2 33 2 76 4 0 51 49 41 38 27 23 22 21 13 12 11 10 9 8 0 36 4 36 9 8 20
CALL[ ]	/* CallFunction */";
};
width = 1240;
},
{
layerId = "D346AEB9-DD6D-429C-AFEE-90B4948468D3";
shapes = (
{
closed = 1;
nodes = (
(893,525.667,o),
(1037.167,586,o),
(1132.5,674,cs),
(1227.833,762,o),
(1274.333,874.333,o),
(1273,989,cs),
(1273,1306.532,o),
(1036.446,1440.642,o),
(685,1438,cs),
(102,1434,l),
(102,1276,l),
(256,1282,l),
(250.713,1247.637,o),
(248,1173.319,o),
(248,1098,cs),
(248,313,ls),
(248,147.844,o),
(195.372,140.492,o),
(102,135,c),
(102,0,l),
(710,0,l),
(710,158,l),
(536,152,l),
(541.333,186.667,o),
(544,262.333,o),
(544,337,cs),
(544,518,l),
(556,517.333,o),
(567.333,517,o),
(578,517,cs),
(612,517,ls),
(636,517,o),
(661,517.667,o),
(693,519,cs)
);
},
{
closed = 1;
nodes = (
(604,665,o),
(573.333,668.333,o),
(544,671,c),
(544,1132,ls),
(544,1276.024,o),
(595.202,1294,o),
(682,1294,cs),
(731.05,1294,o),
(798.834,1288.418,o),
(858.5,1245.5,cs),
(896.5,1218.167,o),
(926.667,1174.333,o),
(944,1109,cs),
(952.667,1076.333,o),
(957,1037.333,o),
(957,992,cs),
(957,783.09,o),
(861.314,665,o),
(636,665,cs)
);
}
);
userData = {
assembly = "NPUSHB[ ]	/* 66 values pushed */
56 1 6 4 1 74 9 1 6 8 1 0 1 6 0 101 7 1 4 4 5 93 0 5 5 32 75 3 1 1 1 2 93 0 2 2 33 2 76 39 38 6 0 51 49 38 58 39 58 29 27 26 24 15 14 13 12 11 10 0 37 6 37 10 8 20
CALL[ ]	/* CallFunction */";
};
width = 1308;
}
);
note = P;
unicode = 80;
}
{
glyphname = Q;
kernLeft = O;
kernRight = O;
layers = (
{
background = {
shapes = (
{
closed = 1;
nodes = (
(1610,-446,l),
(1610,-379,l),
(1530,-379,o),
(1473,-322,o),
(1282,-145,cs),
(1161,-33,o),
(1092,-16,o),
(989,-14,c),
(1360,66,o),
(1536,418,o),
(1536,717,cs),
(1536,1059,o),
(1307,1466,o),
(807,1466,cs),
(324,1466,o),
(94,1061,o),
(94,717,cs),
(94,365,o),
(299,-25,o),
(809,-33,cs),
(940,-33,o),
(1014,-166,o),
(1198,-332,cs),
(1325,-446,o),
(1397,-446,o),
(1544,-446,cs)
);
},
{
closed = 1;
nodes = (
(461,51,o),
(295,451,o),
(295,754,cs),
(295,1057,o),
(463,1384,o),
(801,1384,cs),
(1141,1384,o),
(1331,1014,o),
(1331,678,cs),
(1331,377,o),
(1163,51,o),
(827,51,cs)
);
}
);
};
layerId = m001;
shapes = (
{
closed = 1;
nodes = (
(1610,-446,l),
(1610,-379,l),
(1530,-379,o),
(1473,-322,o),
(1282,-145,cs),
(1161,-33,o),
(1092,-16,o),
(989,-14,c),
(1360,66,o),
(1536,418,o),
(1536,717,cs),
(1536,1059,o),
(1307,1466,o),
(807,1466,cs),
(324,1466,o),
(94,1061,o),
(94,717,cs),
(94,365,o),
(299,-25,o),
(809,-33,cs),
(940,-33,o),
(1014,-166,o),
(1198,-332,cs),
(1325,-446,o),
(1397,-446,o),
(1544,-446,cs)
);
},
{
closed = 1;
nodes = (
(461,51,o),
(295,451,o),
(295,754,cs),
(295,1057,o),
(463,1384,o),
(801,1384,cs),
(1141,1384,o),
(1331,1014,o),
(1331,678,cs),
(1331,377,o),
(1163,51,o),
(827,51,cs)
);
}
);
width = 1630;
},
{
background = {
shapes = (
{
closed = 1;
nodes = (
(1626,-446,l),
(1626,-309,l),
(1536,-309,o),
(1528,-281,o),
(1337,-104,cs),
(1231,-4,o),
(1159,10,o),
(1042,10,c),
(1350,129,o),
(1503,444,o),
(1503,717,cs),
(1503,1059,o),
(1290,1466,o),
(793,1466,cs),
(307,1466,o),
(74,1061,o),
(74,717,cs),
(74,365,o),
(262,-33,o),
(766,-33,cs),
(936,-33,o),
(1012,-182,o),
(1186,-336,cs),
(1300,-436,o),
(1350,-446,o),
(1538,-446,cs)
);
},
{
closed = 1;
nodes = (
(498,115,o),
(395,485,o),
(395,741,cs),
(395,993,o),
(483,1311,o),
(766,1317,cs),
(1051,1323,o),
(1182,1057,o),
(1182,682,cs),
(1182,430,o),
(1090,119,o),
(807,117,cs)
);
}
);
};
layerId = "D346AEB9-DD6D-429C-AFEE-90B4948468D3";
shapes = (
{
closed = 1;
nodes = (
(1626,-446,l),
(1626,-309,l),
(1536,-309,o),
(1528,-281,o),
(1337,-104,cs),
(1231,-4,o),
(1159,10,o),
(1042,10,c),
(1350,129,o),
(1503,444,o),
(1503,717,cs),
(1503,1059,o),
(1290,1466,o),
(793,1466,cs),
(307,1466,o),
(74,1061,o),
(74,717,cs),
(74,365,o),
(262,-33,o),
(766,-33,cs),
(936,-33,o),
(1012,-182,o),
(1186,-336,cs),
(1300,-436,o),
(1350,-446,o),
(1538,-446,cs)
);
},
{
closed = 1;
nodes = (
(498,115,o),
(395,485,o),
(395,741,cs),
(395,993,o),
(483,1311,o),
(766,1317,cs),
(1051,1323,o),
(1182,1057,o),
(1182,682,cs),
(1182,430,o),
(1090,119,o),
(807,117,cs)
);
}
);
width = 1577;
}
);
unicode = 81;
}
{
glyphname = S;
kernLeft = S;
kernRight = S;
layers = (
{
layerId = m001;
shapes = (
{
closed = 1;
nodes = (
(330.255,1.352,o),
(468.264,-33,o),
(592,-33,cs),
(744,-33,o),
(864.667,7.833,o),
(946,76.5,cs),
(1027.333,145.167,o),
(1071,242.667,o),
(1071,356,cs),
(1071,597.057,o),
(877.48,702.334,o),
(681,792.5,cs),
(583.667,837.167,o),
(486.333,878.667,o),
(413,932,cs),
(339.667,985.333,o),
(291,1051.667,o),
(291,1145,cs),
(291,1273.907,o),
(383.33,1385,o),
(553,1385,cs),
(793.491,1385,o),
(903.745,1196.177,o),
(917,1000,c),
(991,1000,l),
(991,1449,l),
(887,1449,l),
(895,1361,l),
(784.545,1442.526,o),
(646.863,1467,o),
(538,1467,cs),
(427.333,1467,o),
(344.333,1442.5,o),
(283,1404.5,cs),
(252.333,1385.5,o),
(226.833,1363.5,o),
(206.5,1338.5,cs),
(141.226,1258.245,o),
(123,1170.996,o),
(123,1106,cs),
(123,864.364,o),
(313.72,766.36,o),
(509,675.5,cs),
(705.348,584.144,o),
(895,507.915,o),
(895,309,cs),
(895,144.687,o),
(762.649,53,o),
(600,53,cs),
(383.042,53,o),
(213.917,178.587,o),
(198,420,c),
(119,420,l),
(131,-16,l),
(237,-16,l),
(227,72,l),
(227,72,l),
(227,72,l)
);
}
);
userData = {
assembly = "NPUSHB[ ]	/* 67 values pushed */
34 1 5 6 67 1 2 1 2 74 0 6 6 3 95 0 3 3 40 75 0 5 5 4 93 0 4 4 32 75 0 1 1 0 93 0 0 0 33 75 0 2 2 7 95 0 7 7 41 7 76 63 61 44 42 38 37 36 35 30 28 36 17 16 8 8 23
CALL[ ]	/* CallFunction */";
};
width = 1161;
},
{
layerId = "D346AEB9-DD6D-429C-AFEE-90B4948468D3";
shapes = (
{
closed = 1;
nodes = (
(443.885,115,o),
(292.721,228.283,o),
(255,460,c),
(121,460,l),
(121,-19,l),
(279,-19,l),
(272,68,l),
(274,68,l),
(381.034,2.736,o),
(519.598,-33,o),
(628,-33,cs),
(786.667,-33,o),
(918,9.833,o),
(1010,82.5,cs),
(1102,155.167,o),
(1154,258.667,o),
(1154,380,cs),
(1154,509.367,o),
(1090.922,612.16,o),
(997.5,687.5,cs),
(900.394,765.811,o),
(787.976,815.01,o),
(686,857,cs),
(572.667,902.333,o),
(490.667,942,o),
(436,986,cs),
(381.333,1030,o),
(355,1079,o),
(355,1143,cs),
(355,1243.949,o),
(456.946,1319,o),
(575,1319,cs),
(767,1319,o),
(892.667,1207.333,o),
(930,974,c),
(1064,974,l),
(1064,1453,l),
(906,1453,l),
(913,1369,l),
(911,1369,l),
(816.209,1435.911,o),
(670.372,1467,o),
(568,1467,cs),
(446.667,1467,o),
(353.833,1442.833,o),
(282.5,1403.5,cs),
(246.833,1383.833,o),
(216.667,1361,o),
(192,1335,cs),
(111.801,1250.466,o),
(89,1149.767,o),
(89,1076,cs),
(89,805.873,o),
(285.152,676.817,o),
(552,569,cs),
(707.844,507.2,o),
(881,451.71,o),
(881,308,cs),
(881,199.395,o),
(777.774,115,o),
(634,115,cs)
);
}
);
userData = {
assembly = "NPUSHB[ ]	/* 79 values pushed */
27 1 4 1 62 1 5 0 2 74 0 4 4 1 95 2 1 1 1 40 75 0 3 3 1 95 2 1 1 1 40 75 0 7 7 5 95 6 1 5 5 41 75 8 1 0 0 5 95 6 1 5 5 41 5 76 1 0 67 66 65 64 58 56 36 34 32 31 30 29 23 21 0 71 1 71 9 8 20
CALL[ ]	/* CallFunction */";
};
width = 1225;
}
);
note = S;
unicode = 83;
}
{
glyphname = T;
layers = (
{
layerId = m001;
shapes = (
{
closed = 1;
nodes = (
(1251,1434,l),
(57,1434,l),
(45,1001,l),
(121,1001,l),
(121,1122.333,o),
(136.667,1210.333,o),
(174,1269,cs),
(211.333,1327.667,o),
(269.333,1356,o),
(356,1356,cs),
(568,1357,l),
(565,319,l),
(565,222,ls),
(565,132.836,o),
(535.628,71.847,o),
(426,68,c),
(426,0,l),
(907,0,l),
(907,90,l),
(737,82,l),
(741,116.667,o),
(743,170.667,o),
(743,244,cs),
(746,1359,l),
(919,1360,ls),
(1130.751,1360,o),
(1180.664,1243.793,o),
(1186,1001,c),
(1263,1001,l),
(1263,1001,l),
(1263,1001,l)
);
}
);
userData = {
assembly = "NPUSHB[ ]	/* 55 values pushed */
8 7 2 5 0 1 0 5 1 126 0 3 1 2 1 3 112 4 1 0 0 6 93 0 6 6 32 75 0 1 1 2 93 0 2 2 33 2 76 0 0 0 29 0 29 17 20 37 17 17 19 36 9 8 27
CALL[ ]	/* CallFunction */";
};
width = 1311;
},
{
layerId = "D346AEB9-DD6D-429C-AFEE-90B4948468D3";
shapes = (
{
closed = 1;
nodes = (
(32,970,l),
(167,970,l),
(168.333,1191.333,o),
(264,1294,o),
(420,1294,cs),
(515,1294,l),
(515,313,ls),
(515,152.92,o),
(463.652,137.784,o),
(369,135,c),
(369,0,l),
(967,0,l),
(967,158,l),
(803,152,l),
(808.287,186.363,o),
(811,260.681,o),
(811,336,cs),
(811,1296,l),
(909,1297,ls),
(1067.667,1298.333,o),
(1162,1187.333,o),
(1162,970,c),
(1297,970,l),
(1285,1434,l),
(44,1434,l),
(44,1434,l)
);
}
);
userData = {
assembly = "MPPEM[ ]	/* MeasurePixelPerEm */
PUSHB[ ]	/* 1 value pushed */
9
LT[ ]	/* LessThan */
IF[ ]	/* If */
NPUSHB[ ]	/* 32 values pushed */
6 1 0 1 2 1 0 112 5 1 1 1 7 93 8 1 7 7 32 75 4 1 2 2 3 93 0 3 3 33 3 76
ELSE[ ]	/* Else */
NPUSHB[ ]	/* 33 values pushed */
6 1 0 1 2 1 0 2 126 5 1 1 1 7 93 8 1 7 7 32 75 4 1 2 2 3 93 0 3 3 33 3 76
EIF[ ]	/* EndIf */
NPUSHB[ ]	/* 16 values pushed */
0 0 0 28 0 28 18 37 17 17 37 34 17 9 8 27
CALL[ ]	/* CallFunction */";
};
width = 1331;
}
);
note = T;
unicode = 84;
}
{
glyphname = V;
layers = (
{
layerId = m001;
shapes = (
{
closed = 1;
nodes = (
(107,1348,l),
(116.204,1277.434,o),
(142.844,1186.918,o),
(195,1069,cs),
(660,-20,l),
(717,-20,l),
(814.375,247.458,o),
(892.892,461.496,o),
(951.5,622.5,cs),
(1009.5,781.833,o),
(1086.5,993.667,o),
(1132.5,1123,cs),
(1155.5,1187.667,o),
(1174,1232.5,o),
(1188,1257.5,cs),
(1202,1282.5,o),
(1217.667,1302.833,o),
(1235,1318.5,cs),
(1269.667,1349.833,o),
(1314,1363.333,o),
(1374,1366,c),
(1374,1434,l),
(959,1434,l),
(959,1343,l),
(1116,1352,l),
(1100,1320,o),
(1076.667,1260,o),
(1046,1172,cs),
(1015.333,1084,o),
(909,783.333,o),
(727,270,c),
(723,270,l),
(690.369,362.454,o),
(616.741,527.401,o),
(557,666,cs),
(489.117,823.585,o),
(419.297,999.911,o),
(363,1143,cs),
(306.495,1280.227,o),
(329.47,1356.028,o),
(465,1364,c),
(467,1366,l),
(467,1434,l),
(-8,1434,l),
(-8,1343,l),
(-8,1343,l),
(-8,1343,l)
);
}
);
userData = {
assembly = "NPUSHB[ ]	/* 49 values pushed */
2 1 3 0 18 1 4 1 2 74 0 3 0 1 1 3 112 5 1 1 1 0 94 2 1 0 0 32 75 0 4 4 33 4 76 43 42 36 35 27 26 25 24 23 22 16 6 8 21
CALL[ ]	/* CallFunction */";
};
width = 1337;
},
{
layerId = "D346AEB9-DD6D-429C-AFEE-90B4948468D3";
shapes = (
{
closed = 1;
nodes = (
(490.333,1168.333,o),
(485,1192,o),
(485,1212,cs),
(485,1274.667,o),
(535.667,1299,o),
(609,1299,cs),
(620,1299,l),
(620,1434,l),
(17,1434,l),
(17,1276,l),
(126,1282,l),
(126,1237.257,o),
(156.102,1150.404,o),
(184,1087,cs),
(656,-12,l),
(824,-12,l),
(1233,1080,ls),
(1262.333,1158.667,o),
(1294.167,1212.333,o),
(1329.5,1247,cs),
(1364.833,1281.667,o),
(1404.667,1296.333,o),
(1450,1299,c),
(1450,1434,l),
(989,1434,l),
(989,1276,l),
(1146,1284,l),
(1146,1282,l),
(1112.493,1240.761,o),
(1080.872,1149.47,o),
(1062,1096,cs),
(907,667,ls),
(889.667,620.333,o),
(872.667,572,o),
(856,522,cs),
(839.333,472,o),
(823.333,426.667,o),
(808,386,c),
(806,386,l),
(765.334,485.122,o),
(736.947,567.458,o),
(690,677,cs),
(501,1141,l),
(501,1141,l)
);
}
);
userData = {
assembly = "NPUSHB[ ]	/* 35 values pushed */
34 5 2 3 0 1 74 5 2 2 0 0 1 93 4 1 1 1 32 75 0 3 3 33 3 76 33 24 21 17 17 47 6 8 26
CALL[ ]	/* CallFunction */";
};
width = 1449;
}
);
note = V;
unicode = 86;
}
{
glyphname = W;
layers = (
{
anchors = (
{
name = top;
pos = (1051,1434);
}
);
background = {
anchors = (
{
name = top;
pos = (1051,1434);
}
);
shapes = (
{
closed = 1;
nodes = (
(641,-20,l),
(934,870,l),
(956,938,o),
(979,1008,o),
(1001,1075,c),
(1026,1006,o),
(1049,938,o),
(1073,868,c),
(1384,-20,l),
(1446,-20,l),
(1575,334,o),
(1690,692,o),
(1815,1063,cs),
(1901,1315,o),
(1929,1350,o),
(2068,1366,c),
(2068,1434,l),
(1653,1434,l),
(1653,1343,l),
(1708,1346,o),
(1761,1348,o),
(1817,1350,c),
(1790,1303,o),
(1769,1245,o),
(1753,1200,cs),
(1710,1073,o),
(1683,967,o),
(1542,561,cs),
(1511,469,o),
(1483,377,o),
(1458,297,c),
(1452,297,l),
(1415,426,o),
(1370,543,o),
(1333,666,cs),
(1280,831,o),
(1130,1257,o),
(1079,1438,c),
(1014,1438,l),
(979,1315,o),
(856,956,o),
(741,592,cs),
(723,537,o),
(684,414,o),
(657,322,c),
(653,322,l),
(612,451,o),
(573,543,o),
(535,666,cs),
(481,831,o),
(426,963,o),
(379,1143,cs),
(334,1307,o),
(352,1358,o),
(512,1366,c),
(512,1434,l),
(14,1434,l),
(14,1343,l),
(53,1346,o),
(90,1346,o),
(129,1348,c),
(141,1286,o),
(168,1212,o),
(215,1069,cs),
(582,-20,l)
);
}
);
};
layerId = m001;
shapes = (
{
closed = 1;
nodes = (
(641,-20,l),
(934,870,l),
(956,938,o),
(979,1008,o),
(1001,1075,c),
(1026,1006,o),
(1049,938,o),
(1073,868,c),
(1384,-20,l),
(1446,-20,l),
(1575,334,o),
(1690,692,o),
(1815,1063,cs),
(1901,1315,o),
(1929,1350,o),
(2068,1366,c),
(2068,1434,l),
(1653,1434,l),
(1653,1343,l),
(1708,1346,o),
(1761,1348,o),
(1817,1350,c),
(1790,1303,o),
(1769,1245,o),
(1753,1200,cs),
(1710,1073,o),
(1683,967,o),
(1542,561,cs),
(1511,469,o),
(1483,377,o),
(1458,297,c),
(1452,297,l),
(1415,426,o),
(1370,543,o),
(1333,666,cs),
(1280,831,o),
(1130,1257,o),
(1079,1438,c),
(1014,1438,l),
(979,1315,o),
(856,956,o),
(741,592,cs),
(723,537,o),
(684,414,o),
(657,322,c),
(653,322,l),
(612,451,o),
(573,543,o),
(535,666,cs),
(481,831,o),
(426,963,o),
(379,1143,cs),
(334,1307,o),
(352,1358,o),
(512,1366,c),
(512,1434,l),
(14,1434,l),
(14,1343,l),
(53,1346,o),
(90,1346,o),
(129,1348,c),
(141,1286,o),
(168,1212,o),
(215,1069,cs),
(582,-20,l)
);
}
);
width = 2038;
},
{
anchors = (
{
name = top;
pos = (1083,1434);
}
);
background = {
anchors = (
{
name = top;
pos = (1083,1434);
}
);
shapes = (
{
closed = 1;
nodes = (
(737,-12,l),
(971,756,ls),
(997,848,o),
(1016,930,o),
(1030,1024,c),
(1053,930,o),
(1071,827,o),
(1108,721,cs),
(1350,-12,l),
(1532,-12,l),
(1642,352,o),
(1755,715,o),
(1866,1079,cs),
(1919,1239,o),
(1991,1294,o),
(2083,1298,c),
(2083,1434,l),
(1622,1434,l),
(1622,1276,l),
(1651,1278,o),
(1735,1280,o),
(1780,1282,c),
(1739,1237,o),
(1712,1161,o),
(1696,1096,cs),
(1657,952,o),
(1620,811,o),
(1581,668,cs),
(1554,567,o),
(1528,473,o),
(1503,385,c),
(1501,385,l),
(1479,485,o),
(1456,586,o),
(1427,680,cs),
(1350,932,o),
(1272,1182,o),
(1194,1434,c),
(1010,1434,l),
(946,1225,o),
(883,1016,o),
(819,807,cs),
(803,748,o),
(723,463,o),
(702,387,c),
(700,387,l),
(676,518,o),
(657,584,o),
(633,678,cs),
(592,834,o),
(551,989,o),
(510,1145,cs),
(473,1270,o),
(528,1300,o),
(631,1298,c),
(631,1434,l),
(27,1434,l),
(27,1276,l),
(61,1278,o),
(100,1280,o),
(152,1282,c),
(152,1237,o),
(168,1169,o),
(195,1092,cs),
(559,-12,l)
);
}
);
};
layerId = "D346AEB9-DD6D-429C-AFEE-90B4948468D3";
shapes = (
{
closed = 1;
nodes = (
(737,-12,l),
(971,756,ls),
(997,848,o),
(1016,930,o),
(1030,1024,c),
(1053,930,o),
(1071,827,o),
(1108,721,cs),
(1350,-12,l),
(1532,-12,l),
(1642,352,o),
(1755,715,o),
(1866,1079,cs),
(1919,1239,o),
(1991,1294,o),
(2083,1298,c),
(2083,1434,l),
(1622,1434,l),
(1622,1276,l),
(1651,1278,o),
(1735,1280,o),
(1780,1282,c),
(1739,1237,o),
(1712,1161,o),
(1696,1096,cs),
(1657,952,o),
(1620,811,o),
(1581,668,cs),
(1554,567,o),
(1528,473,o),
(1503,385,c),
(1501,385,l),
(1479,485,o),
(1456,586,o),
(1427,680,cs),
(1350,932,o),
(1272,1182,o),
(1194,1434,c),
(1010,1434,l),
(946,1225,o),
(883,1016,o),
(819,807,cs),
(803,748,o),
(723,463,o),
(702,387,c),
(700,387,l),
(676,518,o),
(657,584,o),
(633,678,cs),
(592,834,o),
(551,989,o),
(510,1145,cs),
(473,1270,o),
(528,1300,o),
(631,1298,c),
(631,1434,l),
(27,1434,l),
(27,1276,l),
(61,1278,o),
(100,1280,o),
(152,1282,c),
(152,1237,o),
(168,1169,o),
(195,1092,cs),
(559,-12,l)
);
}
);
width = 2081;
}
);
unicode = 87;
}
{
glyphname = X;
layers = (
{
background = {
shapes = (
{
closed = 1;
nodes = (
(426,0,l),
(426,90,l),
(369,86,o),
(313,84,o),
(256,80,c),
(324,158,o),
(375,240,o),
(424,313,cs),
(492,416,o),
(559,516,o),
(627,614,c),
(752,440,o),
(864,301,o),
(928,217,cs),
(977,150,o),
(999,61,o),
(842,68,c),
(842,0,l),
(1343,0,l),
(1343,90,l),
(1305,88,o),
(1264,88,o),
(1225,86,c),
(1178,150,o),
(1130,213,o),
(1083,276,cs),
(1020,360,o),
(868,557,o),
(723,754,c),
(954,1081,ls),
(1040,1204,o),
(1145,1348,o),
(1276,1366,c),
(1276,1434,l),
(872,1434,l),
(872,1343,l),
(930,1346,o),
(987,1350,o),
(1044,1352,c),
(1001,1313,o),
(932,1212,o),
(862,1114,cs),
(666,829,l),
(559,977,o),
(461,1114,o),
(412,1196,cs),
(365,1272,o),
(309,1356,o),
(459,1362,cs),
(549,1366,l),
(549,1434,l),
(18,1434,l),
(18,1343,l),
(55,1346,o),
(94,1346,o),
(131,1348,c),
(152,1294,o),
(172,1257,o),
(225,1180,cs),
(285,1094,o),
(383,958,o),
(571,694,c),
(305,313,ls),
(213,178,o),
(156,94,o),
(25,68,c),
(25,0,l)
);
}
);
};
layerId = m001;
shapes = (
{
closed = 1;
nodes = (
(426,0,l),
(426,90,l),
(369,86,o),
(313,84,o),
(256,80,c),
(324,158,o),
(375,240,o),
(424,313,cs),
(492,416,o),
(559,516,o),
(627,614,c),
(752,440,o),
(864,301,o),
(928,217,cs),
(977,150,o),
(999,61,o),
(842,68,c),
(842,0,l),
(1343,0,l),
(1343,90,l),
(1305,88,o),
(1264,88,o),
(1225,86,c),
(1178,150,o),
(1130,213,o),
(1083,276,cs),
(1020,360,o),
(868,557,o),
(723,754,c),
(954,1081,ls),
(1040,1204,o),
(1145,1348,o),
(1276,1366,c),
(1276,1434,l),
(872,1434,l),
(872,1343,l),
(930,1346,o),
(987,1350,o),
(1044,1352,c),
(1001,1313,o),
(932,1212,o),
(862,1114,cs),
(666,829,l),
(559,977,o),
(461,1114,o),
(412,1196,cs),
(365,1272,o),
(309,1356,o),
(459,1362,cs),
(549,1366,l),
(549,1434,l),
(18,1434,l),
(18,1343,l),
(55,1346,o),
(94,1346,o),
(131,1348,c),
(152,1294,o),
(172,1257,o),
(225,1180,cs),
(285,1094,o),
(383,958,o),
(571,694,c),
(305,313,ls),
(213,178,o),
(156,94,o),
(25,68,c),
(25,0,l)
);
}
);
width = 1329;
},
{
background = {
shapes = (
{
closed = 1;
nodes = (
(522,0,l),
(522,158,l),
(494,158,o),
(422,154,o),
(377,152,c),
(410,184,o),
(432,213,o),
(489,291,cs),
(549,373,o),
(610,457,o),
(670,539,c),
(741,451,o),
(809,362,o),
(879,274,cs),
(940,197,o),
(961,135,o),
(811,135,c),
(811,0,l),
(1423,0,l),
(1423,158,l),
(1395,158,o),
(1384,156,o),
(1339,152,c),
(1319,197,o),
(1280,250,o),
(1233,307,cs),
(1104,471,o),
(977,635,o),
(848,799,c),
(1044,1067,ls),
(1153,1217,o),
(1239,1286,o),
(1333,1298,c),
(1333,1434,l),
(868,1434,l),
(868,1276,l),
(897,1278,o),
(977,1280,o),
(1022,1282,c),
(985,1249,o),
(958,1221,o),
(901,1143,cs),
(745,928,l),
(684,1006,o),
(625,1081,o),
(563,1159,cs),
(502,1237,o),
(502,1298,o),
(631,1298,c),
(651,1298,l),
(651,1434,l),
(29,1434,l),
(29,1276,l),
(57,1278,o),
(86,1280,o),
(131,1282,c),
(152,1223,o),
(188,1147,o),
(233,1090,cs),
(344,950,o),
(453,811,o),
(563,672,c),
(326,354,ls),
(225,219,o),
(150,154,o),
(72,135,c),
(72,0,l)
);
}
);
};
layerId = "D346AEB9-DD6D-429C-AFEE-90B4948468D3";
shapes = (
{
closed = 1;
nodes = (
(522,0,l),
(522,158,l),
(494,158,o),
(422,154,o),
(377,152,c),
(410,184,o),
(432,213,o),
(489,291,cs),
(549,373,o),
(610,457,o),
(670,539,c),
(741,451,o),
(809,362,o),
(879,274,cs),
(940,197,o),
(961,135,o),
(811,135,c),
(811,0,l),
(1423,0,l),
(1423,158,l),
(1395,158,o),
(1384,156,o),
(1339,152,c),
(1319,197,o),
(1280,250,o),
(1233,307,cs),
(1104,471,o),
(977,635,o),
(848,799,c),
(1044,1067,ls),
(1153,1217,o),
(1239,1286,o),
(1333,1298,c),
(1333,1434,l),
(868,1434,l),
(868,1276,l),
(897,1278,o),
(977,1280,o),
(1022,1282,c),
(985,1249,o),
(958,1221,o),
(901,1143,cs),
(745,928,l),
(684,1006,o),
(625,1081,o),
(563,1159,cs),
(502,1237,o),
(502,1298,o),
(631,1298,c),
(651,1298,l),
(651,1434,l),
(29,1434,l),
(29,1276,l),
(57,1278,o),
(86,1280,o),
(131,1282,c),
(152,1223,o),
(188,1147,o),
(233,1090,cs),
(344,950,o),
(453,811,o),
(563,672,c),
(326,354,ls),
(225,219,o),
(150,154,o),
(72,135,c),
(72,0,l)
);
}
);
width = 1432;
}
);
unicode = 88;
}
{
glyphname = Y;
kernLeft = Y;
kernRight = Y;
layers = (
{
anchors = (
{
name = bottom;
pos = (649,0);
},
{
name = top;
pos = (678,1434);
},
{
name = topleft;
pos = (41,1434);
}
);
background = {
anchors = (
{
name = bottom;
pos = (649,0);
},
{
name = top;
pos = (678,1434);
},
{
name = topleft;
pos = (41,1434);
}
);
shapes = (
{
closed = 1;
nodes = (
(922,0,l),
(922,90,l),
(864,88,o),
(809,84,o),
(752,82,c),
(756,117,o),
(758,170,o),
(758,244,cs),
(756,246,o),
(758,514,o),
(760,614,c),
(840,766,o),
(924,926,o),
(1018,1102,cs),
(1112,1276,o),
(1184,1358,o),
(1319,1366,c),
(1319,1434,l),
(901,1434,l),
(901,1343,l),
(954,1346,o),
(1010,1348,o),
(1063,1350,c),
(1024,1307,o),
(985,1233,o),
(965,1194,c),
(791,864,l),
(762,811,o),
(733,756,o),
(702,696,c),
(698,696,l),
(649,764,o),
(608,825,o),
(571,885,c),
(408,1143,l),
(326,1274,o),
(328,1366,o),
(516,1366,c),
(516,1434,l),
(-12,1434,l),
(-12,1343,l),
(31,1346,o),
(72,1346,o),
(115,1348,c),
(125,1296,o),
(156,1225,o),
(225,1116,cs),
(582,553,l),
(580,319,ls),
(580,180,o),
(594,74,o),
(440,68,c),
(440,0,l)
);
}
);
};
layerId = m001;
shapes = (
{
closed = 1;
nodes = (
(922,0,l),
(922,90,l),
(864,88,o),
(809,84,o),
(752,82,c),
(756,117,o),
(758,170,o),
(758,244,cs),
(756,246,o),
(758,514,o),
(760,614,c),
(840,766,o),
(924,926,o),
(1018,1102,cs),
(1112,1276,o),
(1184,1358,o),
(1319,1366,c),
(1319,1434,l),
(901,1434,l),
(901,1343,l),
(954,1346,o),
(1010,1348,o),
(1063,1350,c),
(1024,1307,o),
(985,1233,o),
(965,1194,c),
(791,864,l),
(762,811,o),
(733,756,o),
(702,696,c),
(698,696,l),
(649,764,o),
(608,825,o),
(571,885,c),
(408,1143,l),
(326,1274,o),
(328,1366,o),
(516,1366,c),
(516,1434,l),
(-12,1434,l),
(-12,1343,l),
(31,1346,o),
(72,1346,o),
(115,1348,c),
(125,1296,o),
(156,1225,o),
(225,1116,cs),
(582,553,l),
(580,319,ls),
(580,180,o),
(594,74,o),
(440,68,c),
(440,0,l)
);
}
);
width = 1298;
},
{
anchors = (
{
name = bottom;
pos = (684,0);
},
{
name = top;
pos = (707,1434);
},
{
name = topleft;
pos = (41,1434);
}
);
background = {
anchors = (
{
name = bottom;
pos = (684,0);
},
{
name = top;
pos = (707,1434);
},
{
name = topleft;
pos = (41,1434);
}
);
shapes = (
{
closed = 1;
nodes = (
(1014,0,l),
(1014,158,l),
(985,158,o),
(895,156,o),
(850,152,c),
(854,186,o),
(858,262,o),
(858,336,cs),
(858,414,o),
(858,489,o),
(858,567,c),
(946,737,o),
(1036,909,o),
(1124,1079,cs),
(1204,1229,o),
(1262,1284,o),
(1358,1298,c),
(1358,1434,l),
(905,1434,l),
(905,1276,l),
(934,1278,o),
(1018,1280,o),
(1063,1284,c),
(1026,1239,o),
(975,1139,o),
(954,1096,c),
(848,887,l),
(799,782,o),
(766,719,o),
(752,686,c),
(750,686,l),
(727,745,o),
(664,852,o),
(645,885,cs),
(489,1141,ls),
(424,1253,o),
(492,1307,o),
(610,1298,c),
(610,1434,l),
(6,1434,l),
(6,1276,l),
(37,1278,o),
(61,1280,o),
(106,1282,c),
(106,1237,o),
(145,1151,o),
(184,1087,cs),
(561,492,l),
(561,313,ls),
(561,147,o),
(508,139,o),
(416,135,c),
(416,0,l)
);
}
);
};
layerId = "D346AEB9-DD6D-429C-AFEE-90B4948468D3";
shapes = (
{
closed = 1;
nodes = (
(1014,0,l),
(1014,158,l),
(985,158,o),
(895,156,o),
(850,152,c),
(854,186,o),
(858,262,o),
(858,336,cs),
(858,414,o),
(858,489,o),
(858,567,c),
(946,737,o),
(1036,909,o),
(1124,1079,cs),
(1204,1229,o),
(1262,1284,o),
(1358,1298,c),
(1358,1434,l),
(905,1434,l),
(905,1276,l),
(934,1278,o),
(1018,1280,o),
(1063,1284,c),
(1026,1239,o),
(975,1139,o),
(954,1096,c),
(848,887,l),
(799,782,o),
(766,719,o),
(752,686,c),
(750,686,l),
(727,745,o),
(664,852,o),
(645,885,cs),
(489,1141,ls),
(424,1253,o),
(492,1307,o),
(610,1298,c),
(610,1434,l),
(6,1434,l),
(6,1276,l),
(37,1278,o),
(61,1280,o),
(106,1282,c),
(106,1237,o),
(145,1151,o),
(184,1087,cs),
(561,492,l),
(561,313,ls),
(561,147,o),
(508,139,o),
(416,135,c),
(416,0,l)
);
}
);
width = 1366;
}
);
unicode = 89;
}
{
glyphname = Z;
kernLeft = Z;
kernRight = Z;
layers = (
{
layerId = m001;
shapes = (
{
closed = 1;
nodes = (
(1139,0,l),
(1151,420,l),
(1082,420,l),
(1082,197.115,o),
(952.017,86.806,o),
(764,84,cs),
(266,76,l),
(313.724,120.742,o),
(345.682,159.457,o),
(406,246,c),
(1141,1362,l),
(1141,1434,l),
(125,1434,l),
(113,1010,l),
(183,1010,l),
(183,1126,o),
(203,1209.167,o),
(243,1264.5,cs),
(283,1319.833,o),
(342.667,1346,o),
(424,1350,c),
(946,1358,l),
(895.333,1298,o),
(853.667,1235.333,o),
(815,1174,cs),
(645.667,904.667,o),
(503.167,687.833,o),
(382.5,512.5,cs),
(261.833,337.167,o),
(165.333,202,o),
(88,94,c),
(88,0,l),
(88,0,l),
(88,0,l)
);
}
);
userData = {
assembly = "NPUSHB[ ]	/* 55 values pushed */
18 1 0 2 0 1 3 4 2 74 0 1 0 4 0 1 4 126 0 4 3 0 4 3 124 0 0 0 2 93 0 2 2 32 75 0 3 3 5 94 0 5 5 33 5 76 17 20 39 17 20 40 6 8 26
CALL[ ]	/* CallFunction */";
};
width = 1249;
},
{
layerId = "D346AEB9-DD6D-429C-AFEE-90B4948468D3";
shapes = (
{
closed = 1;
nodes = (
(1147,1434,l),
(105,1434,l),
(93,997,l),
(228,997,l),
(228,1109,o),
(254.5,1185,o),
(300.5,1233,cs),
(346.5,1281,o),
(411,1300,o),
(487,1300,cs),
(838,1291,l),
(838,1289,l),
(787.333,1225,o),
(745.667,1165.333,o),
(695,1088,cs),
(82,154,l),
(82,0,l),
(1137,0,l),
(1149,438,l),
(1014,438,l),
(1014,326,o),
(987.5,250.833,o),
(941.5,203.5,cs),
(895.5,156.167,o),
(831,136,o),
(755,136,cs),
(381,144,l),
(381,146,l),
(442.333,218,o),
(498.333,300,o),
(557,388,cs),
(1147,1280,l),
(1147,1280,l)
);
}
);
userData = {
assembly = "NPUSHB[ ]	/* 10 values pushed */
29 1 4 3 14 1 0 1 2 74
MPPEM[ ]	/* MeasurePixelPerEm */
PUSHB[ ]	/* 1 value pushed */
9
LT[ ]	/* LessThan */
IF[ ]	/* If */
NPUSHB[ ]	/* 34 values pushed */
0 4 3 1 3 4 112 0 1 0 0 1 110 0 3 3 5 93 0 5 5 32 75 0 0 0 2 94 0 2 2 33 2 76
ELSE[ ]	/* Else */
NPUSHB[ ]	/* 36 values pushed */
0 4 3 1 3 4 1 126 0 1 0 3 1 0 124 0 3 3 5 93 0 5 5 32 75 0 0 0 2 94 0 2 2 33 2 76
EIF[ ]	/* EndIf */
NPUSHB[ ]	/* 9 values pushed */
17 20 53 17 20 51 6 8 26
CALL[ ]	/* CallFunction */";
};
width = 1237;
}
);
note = Z;
unicode = 90;
}
{
glyphname = bracketleft;
layers = (
{
layerId = m001;
shapes = (
{
closed = 1;
nodes = (
(711,-522,l),
(711,-399,l),
(307,-393,l),
(317,1417,l),
(707,1423,l),
(707,1546,l),
(164,1546,l),
(162,-522,l)
);
}
);
width = 735;
},
{
layerId = "D346AEB9-DD6D-429C-AFEE-90B4948468D3";
shapes = (
{
closed = 1;
nodes = (
(788,-522,l),
(788,-377,l),
(385,-371,l),
(393,1395,l),
(784,1401,l),
(784,1546,l),
(129,1546,l),
(127,-522,l)
);
}
);
width = 791;
}
);
unicode = 91;
}
{
glyphname = asciicircum;
layers = (
{
layerId = m001;
shapes = (
{
closed = 1;
nodes = (
(1563,895,l),
(936,1466,l),
(754,1466,l),
(123,903,l),
(291,903,l),
(838,1395,l),
(1382,895,l)
);
}
);
width = 1686;
},
{
layerId = "D346AEB9-DD6D-429C-AFEE-90B4948468D3";
shapes = (
{
closed = 1;
nodes = (
(1563,895,l),
(936,1466,l),
(754,1466,l),
(123,903,l),
(391,903,l),
(836,1317,l),
(1282,895,l)
);
}
);
width = 1686;
}
);
unicode = 94;
}
{
glyphname = underscore;
layers = (
{
layerId = m001;
shapes = (
{
closed = 1;
nodes = (
(1376,-227,l),
(1376,-111,l),
(117,-102,l),
(117,-227,l),
(117,-227,l)
);
}
);
userData = {
assembly = "PUSHB[ ]	/* 2 values pushed */
6 100
WCVTP[ ]	/* WriteCVTInPixels */
NPUSHB[ ]	/* 21 values pushed */
0 0 1 1 0 85 0 0 0 1 93 0 1 0 1 77 17 16 2 8 22
CALL[ ]	/* CallFunction */
PUSHB[ ]	/* 2 values pushed */
6 0
WCVTP[ ]	/* WriteCVTInPixels */";
};
width = 1493;
},
{
layerId = "D346AEB9-DD6D-429C-AFEE-90B4948468D3";
shapes = (
{
closed = 1;
nodes = (
(1480,-317,l),
(1480,-111,l),
(221,-102,l),
(221,-317,l),
(221,-317,l)
);
}
);
userData = {
assembly = "PUSHB[ ]	/* 2 values pushed */
6 100
WCVTP[ ]	/* WriteCVTInPixels */
NPUSHB[ ]	/* 21 values pushed */
0 0 1 1 0 85 0 0 0 1 93 0 1 0 1 77 17 16 2 8 22
CALL[ ]	/* CallFunction */
PUSHB[ ]	/* 2 values pushed */
6 0
WCVTP[ ]	/* WriteCVTInPixels */";
};
width = 1704;
}
);
note = underscore;
unicode = 95;
}
{
glyphname = a;
kernLeft = a;
kernRight = a;
layers = (
{
layerId = m001;
shapes = (
{
closed = 1;
nodes = (
(612.788,128.027,o),
(533.564,84,o),
(424,84,cs),
(340.306,84,o),
(267.636,134.847,o),
(265,235,cs),
(261.1,328.607,o),
(318.921,395.473,o),
(406,438,cs),
(495.677,481.796,o),
(599.923,496.997,o),
(694,501,c),
(694,204,l),
(694,204,l),
(694,204,l)
);
},
{
closed = 1;
nodes = (
(132,755,o),
(165.667,710,o),
(219,710,cs),
(291.329,710,o),
(311,765.787,o),
(311,797,cs),
(311,822.333,o),
(305,851.333,o),
(285,874,c),
(326.511,954.255,o),
(415.053,982,o),
(498,982,cs),
(574,982,o),
(635.167,947.667,o),
(662.5,893,cs),
(689.833,838.333,o),
(695,769.667,o),
(695,699,cs),
(695,571,l),
(554.441,573.037,o),
(404.309,546.647,o),
(280,487.5,cs),
(155.22,428.129,o),
(70,333.134,o),
(70,210,cs),
(70,74.353,o),
(169.201,-33,o),
(376,-33,cs),
(497.333,-33,o),
(607,24,o),
(699,116,c),
(701.667,77.333,o),
(705,46.667,o),
(713,0,c),
(1006,0,l),
(1006,86,l),
(861,78,l),
(867.667,134,o),
(869,174.333,o),
(869,217,cs),
(871,677,ls),
(872.333,941,o),
(766.333,1057,o),
(537,1057,cs),
(298.601,1057,o),
(132,946.433,o),
(132,811,cs)
);
}
);
userData = {
assembly = "NPUSHB[ ]	/* 72 values pushed */
62 1 8 7 36 17 2 1 0 2 74 0 8 7 6 7 8 6 126 0 6 0 0 1 6 0 103 0 7 7 2 95 0 2 2 43 75 3 1 1 1 4 93 0 4 4 33 75 3 1 1 1 5 95 0 5 5 41 5 76 43 37 26 37 17 22 41 42 16 9 8 29
CALL[ ]	/* CallFunction */";
};
width = 1057;
},
{
layerId = "D346AEB9-DD6D-429C-AFEE-90B4948468D3";
shapes = (
{
closed = 1;
nodes = (
(587.333,195.333,o),
(532,167,o),
(468,167,cs),
(410.725,167,o),
(355.65,197.154,o),
(353,274,cs),
(353,391.306,o),
(474.92,454.854,o),
(631,471,c),
(630,242,l),
(630,242,l)
);
},
{
closed = 1;
nodes = (
(106,711.028,o),
(152.044,649.699,o),
(233,647,cs),
(329.252,647,o),
(371,717.75,o),
(371,775,cs),
(371,795,o),
(367.333,828.333,o),
(346,851,c),
(380.667,887,o),
(430,907.333,o),
(486,910,cs),
(598.277,912.673,o),
(632,830.595,o),
(632,723,cs),
(632,616,l),
(488.94,609.78,o),
(350.75,579.773,o),
(243,521,cs),
(131.715,460.299,o),
(61,366.509,o),
(61,240,cs),
(61,87.41,o),
(160.544,-33,o),
(340,-33,cs),
(448,-33,o),
(549.667,0.667,o),
(643,94,c),
(645,94,l),
(646.333,59.333,o),
(647.667,38.667,o),
(653,0,c),
(1040,0,l),
(1040,156,l),
(908,150,l),
(913.825,216.99,o),
(915,292.691,o),
(915,329,cs),
(915,436.562,o),
(917,559.672,o),
(917,665,cs),
(917,937,o),
(778,1057,o),
(538,1057,cs),
(418,1057,o),
(309.5,1029.833,o),
(231.5,982.5,cs),
(153.5,935.167,o),
(106,867,o),
(106,787,cs)
);
}
);
userData = {
assembly = "NPUSHB[ ]	/* 68 values pushed */
65 1 7 6 13 0 2 0 5 40 1 3 0 3 74 0 7 6 5 6 7 5 126 0 5 0 6 5 0 124 0 6 6 1 95 0 1 1 43 75 2 1 0 0 3 93 0 3 3 33 75 0 4 4 41 4 76 41 37 26 38 17 30 39 41 8 8 28
CALL[ ]	/* CallFunction */";
};
width = 1074;
}
);
note = a;
unicode = 97;
}
{
glyphname = b;
kernLeft = h;
kernRight = o;
layers = (
{
background = {
shapes = (
{
closed = 1;
nodes = (
(152,0,l),
(223,0,l),
(272,92,l),
(358,-6,o),
(481,-33,o),
(573,-33,cs),
(850,-33,o),
(1106,186,o),
(1106,537,cs),
(1106,856,o),
(903,1057,o),
(641,1057,cs),
(514,1057,o),
(408,1012,o),
(332,936,c),
(332,1546,l),
(272,1546,l),
(242,1518,o),
(197,1491,o),
(16,1491,c),
(16,1405,l),
(66,1407,o),
(113,1411,o),
(162,1413,c),
(156,1358,o),
(156,1323,o),
(156,1280,cs)
);
},
{
closed = 1;
nodes = (
(332,840,l),
(393,909,o),
(489,956,o),
(580,956,cs),
(793,956,o),
(895,762,o),
(895,485,cs),
(895,227,o),
(770,51,o),
(573,51,cs),
(449,51,o),
(332,104,o),
(332,322,cs)
);
}
);
};
layerId = m001;
shapes = (
{
closed = 1;
nodes = (
(152,0,l),
(223,0,l),
(272,92,l),
(358,-6,o),
(481,-33,o),
(573,-33,cs),
(850,-33,o),
(1106,186,o),
(1106,537,cs),
(1106,856,o),
(903,1057,o),
(641,1057,cs),
(514,1057,o),
(408,1012,o),
(332,936,c),
(332,1546,l),
(272,1546,l),
(242,1518,o),
(197,1491,o),
(16,1491,c),
(16,1405,l),
(66,1407,o),
(113,1411,o),
(162,1413,c),
(156,1358,o),
(156,1323,o),
(156,1280,cs)
);
},
{
closed = 1;
nodes = (
(332,840,l),
(393,909,o),
(489,956,o),
(580,956,cs),
(793,956,o),
(895,762,o),
(895,485,cs),
(895,227,o),
(770,51,o),
(573,51,cs),
(449,51,o),
(332,104,o),
(332,322,cs)
);
}
);
width = 1192;
},
{
background = {
shapes = (
{
closed = 1;
nodes = (
(129,0,l),
(252,0,l),
(313,90,l),
(410,-12,o),
(537,-33,o),
(610,-33,cs),
(920,-33,o),
(1108,209,o),
(1108,539,cs),
(1108,854,o),
(940,1057,o),
(694,1057,cs),
(608,1057,o),
(510,1028,o),
(418,946,c),
(418,1546,l),
(307,1546,l),
(279,1520,o),
(182,1485,o),
(-8,1485,c),
(-8,1329,l),
(20,1331,o),
(92,1333,o),
(135,1335,c),
(129,1276,o),
(129,1206,o),
(129,1157,cs)
);
},
{
closed = 1;
nodes = (
(418,784,l),
(455,836,o),
(516,870,o),
(584,872,cs),
(741,877,o),
(807,694,o),
(807,508,cs),
(807,305,o),
(752,111,o),
(567,117,cs),
(496,119,o),
(418,168,o),
(418,307,cs)
);
}
);
};
layerId = "D346AEB9-DD6D-429C-AFEE-90B4948468D3";
shapes = (
{
closed = 1;
nodes = (
(129,0,l),
(252,0,l),
(313,90,l),
(410,-12,o),
(537,-33,o),
(610,-33,cs),
(920,-33,o),
(1108,209,o),
(1108,539,cs),
(1108,854,o),
(940,1057,o),
(694,1057,cs),
(608,1057,o),
(510,1028,o),
(418,946,c),
(418,1546,l),
(307,1546,l),
(279,1520,o),
(182,1485,o),
(-8,1485,c),
(-8,1329,l),
(20,1331,o),
(92,1333,o),
(135,1335,c),
(129,1276,o),
(129,1206,o),
(129,1157,cs)
);
},
{
closed = 1;
nodes = (
(418,784,l),
(455,836,o),
(516,870,o),
(584,872,cs),
(741,877,o),
(807,694,o),
(807,508,cs),
(807,305,o),
(752,111,o),
(567,117,cs),
(496,119,o),
(418,168,o),
(418,307,cs)
);
}
);
width = 1174;
}
);
unicode = 98;
}
{
glyphname = d;
kernLeft = d;
layers = (
{
layerId = m001;
shapes = (
{
closed = 1;
nodes = (
(967,1546,l),
(928.199,1510.432,o),
(873.108,1491,o),
(713,1491,c),
(713,1405,l),
(858,1413,l),
(851.333,1358.333,o),
(852,1322.667,o),
(852,1280,cs),
(851,1000,l),
(797.823,1029.247,o),
(698.816,1057,o),
(612,1057,cs),
(306.795,1057,o),
(86,816.468,o),
(86,483,cs),
(86,324.333,o),
(133.167,195.333,o),
(212.5,106,cs),
(291.833,16.667,o),
(401.333,-33,o),
(528,-33,cs),
(665.333,-33,o),
(778.333,21.667,o),
(857,107,c),
(859.667,73.667,o),
(863.333,40,o),
(870,0,c),
(1163,0,l),
(1163,86,l),
(1018,78,l),
(1024.667,134,o),
(1026,174.333,o),
(1026,217,cs),
(1026,1546,l),
(1026,1546,l),
(1026,1546,l)
);
},
{
closed = 1;
nodes = (
(397.574,68,o),
(297,285.299,o),
(297,502,cs),
(297,663.333,o),
(322.5,762.167,o),
(380.5,845.5,cs),
(438.5,928.833,o),
(522.333,976,o),
(625,976,cs),
(706.333,976,o),
(785.667,955.667,o),
(851,905,c),
(850,315,l),
(850,255,ls),
(850,236.333,o),
(850.333,218.667,o),
(851,202,c),
(792.078,127.707,o),
(698.521,68,o),
(602,68,cs)
);
}
);
userData = {
assembly = "NPUSHB[ ]	/* 80 values pushed */
27 1 8 3 49 45 9 3 0 8 2 74 0 6 6 34 75 0 4 4 5 95 0 5 5 40 75 0 8 8 3 95 0 3 3 43 75 9 7 2 0 0 1 93 0 1 1 33 75 9 7 2 0 0 2 95 0 2 2 41 2 76 41 40 53 51 40 61 41 61 20 17 24 40 37 17 19 10 8 27
CALL[ ]	/* CallFunction */";
};
width = 1225;
},
{
layerId = "D346AEB9-DD6D-429C-AFEE-90B4948468D3";
shapes = (
{
closed = 1;
nodes = (
(919.333,1532.667,o),
(888.833,1518,o),
(837.5,1506,cs),
(786.167,1494,o),
(713.667,1485,o),
(619,1485,c),
(619,1329,l),
(763,1335,l),
(757.455,1271.231,o),
(755,1195.793,o),
(755,1156,cs),
(755,1020,l),
(704.333,1038.667,o),
(649,1057,o),
(573,1057,cs),
(267.469,1057,o),
(66,813.444,o),
(66,486,cs),
(66,169.425,o),
(233.409,-33,o),
(479,-33,cs),
(580.333,-33,o),
(677.333,0.333,o),
(768,95,c),
(770,95,l),
(781,0,l),
(1170,0,l),
(1170,156,l),
(1037,150,l),
(1042.545,213.769,o),
(1045,289.207,o),
(1045,329,cs),
(1045,1546,l),
(934,1546,l),
(934,1546,l)
);
},
{
closed = 1;
nodes = (
(427.792,154,o),
(366,340.715,o),
(366,517,cs),
(366,715.44,o),
(423.149,899.737,o),
(610,905,cs),
(670,905,o),
(725.667,887,o),
(755,867,c),
(755,251,l),
(719,193.667,o),
(655.333,154,o),
(586,154,cs)
);
}
);
userData = {
assembly = "NPUSHB[ ]	/* 89 values pushed */
27 1 8 3 45 44 2 0 8 10 1 1 0 3 74 9 1 6 6 34 75 0 4 4 5 95 0 5 5 40 75 0 8 8 3 95 0 3 3 43 75 10 7 2 0 0 1 93 0 1 1 33 75 10 7 2 0 0 2 95 0 2 2 41 2 76 42 41 0 0 49 47 41 57 42 57 0 40 0 40 17 24 40 36 17 22 11 8 26
CALL[ ]	/* CallFunction */";
};
width = 1221;
}
);
note = d;
unicode = 100;
}
{
glyphname = f;
kernLeft = f;
layers = (
{
layerId = m001;
shapes = (
{
closed = 1;
nodes = (
(637,1429.667,o),
(634,1413,o),
(634,1397,cs),
(634,1367.319,o),
(653.163,1312,o),
(722,1312,cs),
(771.333,1312,o),
(807,1350.333,o),
(807,1405,cs),
(807,1512.759,o),
(673.361,1556,o),
(588,1556,cs),
(316.757,1556,o),
(219,1368.087,o),
(219,1067,cs),
(219,1024,l),
(51,1024,l),
(51,932,l),
(219,935,l),
(221,311,ls),
(221,162.511,o),
(225.567,61,o),
(101,61,c),
(101,0,l),
(518,0,l),
(518,84,l),
(389,78,l),
(398.333,124.667,o),
(398,162.333,o),
(398,217,cs),
(396,939,l),
(672,944,l),
(672,1024,l),
(396,1024,l),
(396,1239,ls),
(396,1359.372,o),
(431.389,1483,o),
(557,1483,cs),
(586.333,1483,o),
(625,1473.667,o),
(645,1447,c)
);
}
);
userData = {
assembly = "NPUSHB[ ]	/* 62 values pushed */
0 9 0 1 0 9 1 126 0 5 3 4 3 5 112 0 0 0 8 95 0 8 8 34 75 6 1 2 2 1 93 7 1 1 1 35 75 0 3 3 4 93 0 4 4 33 4 76 44 42 37 17 21 17 17 20 17 21 34 10 8 29
CALL[ ]	/* CallFunction */";
};
width = 692;
},
{
layerId = "D346AEB9-DD6D-429C-AFEE-90B4948468D3";
shapes = (
{
closed = 1;
nodes = (
(725,1024,l),
(496,1024,l),
(495,1276,ls),
(495,1330.114,o),
(508.145,1400.313,o),
(578,1403,cs),
(588.667,1403,o),
(610.667,1400.667,o),
(624,1386,c),
(620.667,1370.667,o),
(619,1357.333,o),
(619,1346,cs),
(619,1276.667,o),
(663,1228,o),
(739,1228,cs),
(828.159,1228,o),
(873,1292.106,o),
(873,1366,cs),
(873,1408.667,o),
(856.333,1453.333,o),
(815,1488,cs),
(773.667,1522.667,o),
(708,1546,o),
(612,1546,cs),
(365.46,1546,o),
(210,1412.898,o),
(210,1084,cs),
(210,1024,l),
(62,1024,l),
(62,853,l),
(210,856,l),
(210,315,ls),
(210,204.125,o),
(201.967,133,o),
(88,133,c),
(88,0,l),
(635,0,l),
(635,156,l),
(492,150,l),
(497.898,217.822,o),
(500,294.153,o),
(500,333,cs),
(497,861,l),
(725,866,l),
(725,866,l)
);
}
);
userData = {
assembly = "NPUSHB[ ]	/* 68 values pushed */
40 38 2 6 7 1 74 0 6 7 4 7 6 4 126 0 7 7 5 95 0 5 5 34 75 10 9 2 3 3 4 93 8 1 4 4 35 75 2 1 0 0 1 93 0 1 1 33 1 76 0 0 0 51 0 51 21 38 40 37 17 21 17 17 22 11 8 29
CALL[ ]	/* CallFunction */";
};
width = 755;
}
);
note = f;
unicode = 102;
}
{
color = 4;
glyphname = i;
kernLeft = i;
kernRight = i;
layers = (
{
anchors = (
{
name = bottom;
pos = (289,0);
}
);
background = {
anchors = (
{
name = bottom;
pos = (289,0);
},
{
name = ogonek;
pos = (518,20);
},
{
name = top;
pos = (289,1491);
}
);
shapes = (
{
closed = 1;
nodes = (
(90,0,l),
(508,0,l),
(508,84,l),
(465,82,o),
(422,80,o),
(379,78,c),
(387,125,o),
(387,162,o),
(387,217,cs),
(387,1044,l),
(328,1044,l),
(297,1016,o),
(254,989,o),
(74,989,c),
(74,903,l),
(123,905,o),
(170,909,o),
(219,911,c),
(213,856,o),
(211,821,o),
(211,778,cs),
(211,311,ls),
(211,164,o),
(215,61,o),
(90,61,c)
);
},
{
closed = 1;
nodes = (
(348,1247,o),
(401,1300,o),
(401,1368,cs),
(401,1436,o),
(354,1491,o),
(291,1491,cs),
(233,1491,o),
(180,1436,o),
(180,1368,cs),
(180,1300,o),
(231,1247,o),
(289,1247,cs)
);
}
);
};
layerId = m001;
shapes = (
{
ref = idotless;
},
{
pos = (84,0);
ref = dotaccentcomb;
}
);
width = 575;
},
{
anchors = (
{
name = bottom;
pos = (336,0);
}
);
background = {
anchors = (
{
name = bottom;
pos = (336,0);
},
{
name = ogonek;
pos = (602,20);
},
{
name = top;
pos = (336,1542);
}
);
shapes = (
{
closed = 1;
nodes = (
(84,0,l),
(621,0,l),
(621,156,l),
(592,156,o),
(530,154,o),
(487,150,c),
(494,211,o),
(496,291,o),
(496,330,cs),
(496,1044,l),
(385,1044,l),
(356,1018,o),
(258,983,o),
(70,983,c),
(70,827,l),
(98,829,o),
(170,831,o),
(213,834,c),
(207,772,o),
(205,705,o),
(205,655,cs),
(205,315,ls),
(205,207,o),
(197,133,o),
(84,133,c)
);
},
{
closed = 1;
nodes = (
(432,1206,o),
(492,1282,o),
(492,1374,cs),
(492,1466,o),
(426,1542,o),
(338,1542,cs),
(254,1542,o),
(180,1466,o),
(180,1374,cs),
(180,1282,o),
(246,1206,o),
(340,1206,cs)
);
}
);
};
layerId = "D346AEB9-DD6D-429C-AFEE-90B4948468D3";
shapes = (
{
ref = idotless;
},
{
pos = (90,0);
ref = dotaccentcomb;
}
);
width = 670;
}
);
unicode = 105;
}
{
glyphname = j;
kernLeft = j;
kernRight = i;
layers = (
{
background = {
anchors = (
{
name = bottom;
pos = (428,-522);
},
{
name = top;
pos = (272,1491);
}
);
shapes = (
{
closed = 1;
nodes = (
(203,-555,o),
(371,-389,o),
(371,-6,cs),
(371,1044,l),
(311,1044,l),
(281,1016,o),
(236,989,o),
(55,989,c),
(55,903,l),
(104,905,o),
(152,909,o),
(201,911,c),
(195,856,o),
(195,821,o),
(195,778,cs),
(190,-176,ls),
(190,-313,o),
(168,-461,o),
(49,-461,cs),
(31,-461,o),
(14,-457,o),
(-4,-449,c),
(-2,-442,o),
(-2,-436,o),
(-2,-430,cs),
(-2,-397,o),
(-25,-342,o),
(-92,-344,cs),
(-147,-344,o),
(-180,-391,o),
(-180,-440,cs),
(-180,-500,o),
(-131,-555,o),
(-18,-555,cs)
);
},
{
closed = 1;
nodes = (
(332,1247,o),
(385,1300,o),
(385,1368,cs),
(385,1436,o),
(338,1491,o),
(274,1491,cs),
(217,1491,o),
(164,1436,o),
(164,1368,cs),
(164,1300,o),
(215,1247,o),
(272,1247,cs)
);
}
);
};
layerId = m001;
shapes = (
{
ref = jdotless;
},
{
pos = (67,0);
ref = dotaccentcomb;
}
);
width = 535;
},
{
background = {
anchors = (
{
name = bottom;
pos = (582,-565);
},
{
name = top;
pos = (326,1542);
}
);
shapes = (
{
closed = 1;
nodes = (
(289,-555,o),
(475,-375,o),
(475,4,cs),
(475,1044,l),
(365,1044,l),
(336,1018,o),
(240,983,o),
(49,983,c),
(49,827,l),
(78,829,o),
(150,831,o),
(193,834,c),
(186,772,o),
(184,705,o),
(184,655,cs),
(190,-258,ls),
(190,-317,o),
(180,-412,o),
(104,-412,cs),
(94,-412,o),
(76,-408,o),
(70,-403,c),
(72,-391,o),
(74,-379,o),
(74,-369,cs),
(74,-297,o),
(23,-246,o),
(-51,-248,cs),
(-133,-250,o),
(-180,-315,o),
(-180,-387,cs),
(-180,-471,o),
(-111,-555,o),
(43,-555,cs)
);
},
{
closed = 1;
nodes = (
(422,1206,o),
(481,1282,o),
(481,1374,cs),
(481,1466,o),
(416,1542,o),
(328,1542,cs),
(244,1542,o),
(170,1466,o),
(170,1374,cs),
(170,1282,o),
(236,1206,o),
(330,1206,cs)
);
}
);
};
layerId = "D346AEB9-DD6D-429C-AFEE-90B4948468D3";
shapes = (
{
ref = jdotless;
},
{
pos = (80,0);
ref = dotaccentcomb;
}
);
width = 618;
}
);
unicode = 106;
}
{
glyphname = k;
kernLeft = h;
layers = (
{
layerId = m001;
shapes = (
{
closed = 1;
nodes = (
(819,948,l),
(780.333,924,o),
(743.333,886.667,o),
(698,840,cs),
(448,578,l),
(366,578,l),
(366,1546,l),
(307,1546,l),
(268.199,1510.432,o),
(213.108,1491,o),
(53,1491,c),
(53,1405,l),
(198,1413,l),
(191.333,1358.333,o),
(192,1322.667,o),
(192,1280,cs),
(192,597.333,o),
(191.333,240.667,o),
(190,210,cs),
(188.667,179.333,o),
(184.5,153,o),
(177.5,131,cs),
(163.5,87,o),
(133.667,61,o),
(71,61,c),
(71,0,l),
(489,0,l),
(489,84,l),
(358,78,l),
(366,124.667,o),
(366,162.333,o),
(366,217,cs),
(366,498,l),
(450,502,l),
(476.667,476.667,o),
(508.667,437.167,o),
(546,383.5,cs),
(583.333,329.833,o),
(629,266.333,o),
(683,193,cs),
(755.342,97.405,o),
(823.918,0,o),
(899,0,cs),
(1085,0,l),
(1085,61,l),
(1038.676,61,o),
(983.862,105.549,o),
(935,159.5,cs),
(881.611,218.451,o),
(849.707,266.057,o),
(837,283,cs),
(692,469,ls),
(653.333,517,o),
(618.333,554.667,o),
(565,580,c),
(724,748,l),
(787,811,ls),
(857.709,881.709,o),
(950.242,951.259,o),
(1052,963,c),
(1052,1024,l),
(679,1024,l),
(679,942,l),
(679,942,l),
(679,942,l)
);
}
);
userData = {
assembly = "NPUSHB[ ]	/* 93 values pushed */
2 1 11 0 8 1 10 11 2 74 0 10 0 3 4 10 3 101 0 9 9 34 75 0 7 7 8 95 0 8 8 40 75 0 11 11 0 93 0 0 0 35 75 0 4 4 2 93 5 1 2 2 33 75 6 1 1 1 2 93 5 1 2 2 33 2 76 61 60 56 55 54 53 49 48 47 46 39 38 37 36 35 34 30 29 22 20 19 18 16 12 8 21
CALL[ ]	/* CallFunction */";
};
width = 1100;
},
{
layerId = "D346AEB9-DD6D-429C-AFEE-90B4948468D3";
shapes = (
{
closed = 1;
nodes = (
(511,469,l),
(557.468,403.945,o),
(644.765,273.979,o),
(716,179,cs),
(798.607,67.996,o),
(855.994,0,o),
(944,0,cs),
(1179,0,l),
(1179,133,l),
(1094.805,133,o),
(1025.092,231.544,o),
(991,277,cs),
(854,456,ls),
(800.799,526.129,o),
(760.821,563.59,o),
(720,584,c),
(720,586,l),
(851,732,ls),
(912.57,799.167,o),
(1000.502,877.167,o),
(1143,893,c),
(1143,1024,l),
(681,1024,l),
(681,868,l),
(790,870,l),
(790,868,l),
(764.667,845.333,o),
(744.667,822,o),
(710,782,cs),
(564,612,l),
(464,612,l),
(464,1546,l),
(353,1546,l),
(338.333,1532.667,o),
(307.833,1518,o),
(256.5,1506,cs),
(205.167,1494,o),
(132.667,1485,o),
(38,1485,c),
(38,1330,l),
(182,1336,l),
(175.333,1274.667,o),
(174,1206.333,o),
(174,1157,cs),
(174,315,ls),
(174,204.125,o),
(165.967,133,o),
(52,133,c),
(52,0,l),
(589,0,l),
(589,156,l),
(456,150,l),
(461.545,213.769,o),
(464,289.207,o),
(464,329,cs),
(464,467,l),
(464,467,l)
);
}
);
userData = {
assembly = "NPUSHB[ ]	/* 75 values pushed */
37 1 7 8 43 1 11 6 2 74 0 6 0 11 0 6 11 101 0 5 5 34 75 0 3 3 4 95 0 4 4 40 75 0 7 7 8 93 0 8 8 35 75 9 2 2 0 0 1 93 10 1 1 1 33 1 76 68 67 58 56 55 54 17 36 17 20 17 24 17 17 21 12 8 29
CALL[ ]	/* CallFunction */";
};
width = 1216;
}
);
note = k;
unicode = 107;
}
{
glyphname = m;
kernLeft = n;
kernRight = n;
layers = (
{
background = {
shapes = (
{
closed = 1;
nodes = (
(508,0,l),
(508,84,l),
(465,82,o),
(422,80,o),
(379,78,c),
(387,125,o),
(387,162,o),
(387,217,cs),
(387,743,ls),
(387,784,o),
(385,821,o),
(385,854,c),
(442,911,o),
(528,952,o),
(614,952,cs),
(776,954,o),
(842,831,o),
(840,598,cs),
(838,311,ls),
(836,164,o),
(842,61,o),
(717,61,c),
(717,0,l),
(1135,0,l),
(1135,84,l),
(1092,82,o),
(1049,80,o),
(1006,78,c),
(1014,125,o),
(1014,162,o),
(1014,217,cs),
(1016,377,o),
(1016,539,o),
(1018,698,cs),
(1018,752,o),
(1012,803,o),
(997,848,c),
(1059,905,o),
(1149,948,o),
(1235,948,cs),
(1397,950,o),
(1468,831,o),
(1468,598,cs),
(1468,311,ls),
(1468,164,o),
(1473,61,o),
(1348,61,c),
(1348,0,l),
(1765,0,l),
(1765,84,l),
(1722,82,o),
(1679,80,o),
(1636,78,c),
(1645,125,o),
(1645,162,o),
(1645,217,cs),
(1647,598,ls),
(1653,922,o),
(1542,1057,o),
(1305,1057,cs),
(1188,1057,o),
(1057,995,o),
(965,920,c),
(913,1004,o),
(821,1057,o),
(684,1057,cs),
(578,1057,o),
(465,1006,o),
(383,936,c),
(381,983,o),
(379,1018,o),
(375,1044,c),
(315,1044,l),
(285,1016,o),
(254,989,o),
(74,989,c),
(74,903,l),
(123,905,o),
(170,909,o),
(219,911,c),
(211,864,o),
(211,821,o),
(211,778,cs),
(211,311,ls),
(211,164,o),
(215,61,o),
(90,61,c),
(90,0,l)
);
}
);
};
layerId = m001;
shapes = (
{
closed = 1;
nodes = (
(508,0,l),
(508,84,l),
(465,82,o),
(422,80,o),
(379,78,c),
(387,125,o),
(387,162,o),
(387,217,cs),
(387,743,ls),
(387,784,o),
(385,821,o),
(385,854,c),
(442,911,o),
(528,952,o),
(614,952,cs),
(776,954,o),
(842,831,o),
(840,598,cs),
(838,311,ls),
(836,164,o),
(842,61,o),
(717,61,c),
(717,0,l),
(1135,0,l),
(1135,84,l),
(1092,82,o),
(1049,80,o),
(1006,78,c),
(1014,125,o),
(1014,162,o),
(1014,217,cs),
(1016,377,o),
(1016,539,o),
(1018,698,cs),
(1018,752,o),
(1012,803,o),
(997,848,c),
(1059,905,o),
(1149,948,o),
(1235,948,cs),
(1397,950,o),
(1468,831,o),
(1468,598,cs),
(1468,311,ls),
(1468,164,o),
(1473,61,o),
(1348,61,c),
(1348,0,l),
(1765,0,l),
(1765,84,l),
(1722,82,o),
(1679,80,o),
(1636,78,c),
(1645,125,o),
(1645,162,o),
(1645,217,cs),
(1647,598,ls),
(1653,922,o),
(1542,1057,o),
(1305,1057,cs),
(1188,1057,o),
(1057,995,o),
(965,920,c),
(913,1004,o),
(821,1057,o),
(684,1057,cs),
(578,1057,o),
(465,1006,o),
(383,936,c),
(381,983,o),
(379,1018,o),
(375,1044,c),
(315,1044,l),
(285,1016,o),
(254,989,o),
(74,989,c),
(74,903,l),
(123,905,o),
(170,909,o),
(219,911,c),
(211,864,o),
(211,821,o),
(211,778,cs),
(211,311,ls),
(211,164,o),
(215,61,o),
(90,61,c),
(90,0,l)
);
}
);
width = 1831;
},
{
background = {
shapes = (
{
closed = 1;
nodes = (
(610,0,l),
(610,156,l),
(582,156,o),
(530,154,o),
(487,150,c),
(494,211,o),
(496,291,o),
(496,330,cs),
(496,690,l),
(496,725,o),
(496,758,o),
(496,793,c),
(541,834,o),
(602,868,o),
(670,868,cs),
(762,866,o),
(817,813,o),
(817,635,cs),
(819,315,ls),
(819,207,o),
(811,133,o),
(707,133,c),
(707,0,l),
(1235,0,l),
(1235,156,l),
(1204,156,o),
(1145,154,o),
(1102,150,c),
(1108,211,o),
(1110,291,o),
(1110,330,cs),
(1110,422,o),
(1110,512,o),
(1110,604,cs),
(1110,678,o),
(1104,743,o),
(1092,799,c),
(1141,838,o),
(1202,868,o),
(1274,866,cs),
(1366,862,o),
(1427,807,o),
(1430,629,cs),
(1430,315,ls),
(1430,207,o),
(1421,133,o),
(1327,133,c),
(1327,0,l),
(1845,0,l),
(1845,156,l),
(1817,156,o),
(1755,154,o),
(1712,150,c),
(1718,211,o),
(1720,291,o),
(1720,330,cs),
(1720,631,ls),
(1720,944,o),
(1606,1057,o),
(1384,1057,cs),
(1276,1057,o),
(1149,1004,o),
(1051,922,c),
(1001,1012,o),
(922,1057,o),
(797,1057,cs),
(700,1057,o),
(586,1012,o),
(494,942,c),
(492,969,o),
(489,1016,o),
(485,1044,c),
(385,1044,l),
(356,1018,o),
(258,983,o),
(70,983,c),
(70,827,l),
(98,829,o),
(170,831,o),
(213,834,c),
(207,772,o),
(205,709,o),
(205,659,cs),
(205,315,ls),
(205,207,o),
(197,133,o),
(84,133,c),
(84,0,l)
);
}
);
};
layerId = "D346AEB9-DD6D-429C-AFEE-90B4948468D3";
shapes = (
{
closed = 1;
nodes = (
(610,0,l),
(610,156,l),
(582,156,o),
(530,154,o),
(487,150,c),
(494,211,o),
(496,291,o),
(496,330,cs),
(496,690,l),
(496,725,o),
(496,758,o),
(496,793,c),
(541,834,o),
(602,868,o),
(670,868,cs),
(762,866,o),
(817,813,o),
(817,635,cs),
(819,315,ls),
(819,207,o),
(811,133,o),
(707,133,c),
(707,0,l),
(1235,0,l),
(1235,156,l),
(1204,156,o),
(1145,154,o),
(1102,150,c),
(1108,211,o),
(1110,291,o),
(1110,330,cs),
(1110,422,o),
(1110,512,o),
(1110,604,cs),
(1110,678,o),
(1104,743,o),
(1092,799,c),
(1141,838,o),
(1202,868,o),
(1274,866,cs),
(1366,862,o),
(1427,807,o),
(1430,629,cs),
(1430,315,ls),
(1430,207,o),
(1421,133,o),
(1327,133,c),
(1327,0,l),
(1845,0,l),
(1845,156,l),
(1817,156,o),
(1755,154,o),
(1712,150,c),
(1718,211,o),
(1720,291,o),
(1720,330,cs),
(1720,631,ls),
(1720,944,o),
(1606,1057,o),
(1384,1057,cs),
(1276,1057,o),
(1149,1004,o),
(1051,922,c),
(1001,1012,o),
(922,1057,o),
(797,1057,cs),
(700,1057,o),
(586,1012,o),
(494,942,c),
(492,969,o),
(489,1016,o),
(485,1044,c),
(385,1044,l),
(356,1018,o),
(258,983,o),
(70,983,c),
(70,827,l),
(98,829,o),
(170,831,o),
(213,834,c),
(207,772,o),
(205,709,o),
(205,659,cs),
(205,315,ls),
(205,207,o),
(197,133,o),
(84,133,c),
(84,0,l)
);
}
);
width = 1884;
}
);
unicode = 109;
}
{
glyphname = n;
kernLeft = m;
kernRight = h;
layers = (
{
layerId = m001;
shapes = (
{
closed = 1;
nodes = (
(209.667,237.667,o),
(210.5,175,o),
(196.5,131,cs),
(182.5,87,o),
(152.667,61,o),
(90,61,c),
(90,0,l),
(508,0,l),
(508,84,l),
(379,78,l),
(387,124.667,o),
(387,162.333,o),
(387,217,cs),
(389,740,l),
(389,782,ls),
(389,795.333,o),
(388.667,808,o),
(388,820,c),
(444.633,892.079,o),
(553.711,953,o),
(649,953,cs),
(811.667,953,o),
(882.333,833,o),
(885,597,cs),
(885,311,ls),
(885,162.117,o),
(887.096,61,o),
(764,61,c),
(764,0,l),
(1182,0,l),
(1182,84,l),
(1053,78,l),
(1061,124.667,o),
(1061,162.333,o),
(1061,217,cs),
(1061,599,ls),
(1061,912.333,o),
(956.333,1057,o),
(719,1057,cs),
(600.46,1057,o),
(473.928,997.27,o),
(386,920,c),
(383.333,976,o),
(379.667,1013.333,o),
(377,1044,c),
(318,1044,l),
(279.007,1008.256,o),
(236.004,989,o),
(76,989,c),
(76,903,l),
(221,911,l),
(213,864.333,o),
(213,820.667,o),
(213,778,cs),
(211,311,l),
(211,311,l),
(211,311,l)
);
}
);
userData = {
assembly = "NPUSHB[ ]	/* 68 values pushed */
14 1 0 7 44 1 4 0 2 74 10 1 6 4 5 4 6 112 0 7 7 2 95 3 1 2 2 43 75 0 0 0 1 95 0 1 1 35 75 8 1 4 4 5 93 9 1 5 5 33 5 76 56 55 54 53 27 39 17 17 22 39 20 17 19 11 8 29
CALL[ ]	/* CallFunction */";
};
width = 1243;
},
{
layerId = "D346AEB9-DD6D-429C-AFEE-90B4948468D3";
shapes = (
{
closed = 1;
nodes = (
(1139,761.333,o),
(1114.833,875.667,o),
(1059.5,949,cs),
(1004.167,1022.333,o),
(918.333,1057,o),
(793,1057,cs),
(709.618,1057,o),
(577.782,1004.933,o),
(497,943,c),
(494,943,l),
(485,1044,l),
(384,1044,l),
(369.333,1030.667,o),
(338.833,1016,o),
(287.5,1004,cs),
(236.167,992,o),
(163.667,983,o),
(69,983,c),
(69,828,l),
(213,834,l),
(206.333,772.667,o),
(205,709.333,o),
(205,660,cs),
(205,315,ls),
(205,204.125,o),
(196.967,133,o),
(83,133,c),
(83,0,l),
(620,0,l),
(620,156,l),
(487,150,l),
(492.545,213.769,o),
(495,289.207,o),
(495,329,cs),
(495,793,l),
(541.667,834.333,o),
(611.333,868,o),
(682,868,cs),
(795.333,868,o),
(846.667,787,o),
(848,607,cs),
(849,315,ls),
(849,204.125,o),
(840.967,133,o),
(727,133,c),
(727,0,l),
(1264,0,l),
(1264,156,l),
(1131,150,l),
(1136.545,213.769,o),
(1139,289.207,o),
(1139,329,cs),
(1139,604,l),
(1139,604,l)
);
}
);
userData = {
assembly = "NPUSHB[ ]	/* 65 values pushed */
49 1 3 8 21 1 0 7 2 74 0 3 8 7 8 3 7 126 10 1 9 9 43 75 0 7 7 8 95 0 8 8 35 75 6 4 2 3 0 0 1 94 5 1 1 1 33 1 76 56 54 48 47 17 24 17 17 24 39 17 17 21 11 8 29
CALL[ ]	/* CallFunction */";
};
width = 1303;
}
);
note = n;
unicode = 110;
}
{
glyphname = o;
kernLeft = o;
kernRight = o;
layers = (
{
anchors = (
{
name = bottom;
pos = (600,0);
},
{
name = center;
pos = (600,512);
},
{
name = ogonek;
pos = (1077,20);
},
{
name = top;
pos = (598,1024);
},
{
name = topright;
pos = (918,1024);
}
);
background = {
anchors = (
{
name = bottom;
pos = (600,0);
},
{
name = center;
pos = (600,512);
},
{
name = ogonek;
pos = (1077,20);
},
{
name = top;
pos = (598,1024);
},
{
name = topright;
pos = (918,1024);
}
);
shapes = (
{
closed = 1;
nodes = (
(889,-33,o),
(1114,219,o),
(1114,537,cs),
(1114,834,o),
(885,1057,o),
(598,1057,cs),
(307,1057,o),
(84,811,o),
(84,487,cs),
(84,184,o),
(311,-33,o),
(598,-33,cs)
);
},
{
closed = 1;
nodes = (
(397,49,o),
(293,293,o),
(293,547,cs),
(293,770,o),
(383,979,o),
(598,979,cs),
(817,979,o),
(905,723,o),
(905,477,cs),
(905,260,o),
(829,49,o),
(614,49,cs)
);
}
);
};
layerId = m001;
shapes = (
{
closed = 1;
nodes = (
(889,-33,o),
(1114,219,o),
(1114,537,cs),
(1114,834,o),
(885,1057,o),
(598,1057,cs),
(307,1057,o),
(84,811,o),
(84,487,cs),
(84,184,o),
(311,-33,o),
(598,-33,cs)
);
},
{
closed = 1;
nodes = (
(397,49,o),
(293,293,o),
(293,547,cs),
(293,770,o),
(383,979,o),
(598,979,cs),
(817,979,o),
(905,723,o),
(905,477,cs),
(905,260,o),
(829,49,o),
(614,49,cs)
);
}
);
width = 1198;
},
{
anchors = (
{
name = bottom;
pos = (580,0);
},
{
name = center;
pos = (580,512);
},
{
name = ogonek;
pos = (1042,20);
},
{
name = top;
pos = (580,1024);
},
{
name = topright;
pos = (926,1024);
}
);
background = {
anchors = (
{
name = bottom;
pos = (580,0);
},
{
name = center;
pos = (580,512);
},
{
name = ogonek;
pos = (1042,20);
},
{
name = top;
pos = (580,1024);
},
{
name = topright;
pos = (926,1024);
}
);
shapes = (
{
closed = 1;
nodes = (
(885,-33,o),
(1096,186,o),
(1096,530,cs),
(1096,858,o),
(872,1057,o),
(580,1057,cs),
(299,1057,o),
(63,829,o),
(63,489,cs),
(63,168,o),
(289,-33,o),
(586,-33,cs)
);
},
{
closed = 1;
nodes = (
(426,109,o),
(365,336,o),
(365,545,cs),
(365,723,o),
(416,909,o),
(575,913,cs),
(741,918,o),
(793,682,o),
(793,479,cs),
(793,305,o),
(756,115,o),
(594,113,cs)
);
}
);
};
layerId = "D346AEB9-DD6D-429C-AFEE-90B4948468D3";
shapes = (
{
closed = 1;
nodes = (
(885,-33,o),
(1096,186,o),
(1096,530,cs),
(1096,858,o),
(872,1057,o),
(580,1057,cs),
(299,1057,o),
(63,829,o),
(63,489,cs),
(63,168,o),
(289,-33,o),
(586,-33,cs)
);
},
{
closed = 1;
nodes = (
(426,109,o),
(365,336,o),
(365,545,cs),
(365,723,o),
(416,909,o),
(575,913,cs),
(741,918,o),
(793,682,o),
(793,479,cs),
(793,305,o),
(756,115,o),
(594,113,cs)
);
}
);
width = 1159;
}
);
unicode = 111;
}
{
glyphname = p;
kernRight = o;
layers = (
{
background = {
shapes = (
{
closed = 1;
nodes = (
(489,-522,l),
(489,-438,l),
(446,-440,o),
(403,-442,o),
(360,-444,c),
(369,-397,o),
(369,-360,o),
(369,-305,cs),
(369,35,l),
(438,-10,o),
(518,-33,o),
(614,-33,cs),
(891,-33,o),
(1137,199,o),
(1137,549,cs),
(1137,864,o),
(924,1057,o),
(686,1057,cs),
(571,1057,o),
(451,1008,o),
(369,934,c),
(367,981,o),
(362,1018,o),
(360,1044,c),
(299,1044,l),
(270,1016,o),
(240,989,o),
(59,989,c),
(59,903,l),
(109,905,o),
(156,909,o),
(205,911,c),
(197,864,o),
(197,821,o),
(197,778,cs),
(193,-211,ls),
(190,-358,o),
(197,-461,o),
(72,-461,c),
(72,-522,l)
);
},
{
closed = 1;
nodes = (
(520,49,o),
(438,78,o),
(371,129,c),
(373,778,o),
(373,811,o),
(371,842,c),
(428,903,o),
(518,956,o),
(612,956,cs),
(836,956,o),
(926,737,o),
(926,516,cs),
(926,246,o),
(805,49,o),
(610,49,cs)
);
}
);
};
layerId = m001;
shapes = (
{
closed = 1;
nodes = (
(489,-522,l),
(489,-438,l),
(446,-440,o),
(403,-442,o),
(360,-444,c),
(369,-397,o),
(369,-360,o),
(369,-305,cs),
(369,35,l),
(438,-10,o),
(518,-33,o),
(614,-33,cs),
(891,-33,o),
(1137,199,o),
(1137,549,cs),
(1137,864,o),
(924,1057,o),
(686,1057,cs),
(571,1057,o),
(451,1008,o),
(369,934,c),
(367,981,o),
(362,1018,o),
(360,1044,c),
(299,1044,l),
(270,1016,o),
(240,989,o),
(59,989,c),
(59,903,l),
(109,905,o),
(156,909,o),
(205,911,c),
(197,864,o),
(197,821,o),
(197,778,cs),
(193,-211,ls),
(190,-358,o),
(197,-461,o),
(72,-461,c),
(72,-522,l)
);
},
{
closed = 1;
nodes = (
(520,49,o),
(438,78,o),
(371,129,c),
(373,778,o),
(373,811,o),
(371,842,c),
(428,903,o),
(518,956,o),
(612,956,cs),
(836,956,o),
(926,737,o),
(926,516,cs),
(926,246,o),
(805,49,o),
(610,49,cs)
);
}
);
width = 1223;
},
{
background = {
shapes = (
{
closed = 1;
nodes = (
(600,-522,l),
(600,-367,l),
(571,-367,o),
(512,-369,o),
(469,-373,c),
(473,-311,o),
(475,-231,o),
(475,-193,cs),
(475,4,l),
(526,-14,o),
(584,-33,o),
(657,-33,cs),
(963,-33,o),
(1165,209,o),
(1165,539,cs),
(1165,854,o),
(997,1057,o),
(752,1057,cs),
(668,1057,o),
(571,1028,o),
(475,946,c),
(473,971,o),
(469,1016,o),
(465,1044,c),
(365,1044,l),
(336,1018,o),
(240,983,o),
(49,983,c),
(49,827,l),
(80,829,o),
(150,831,o),
(195,834,c),
(188,772,o),
(186,709,o),
(186,659,cs),
(186,-207,ls),
(186,-315,o),
(178,-389,o),
(63,-389,c),
(63,-522,l)
);
},
{
closed = 1;
nodes = (
(565,119,o),
(504,137,o),
(475,158,c),
(475,367,o),
(475,573,o),
(475,782,c),
(512,836,o),
(573,870,o),
(641,872,cs),
(799,877,o),
(864,694,o),
(864,508,cs),
(864,305,o),
(813,125,o),
(625,121,cs)
);
}
);
};
layerId = "D346AEB9-DD6D-429C-AFEE-90B4948468D3";
shapes = (
{
closed = 1;
nodes = (
(600,-522,l),
(600,-367,l),
(571,-367,o),
(512,-369,o),
(469,-373,c),
(473,-311,o),
(475,-231,o),
(475,-193,cs),
(475,4,l),
(526,-14,o),
(584,-33,o),
(657,-33,cs),
(963,-33,o),
(1165,209,o),
(1165,539,cs),
(1165,854,o),
(997,1057,o),
(752,1057,cs),
(668,1057,o),
(571,1028,o),
(475,946,c),
(473,971,o),
(469,1016,o),
(465,1044,c),
(365,1044,l),
(336,1018,o),
(240,983,o),
(49,983,c),
(49,827,l),
(80,829,o),
(150,831,o),
(195,834,c),
(188,772,o),
(186,709,o),
(186,659,cs),
(186,-207,ls),
(186,-315,o),
(178,-389,o),
(63,-389,c),
(63,-522,l)
);
},
{
closed = 1;
nodes = (
(565,119,o),
(504,137,o),
(475,158,c),
(475,367,o),
(475,573,o),
(475,782,c),
(512,836,o),
(573,870,o),
(641,872,cs),
(799,877,o),
(864,694,o),
(864,508,cs),
(864,305,o),
(813,125,o),
(625,121,cs)
);
}
);
width = 1231;
}
);
unicode = 112;
}
{
glyphname = q;
kernLeft = d;
layers = (
{
layerId = m001;
shapes = (
{
closed = 1;
nodes = (
(969,1044,l),
(896.968,963.965,o),
(765.789,1057,o),
(612,1057,cs),
(466.667,1057,o),
(334.667,1000.833,o),
(240,901.5,cs),
(145.333,802.167,o),
(86,659.667,o),
(86,489,cs),
(86,169.225,o),
(291.375,-33,o),
(545,-33,cs),
(675.667,-33,o),
(780,14.667,o),
(852,96,c),
(852,-211,ls),
(852,-359.883,o),
(854.096,-461,o),
(731,-461,c),
(731,-522,l),
(1149,-522,l),
(1149,-438,l),
(1020,-444,l),
(1028,-397.333,o),
(1028,-359.667,o),
(1028,-305,cs),
(1026,1044,l),
(1026,1044,l),
(1026,1044,l)
);
},
{
closed = 1;
nodes = (
(516.667,68,o),
(436.833,119.667,o),
(381.5,205,cs),
(326.167,290.333,o),
(297,407,o),
(297,539,cs),
(297,671,o),
(327.333,781.5,o),
(382,859.5,cs),
(436.667,937.5,o),
(517,982,o),
(617,982,cs),
(794.083,982,o),
(852,897.413,o),
(852,735,cs),
(852,198,l),
(796,119.333,o),
(708.667,68,o),
(618,68,cs)
);
}
);
userData = {
assembly = "NPUSHB[ ]	/* 70 values pushed */
36 13 2 7 8 1 74 0 2 0 1 0 2 112 0 5 5 35 75 0 8 8 4 95 6 1 4 4 43 75 9 1 7 7 3 95 0 3 3 41 75 0 0 0 1 93 0 1 1 37 1 76 34 33 43 41 33 51 34 51 17 18 40 39 17 17 19 10 8 27
CALL[ ]	/* CallFunction */";
};
width = 1180;
},
{
layerId = "D346AEB9-DD6D-429C-AFEE-90B4948468D3";
shapes = (
{
closed = 1;
nodes = (
(935,1044,l),
(919,1022.667,o),
(885,1011,o),
(865,1011,cs),
(803.886,1011,o),
(735.215,1057,o),
(578,1057,cs),
(267.117,1057,o),
(66,813.44,o),
(66,486,cs),
(66,169.425,o),
(233.409,-33,o),
(479,-33,cs),
(576.333,-33,o),
(668,-3.333,o),
(756,82,c),
(758,82,l),
(756,-207,ls),
(756,-320.329,o),
(743.68,-389,o),
(634,-389,c),
(634,-522,l),
(1171,-522,l),
(1171,-366,l),
(1038,-372,l),
(1043.545,-308.231,o),
(1046,-232.793,o),
(1046,-193,cs),
(1046,1044,l),
(1046,1044,l)
);
},
{
closed = 1;
nodes = (
(428.386,152,o),
(368.653,341.895,o),
(366,517,cs),
(366,710.961,o),
(416.125,907,o),
(597,907,cs),
(673.534,907,o),
(756,875.086,o),
(756,728,cs),
(756,247,l),
(720,191,o),
(654,152,o),
(586,152,cs)
);
}
);
userData = {
assembly = "NPUSHB[ ]	/* 67 values pushed */
42 1 7 8 15 1 3 7 2 74 0 5 5 35 75 0 8 8 4 95 6 1 4 4 43 75 9 1 7 7 3 95 0 3 3 41 75 2 1 0 0 1 93 0 1 1 37 1 76 40 39 49 47 39 57 40 57 19 19 40 40 17 17 21 10 8 27
CALL[ ]	/* CallFunction */";
};
width = 1174;
}
);
note = q;
unicode = 113;
}
{
glyphname = s;
kernLeft = s;
kernRight = s;
layers = (
{
layerId = m001;
shapes = (
{
closed = 1;
nodes = (
(313.658,47,o),
(179.643,167.706,o),
(169,338,c),
(106,338,l),
(118,-14,l),
(204,-14,l),
(197,57,l),
(265,10.333,o),
(371.333,-33,o),
(510,-33,cs),
(685.213,-33,o),
(865,63.012,o),
(865,268,cs),
(865,444.265,o),
(718.349,514.568,o),
(566,578.5,cs),
(413.698,642.413,o),
(267,691.272,o),
(267,825,cs),
(267,909.461,o),
(340.38,980,o),
(466,980,cs),
(642.746,980,o),
(717.379,828.723,o),
(728,688,c),
(792,688,l),
(792,1047,l),
(706,1047,l),
(711,969,l),
(625.525,1035.777,o),
(535.026,1057,o),
(456,1057,cs),
(318.667,1057,o),
(231.333,1011,o),
(178,951,cs),
(124.667,891,o),
(106,817.333,o),
(106,760,cs),
(106,577.063,o),
(253.182,502.793,o),
(401.5,444,cs),
(541.751,388.405,o),
(698,342.178,o),
(698,209,cs),
(698,97.93,o),
(578.7,47,o),
(474,47,cs)
);
}
);
userData = {
assembly = "NPUSHB[ ]	/* 77 values pushed */
24 1 3 4 55 1 0 7 2 74 0 4 4 1 95 2 1 1 1 43 75 0 3 3 1 95 2 1 1 1 43 75 0 7 7 6 93 0 6 6 33 75 8 1 0 0 5 95 0 5 5 41 5 76 1 0 59 58 57 56 53 51 34 32 28 27 26 25 20 18 0 63 1 63 9 8 20
CALL[ ]	/* CallFunction */";
};
width = 948;
},
{
layerId = "D346AEB9-DD6D-429C-AFEE-90B4948468D3";
shapes = (
{
closed = 1;
nodes = (
(101,-14,l),
(257,-14,l),
(250,48,l),
(252,48,l),
(317.409,-1.057,o),
(439.597,-33,o),
(555,-33,cs),
(746.988,-33,o),
(928,70.745,o),
(928,283,cs),
(928,475.295,o),
(772.007,569.036,o),
(567,640,cs),
(433.425,685.365,o),
(317,706.142,o),
(317,804,cs),
(317,884.273,o),
(382.963,913,o),
(452,913,cs),
(599.723,913,o),
(710.221,824.031,o),
(734,684,c),
(866,684,l),
(866,1046,l),
(710,1046,l),
(713,988,l),
(711,988,l),
(643.032,1036.937,o),
(538.22,1057,o),
(465,1057,cs),
(330.333,1057,o),
(233.667,1013.667,o),
(171,951,cs),
(108.333,888.333,o),
(79,805.667,o),
(79,727,cs),
(79,506.894,o),
(275.104,445.756,o),
(446,379,cs),
(599.763,318.025,o),
(684,295.426,o),
(684,217,cs),
(684,145.243,o),
(608.79,115,o),
(543,115,cs),
(370.072,115,o),
(235.761,211.56,o),
(225,338,c),
(93,338,l),
(93,338,l)
);
}
);
userData = {
assembly = "NPUSHB[ ]	/* 78 values pushed */
30 1 4 1 65 1 5 0 2 74 0 4 4 1 95 2 1 1 1 43 75 0 3 3 1 95 2 1 1 1 43 75 8 1 7 7 5 95 6 1 5 5 41 75 0 0 0 5 95 6 1 5 5 41 5 76 0 0 0 69 0 69 68 67 61 59 41 39 35 34 33 32 26 24 36 9 8 21
CALL[ ]	/* CallFunction */";
};
width = 993;
}
);
note = s;
unicode = 115;
}
{
glyphname = t;
layers = (
{
layerId = m001;
shapes = (
{
closed = 1;
nodes = (
(200,937,l),
(196,345,ls),
(194.667,235.667,o),
(212,157,o),
(240,101,cs),
(254,73,o),
(270.167,50.167,o),
(288.5,32.5,cs),
(344.744,-21.699,o),
(413.09,-33,o),
(475,-33,cs),
(542.992,-33,o),
(665.154,-18.589,o),
(784,161,c),
(729,206,l),
(675.667,127.333,o),
(602.667,83,o),
(532,83,cs),
(472,83,o),
(434,107.833,o),
(410,156.5,cs),
(386,205.167,o),
(377,276.667,o),
(377,370,cs),
(377,376,ls),
(377,380,o),
(377.167,388.333,o),
(377.5,401,cs),
(377.833,413.667,o),
(378,432.167,o),
(378,456.5,cs),
(378,505.775,o),
(379,591.271,o),
(379,713,cs),
(379,775.667,o),
(379.333,851.333,o),
(380,940,c),
(725,944,l),
(725,1024,l),
(380,1024,l),
(380,1066,o),
(380.167,1110.667,o),
(380.5,1158,cs),
(380.833,1205.333,o),
(381,1256.333,o),
(381,1311,c),
(311,1311,l),
(276.658,1194.766,o),
(188.8,1026.7,o),
(43,1024,c),
(43,936,l),
(43,936,l),
(43,936,l)
);
}
);
userData = {
assembly = "NPUSHB[ ]	/* 45 values pushed */
28 27 2 4 3 1 74 0 1 0 1 131 6 1 3 3 0 95 2 1 0 0 35 75 0 4 4 5 95 0 5 5 41 5 76 23 39 43 17 19 20 16 7 8 27
CALL[ ]	/* CallFunction */";
};
width = 793;
},
{
layerId = "D346AEB9-DD6D-429C-AFEE-90B4948468D3";
shapes = (
{
closed = 1;
nodes = (
(174,855,l),
(171,361,ls),
(171,196.516,o),
(215.224,91.614,o),
(279.5,35.5,cs),
(345.273,-21.921,o),
(424.41,-33,o),
(489,-33,cs),
(526.333,-33,o),
(584,-32,o),
(652,-4,cs),
(720,24,o),
(796.333,79.667,o),
(871,189,c),
(772,281,l),
(701.533,181.374,o),
(629.813,158,o),
(586,158,cs),
(482.662,158,o),
(462,257.527,o),
(462,357,cs),
(462,386,ls),
(462,426.065,o),
(463.092,584.394,o),
(465,861,c),
(726,866,l),
(726,1024,l),
(465,1024,l),
(466,1281,l),
(315,1281,l),
(282.367,1174.943,o),
(175.223,1026.665,o),
(34,1024,c),
(34,853,l),
(34,853,l)
);
}
);
userData = {
assembly = "PUSHB[ ]	/* 7 values pushed */
26 25 2 4 3 1 74
MPPEM[ ]	/* MeasurePixelPerEm */
PUSHB[ ]	/* 1 value pushed */
11
LT[ ]	/* LessThan */
IF[ ]	/* If */
NPUSHB[ ]	/* 32 values pushed */
0 1 0 0 1 110 0 4 3 5 3 4 5 126 6 1 3 3 0 95 2 1 0 0 35 75 0 5 5 41 5 76
ELSE[ ]	/* Else */
NPUSHB[ ]	/* 31 values pushed */
0 1 0 1 131 0 4 3 5 3 4 5 126 6 1 3 3 0 95 2 1 0 0 35 75 0 5 5 41 5 76
EIF[ ]	/* EndIf */
NPUSHB[ ]	/* 10 values pushed */
23 42 25 17 17 20 16 7 8 27
CALL[ ]	/* CallFunction */";
};
width = 846;
}
);
note = t;
unicode = 116;
}
{
glyphname = v;
layers = (
{
background = {
shapes = (
{
closed = 1;
nodes = (
(561,-6,l),
(829,686,ls),
(901,870,o),
(938,963,o),
(1028,963,c),
(1028,1024,l),
(705,1024,l),
(705,940,l),
(836,946,l),
(823,922,o),
(797,870,o),
(774,805,cs),
(610,356,ls),
(596,311,o),
(578,264,o),
(563,223,c),
(561,223,l),
(541,276,o),
(520,328,o),
(500,375,cs),
(342,735,ls),
(291,854,o),
(264,963,o),
(389,963,c),
(389,1024,l),
(12,1024,l),
(12,940,l),
(100,946,l),
(102,899,o),
(119,817,o),
(186,662,cs),
(479,-6,l)
);
}
);
};
layerId = m001;
shapes = (
{
closed = 1;
nodes = (
(561,-6,l),
(829,686,ls),
(901,870,o),
(938,963,o),
(1028,963,c),
(1028,1024,l),
(705,1024,l),
(705,940,l),
(836,946,l),
(823,922,o),
(797,870,o),
(774,805,cs),
(610,356,ls),
(596,311,o),
(578,264,o),
(563,223,c),
(561,223,l),
(541,276,o),
(520,328,o),
(500,375,cs),
(342,735,ls),
(291,854,o),
(264,963,o),
(389,963,c),
(389,1024,l),
(12,1024,l),
(12,940,l),
(100,946,l),
(102,899,o),
(119,817,o),
(186,662,cs),
(479,-6,l)
);
}
);
width = 1034;
},
{
background = {
shapes = (
{
closed = 1;
nodes = (
(643,-6,l),
(905,647,ls),
(938,729,o),
(999,877,o),
(1096,893,c),
(1096,1024,l),
(707,1024,l),
(707,868,l),
(834,877,l),
(809,834,o),
(791,799,o),
(766,731,cs),
(678,481,l),
(657,424,o),
(637,367,o),
(616,309,c),
(614,309,l),
(592,362,o),
(571,418,o),
(549,471,c),
(442,733,ls),
(414,815,o),
(406,889,o),
(492,893,c),
(492,1024,l),
(12,1024,l),
(12,868,l),
(88,872,l),
(98,823,o),
(96,805,o),
(141,705,cs),
(465,-6,l)
);
}
);
};
layerId = "D346AEB9-DD6D-429C-AFEE-90B4948468D3";
shapes = (
{
closed = 1;
nodes = (
(643,-6,l),
(905,647,ls),
(938,729,o),
(999,877,o),
(1096,893,c),
(1096,1024,l),
(707,1024,l),
(707,868,l),
(834,877,l),
(809,834,o),
(791,799,o),
(766,731,cs),
(678,481,l),
(657,424,o),
(637,367,o),
(616,309,c),
(614,309,l),
(592,362,o),
(571,418,o),
(549,471,c),
(442,733,ls),
(414,815,o),
(406,889,o),
(492,893,c),
(492,1024,l),
(12,1024,l),
(12,868,l),
(88,872,l),
(98,823,o),
(96,805,o),
(141,705,cs),
(465,-6,l)
);
}
);
width = 1102;
}
);
unicode = 118;
}
{
glyphname = w;
layers = (
{
anchors = (
{
name = top;
pos = (819,1024);
}
);
background = {
anchors = (
{
name = top;
pos = (819,1024);
}
);
shapes = (
{
closed = 1;
nodes = (
(520,-6,l),
(713,553,l),
(737,625,o),
(762,696,o),
(786,768,c),
(811,696,o),
(836,625,o),
(860,553,c),
(1055,-6,l),
(1137,-6,l),
(1432,801,ls),
(1466,897,o),
(1497,954,o),
(1638,963,c),
(1638,1024,l),
(1282,1024,l),
(1282,940,l),
(1401,946,l),
(1376,915,o),
(1358,864,o),
(1339,809,cs),
(1204,420,l),
(1184,360,o),
(1163,301,o),
(1143,242,c),
(1120,303,o),
(1100,367,o),
(1077,428,c),
(870,1024,l),
(786,1024,l),
(604,481,l),
(580,406,o),
(553,330,o),
(528,256,c),
(506,322,o),
(485,389,o),
(463,455,c),
(369,741,ls),
(324,872,o),
(324,958,o),
(446,963,c),
(446,1024,l),
(12,1024,l),
(12,940,l),
(121,946,l),
(129,913,o),
(143,866,o),
(174,780,cs),
(442,-6,l)
);
}
);
};
layerId = m001;
shapes = (
{
closed = 1;
nodes = (
(520,-6,l),
(713,553,l),
(737,625,o),
(762,696,o),
(786,768,c),
(811,696,o),
(836,625,o),
(860,553,c),
(1055,-6,l),
(1137,-6,l),
(1432,801,ls),
(1466,897,o),
(1497,954,o),
(1638,963,c),
(1638,1024,l),
(1282,1024,l),
(1282,940,l),
(1401,946,l),
(1376,915,o),
(1358,864,o),
(1339,809,cs),
(1204,420,l),
(1184,360,o),
(1163,301,o),
(1143,242,c),
(1120,303,o),
(1100,367,o),
(1077,428,c),
(870,1024,l),
(786,1024,l),
(604,481,l),
(580,406,o),
(553,330,o),
(528,256,c),
(506,322,o),
(485,389,o),
(463,455,c),
(369,741,ls),
(324,872,o),
(324,958,o),
(446,963,c),
(446,1024,l),
(12,1024,l),
(12,940,l),
(121,946,l),
(129,913,o),
(143,866,o),
(174,780,cs),
(442,-6,l)
);
}
);
width = 1640;
},
{
anchors = (
{
name = top;
pos = (856,1024);
}
);
background = {
anchors = (
{
name = top;
pos = (856,1024);
}
);
shapes = (
{
closed = 1;
nodes = (
(598,-6,l),
(711,332,ls),
(725,377,o),
(784,567,o),
(807,682,c),
(829,596,o),
(864,475,o),
(879,430,cs),
(1020,-6,l),
(1237,-6,l),
(1470,672,ls),
(1489,725,o),
(1546,893,o),
(1655,893,c),
(1655,1024,l),
(1266,1024,l),
(1266,868,l),
(1382,877,l),
(1358,827,o),
(1346,786,o),
(1323,713,cs),
(1243,453,ls),
(1227,401,o),
(1204,328,o),
(1194,274,c),
(1180,330,o),
(1161,401,o),
(1145,459,cs),
(981,1024,l),
(758,1024,l),
(608,510,ls),
(578,408,o),
(567,346,o),
(553,289,c),
(543,354,o),
(526,424,o),
(510,483,cs),
(440,733,ls),
(418,817,o),
(422,889,o),
(508,893,c),
(508,1024,l),
(16,1024,l),
(16,868,l),
(96,872,l),
(106,823,o),
(111,809,o),
(147,705,cs),
(395,-6,l)
);
}
);
};
layerId = "D346AEB9-DD6D-429C-AFEE-90B4948468D3";
shapes = (
{
closed = 1;
nodes = (
(598,-6,l),
(711,332,ls),
(725,377,o),
(784,567,o),
(807,682,c),
(829,596,o),
(864,475,o),
(879,430,cs),
(1020,-6,l),
(1237,-6,l),
(1470,672,ls),
(1489,725,o),
(1546,893,o),
(1655,893,c),
(1655,1024,l),
(1266,1024,l),
(1266,868,l),
(1382,877,l),
(1358,827,o),
(1346,786,o),
(1323,713,cs),
(1243,453,ls),
(1227,401,o),
(1204,328,o),
(1194,274,c),
(1180,330,o),
(1161,401,o),
(1145,459,cs),
(981,1024,l),
(758,1024,l),
(608,510,ls),
(578,408,o),
(567,346,o),
(553,289,c),
(543,354,o),
(526,424,o),
(510,483,cs),
(440,733,ls),
(418,817,o),
(422,889,o),
(508,893,c),
(508,1024,l),
(16,1024,l),
(16,868,l),
(96,872,l),
(106,823,o),
(111,809,o),
(147,705,cs),
(395,-6,l)
);
}
);
width = 1661;
}
);
unicode = 119;
}
{
glyphname = x;
layers = (
{
background = {
shapes = (
{
closed = 1;
nodes = (
(393,0,l),
(393,84,l),
(236,78,l),
(276,121,o),
(289,137,o),
(330,193,cs),
(502,428,l),
(717,162,ls),
(774,90,o),
(733,61,o),
(668,61,c),
(668,0,l),
(1063,0,l),
(1063,84,l),
(971,78,l),
(940,129,o),
(911,164,o),
(881,205,cs),
(598,555,l),
(756,743,ls),
(866,877,o),
(907,930,o),
(1020,963,c),
(1020,1024,l),
(684,1024,l),
(684,940,l),
(825,948,l),
(797,920,o),
(774,889,o),
(733,840,cs),
(547,614,l),
(428,776,ls),
(326,915,o),
(344,958,o),
(467,963,c),
(467,1024,l),
(45,1024,l),
(45,940,l),
(141,944,l),
(156,907,o),
(180,852,o),
(246,766,cs),
(285,715,o),
(389,571,o),
(449,494,c),
(244,227,ls),
(168,129,o),
(133,82,o),
(49,61,c),
(49,0,l)
);
}
);
};
layerId = m001;
shapes = (
{
closed = 1;
nodes = (
(393,0,l),
(393,84,l),
(236,78,l),
(276,121,o),
(289,137,o),
(330,193,cs),
(502,428,l),
(717,162,ls),
(774,90,o),
(733,61,o),
(668,61,c),
(668,0,l),
(1063,0,l),
(1063,84,l),
(971,78,l),
(940,129,o),
(911,164,o),
(881,205,cs),
(598,555,l),
(756,743,ls),
(866,877,o),
(907,930,o),
(1020,963,c),
(1020,1024,l),
(684,1024,l),
(684,940,l),
(825,948,l),
(797,920,o),
(774,889,o),
(733,840,cs),
(547,614,l),
(428,776,ls),
(326,915,o),
(344,958,o),
(467,963,c),
(467,1024,l),
(45,1024,l),
(45,940,l),
(141,944,l),
(156,907,o),
(180,852,o),
(246,766,cs),
(285,715,o),
(389,571,o),
(449,494,c),
(244,227,ls),
(168,129,o),
(133,82,o),
(49,61,c),
(49,0,l)
);
}
);
width = 1085;
},
{
background = {
shapes = (
{
closed = 1;
nodes = (
(422,0,l),
(422,156,l),
(328,147,l),
(352,166,o),
(406,227,o),
(420,246,cs),
(516,360,l),
(639,231,ls),
(688,176,o),
(690,135,o),
(604,131,c),
(604,0,l),
(1087,0,l),
(1087,156,l),
(1018,152,l),
(991,201,o),
(956,242,o),
(920,285,cs),
(682,561,l),
(819,729,ls),
(879,805,o),
(942,858,o),
(1024,893,c),
(1024,1024,l),
(664,1024,l),
(664,868,l),
(764,877,l),
(727,842,o),
(696,803,o),
(664,764,cs),
(584,670,l),
(489,780,ls),
(440,838,o),
(420,889,o),
(496,893,c),
(496,1024,l),
(43,1024,l),
(43,868,l),
(98,872,l),
(117,823,o),
(182,745,o),
(215,705,cs),
(283,627,o),
(348,547,o),
(416,469,c),
(238,264,ls),
(182,201,o),
(137,154,o),
(82,131,c),
(82,0,l)
);
}
);
};
layerId = "D346AEB9-DD6D-429C-AFEE-90B4948468D3";
shapes = (
{
closed = 1;
nodes = (
(422,0,l),
(422,156,l),
(328,147,l),
(352,166,o),
(406,227,o),
(420,246,cs),
(516,360,l),
(639,231,ls),
(688,176,o),
(690,135,o),
(604,131,c),
(604,0,l),
(1087,0,l),
(1087,156,l),
(1018,152,l),
(991,201,o),
(956,242,o),
(920,285,cs),
(682,561,l),
(819,729,ls),
(879,805,o),
(942,858,o),
(1024,893,c),
(1024,1024,l),
(664,1024,l),
(664,868,l),
(764,877,l),
(727,842,o),
(696,803,o),
(664,764,cs),
(584,670,l),
(489,780,ls),
(440,838,o),
(420,889,o),
(496,893,c),
(496,1024,l),
(43,1024,l),
(43,868,l),
(98,872,l),
(117,823,o),
(182,745,o),
(215,705,cs),
(283,627,o),
(348,547,o),
(416,469,c),
(238,264,ls),
(182,201,o),
(137,154,o),
(82,131,c),
(82,0,l)
);
}
);
width = 1122;
}
);
unicode = 120;
}
{
glyphname = z;
kernLeft = z;
kernRight = z;
layers = (
{
anchors = (
{
name = top;
pos = (545,1024);
}
);
background = {
anchors = (
{
name = top;
pos = (545,1024);
}
);
shapes = (
{
closed = 1;
nodes = (
(932,0,l),
(956,373,l),
(897,373,l),
(872,209,o),
(821,76,o),
(651,78,cs),
(256,84,l),
(307,127,o),
(328,154,o),
(362,199,cs),
(940,958,l),
(940,1024,l),
(137,1024,l),
(113,657,l),
(176,657,l),
(199,815,o),
(231,944,o),
(385,946,cs),
(770,952,l),
(743,936,o),
(696,874,o),
(653,819,cs),
(82,84,l),
(82,0,l)
);
}
);
};
layerId = m001;
shapes = (
{
closed = 1;
nodes = (
(932,0,l),
(956,373,l),
(897,373,l),
(872,209,o),
(821,76,o),
(651,78,cs),
(256,84,l),
(307,127,o),
(328,154,o),
(362,199,cs),
(940,958,l),
(940,1024,l),
(137,1024,l),
(113,657,l),
(176,657,l),
(199,815,o),
(231,944,o),
(385,946,cs),
(770,952,l),
(743,936,o),
(696,874,o),
(653,819,cs),
(82,84,l),
(82,0,l)
);
}
);
width = 1047;
},
{
anchors = (
{
name = top;
pos = (547,1024);
}
);
background = {
anchors = (
{
name = top;
pos = (547,1024);
}
);
shapes = (
{
closed = 1;
nodes = (
(954,0,l),
(985,401,l),
(858,401,l),
(838,256,o),
(795,137,o),
(666,141,cs),
(377,150,l),
(414,182,o),
(453,221,o),
(492,274,cs),
(948,895,l),
(948,1024,l),
(119,1024,l),
(90,629,l),
(217,629,l),
(238,770,o),
(276,885,o),
(371,887,cs),
(647,891,l),
(637,879,o),
(588,827,o),
(543,768,cs),
(72,147,l),
(72,0,l)
);
}
);
};
layerId = "D346AEB9-DD6D-429C-AFEE-90B4948468D3";
shapes = (
{
closed = 1;
nodes = (
(954,0,l),
(985,401,l),
(858,401,l),
(838,256,o),
(795,137,o),
(666,141,cs),
(377,150,l),
(414,182,o),
(453,221,o),
(492,274,cs),
(948,895,l),
(948,1024,l),
(119,1024,l),
(90,629,l),
(217,629,l),
(238,770,o),
(276,885,o),
(371,887,cs),
(647,891,l),
(637,879,o),
(588,827,o),
(543,768,cs),
(72,147,l),
(72,0,l)
);
}
);
width = 1053;
}
);
unicode = 122;
}
{
glyphname = braceleft;
layers = (
{
layerId = m001;
shapes = (
{
closed = 1;
nodes = (
(659,-555,l),
(659,-498,l),
(449,-504,o),
(395,-379,o),
(395,-145,cs),
(395,-53,o),
(422,160,o),
(422,256,cs),
(422,426,o),
(309,514,o),
(193,537,c),
(193,541,l),
(309,563,o),
(422,643,o),
(422,813,cs),
(422,909,o),
(395,1071,o),
(395,1163,cs),
(395,1397,o),
(449,1493,o),
(659,1487,c),
(659,1556,l),
(602,1556,ls),
(322,1556,o),
(238,1423,o),
(238,1135,cs),
(238,1014,o),
(258,897,o),
(258,791,cs),
(258,651,o),
(213,592,o),
(61,592,cs),
(14,592,l),
(14,485,l),
(61,485,ls),
(213,485,o),
(258,418,o),
(258,279,cs),
(258,172,o),
(238,4,o),
(238,-117,cs),
(238,-406,o),
(322,-555,o),
(602,-555,cs)
);
}
);
width = 684;
},
{
layerId = "D346AEB9-DD6D-429C-AFEE-90B4948468D3";
shapes = (
{
closed = 1;
nodes = (
(739,-555,l),
(739,-410,l),
(567,-416,o),
(494,-379,o),
(494,-145,cs),
(494,-80,o),
(508,47,o),
(516,150,cs),
(532,369,o),
(381,514,o),
(172,537,c),
(172,541,l),
(385,561,o),
(535,705,o),
(514,928,cs),
(506,1012,o),
(494,1102,o),
(494,1163,cs),
(494,1397,o),
(567,1419,o),
(739,1411,c),
(739,1556,l),
(682,1556,ls),
(371,1556,o),
(217,1423,o),
(217,1135,cs),
(217,1014,o),
(238,897,o),
(238,791,cs),
(238,651,o),
(193,612,o),
(41,612,cs),
(-6,612,l),
(-6,467,l),
(41,467,ls),
(193,467,o),
(238,418,o),
(238,279,cs),
(238,172,o),
(217,4,o),
(217,-117,cs),
(217,-406,o),
(371,-555,o),
(682,-555,cs)
);
}
);
width = 754;
}
);
unicode = 123;
}
{
glyphname = bar;
layers = (
{
layerId = m001;
shapes = (
{
closed = 1;
nodes = (
(168,-555,l),
(307,-555,l),
(315,1556,l),
(162,1556,l),
(162,1556,l)
);
}
);
userData = {
assembly = "NPUSHB[ ]	/* 22 values pushed */
2 1 1 1 34 75 0 0 0 37 0 76 0 0 0 3 0 3 17 3 8 21
CALL[ ]	/* CallFunction */";
};
width = 473;
},
{
layerId = "D346AEB9-DD6D-429C-AFEE-90B4948468D3";
shapes = (
{
closed = 1;
nodes = (
(130,-555,l),
(399,-555,l),
(407,1556,l),
(124,1556,l),
(124,1556,l)
);
}
);
userData = {
assembly = "NPUSHB[ ]	/* 22 values pushed */
2 1 1 1 34 75 0 0 0 37 0 76 0 0 0 3 0 3 17 3 8 21
CALL[ ]	/* CallFunction */";
};
width = 531;
}
);
note = bar;
unicode = 124;
}
{
glyphname = cent;
layers = (
{
layerId = m001;
shapes = (
{
closed = 1;
nodes = (
(629,-274,l),
(631,-33,l),
(760,-18,o),
(913,57,o),
(1010,209,c),
(956,250,l),
(891,152,o),
(762,72,o),
(635,72,cs),
(424,72,o),
(283,270,o),
(283,545,cs),
(283,827,o),
(426,983,o),
(612,983,cs),
(670,983,o),
(793,969,o),
(827,872,c),
(805,848,o),
(797,817,o),
(797,791,cs),
(797,756,o),
(821,696,o),
(893,698,cs),
(952,698,o),
(987,748,o),
(987,807,cs),
(987,932,o),
(852,1044,o),
(643,1057,c),
(645,1274,l),
(512,1274,l),
(512,1057,l),
(248,1010,o),
(74,748,o),
(74,494,cs),
(74,190,o),
(264,-2,o),
(510,-33,c),
(510,-274,l)
);
}
);
width = 1087;
},
{
layerId = "D346AEB9-DD6D-429C-AFEE-90B4948468D3";
shapes = (
{
closed = 1;
nodes = (
(696,-281,l),
(698,-27,l),
(823,-8,o),
(954,49,o),
(1075,215,c),
(981,307,l),
(905,209,o),
(788,145,o),
(674,150,cs),
(473,158,o),
(403,344,o),
(403,549,cs),
(403,780,o),
(498,905,o),
(629,913,cs),
(666,915,o),
(748,905,o),
(778,846,c),
(762,817,o),
(754,780,o),
(754,756,cs),
(754,698,o),
(788,621,o),
(893,623,cs),
(981,625,o),
(1030,696,o),
(1030,776,cs),
(1030,905,o),
(924,1030,o),
(711,1053,c),
(713,1282,l),
(530,1282,l),
(532,1049,l),
(272,995,o),
(104,762,o),
(104,489,cs),
(104,190,o),
(289,8,o),
(526,-27,c),
(526,-281,l)
);
}
);
width = 1157;
}
);
unicode = 162;
}
{
glyphname = sterling;
layers = (
{
background = {
shapes = (
{
closed = 1;
nodes = (
(129,737,l),
(129,639,l),
(291,639,l),
(311,565,o),
(328,496,o),
(328,408,cs),
(328,332,o),
(303,268,o),
(274,221,c),
(170,190,o),
(96,117,o),
(96,43,cs),
(96,4,o),
(125,-33,o),
(172,-33,cs),
(240,-33,o),
(303,57,o),
(317,162,c),
(328,164,o),
(340,164,o),
(350,164,cs),
(535,164,o),
(672,-33,o),
(844,-33,cs),
(977,-33,o),
(1047,90,o),
(1053,254,c),
(987,254,l),
(981,166,o),
(938,125,o),
(879,125,cs),
(786,125,o),
(645,248,o),
(469,248,cs),
(432,248,o),
(395,246,o),
(362,240,c),
(479,383,o),
(479,459,o),
(457,639,c),
(750,639,l),
(750,737,l),
(438,737,l),
(418,850,o),
(389,961,o),
(389,1100,cs),
(389,1251,o),
(469,1389,o),
(623,1389,cs),
(719,1389,o),
(772,1341,o),
(788,1288,c),
(766,1264,o),
(762,1235,o),
(762,1219,cs),
(762,1188,o),
(782,1137,o),
(844,1139,cs),
(897,1141,o),
(926,1180,o),
(926,1229,cs),
(926,1323,o),
(848,1466,o),
(606,1466,cs),
(385,1466,o),
(227,1290,o),
(227,1018,cs),
(227,903,o),
(244,815,o),
(264,737,c)
);
}
);
};
layerId = m001;
shapes = (
{
closed = 1;
nodes = (
(129,737,l),
(129,639,l),
(291,639,l),
(311,565,o),
(328,496,o),
(328,408,cs),
(328,332,o),
(303,268,o),
(274,221,c),
(170,190,o),
(96,117,o),
(96,43,cs),
(96,4,o),
(125,-33,o),
(172,-33,cs),
(240,-33,o),
(303,57,o),
(317,162,c),
(397,178,o),
(506,125,o),
(575,82,cs),
(664,27,o),
(750,-33,o),
(844,-33,cs),
(977,-33,o),
(1047,90,o),
(1053,254,c),
(987,254,l),
(981,166,o),
(938,125,o),
(879,125,cs),
(786,125,o),
(645,248,o),
(469,248,cs),
(432,248,o),
(395,246,o),
(362,240,c),
(479,383,o),
(479,459,o),
(457,639,c),
(750,639,l),
(750,737,l),
(438,737,l),
(418,850,o),
(389,961,o),
(389,1100,cs),
(389,1251,o),
(469,1389,o),
(623,1389,cs),
(719,1389,o),
(772,1341,o),
(788,1288,c),
(766,1264,o),
(762,1235,o),
(762,1219,cs),
(762,1188,o),
(782,1137,o),
(844,1139,cs),
(897,1141,o),
(926,1180,o),
(926,1229,cs),
(926,1323,o),
(848,1466,o),
(606,1466,cs),
(385,1466,o),
(227,1290,o),
(227,1018,cs),
(227,903,o),
(244,815,o),
(264,737,c)
);
}
);
width = 1122;
},
{
layerId = "D346AEB9-DD6D-429C-AFEE-90B4948468D3";
shapes = (
{
closed = 1;
nodes = (
(131,768,l),
(131,598,l),
(293,600,l),
(307,545,o),
(317,485,o),
(317,418,cs),
(317,375,o),
(301,307,o),
(283,272,c),
(180,236,o),
(104,162,o),
(104,82,cs),
(104,23,o),
(135,-33,o),
(219,-33,cs),
(293,-33,o),
(365,47,o),
(389,147,c),
(459,145,o),
(545,104,o),
(608,66,cs),
(684,16,o),
(762,-33,o),
(850,-33,cs),
(1001,-33,o),
(1079,119,o),
(1087,319,c),
(954,319,l),
(948,240,o),
(913,203,o),
(883,203,cs),
(805,203,o),
(727,305,o),
(575,305,cs),
(528,305,o),
(477,299,o),
(412,274,c),
(528,354,o),
(567,483,o),
(545,604,c),
(836,610,l),
(836,768,l),
(512,768,l),
(498,850,o),
(483,942,o),
(483,1049,cs),
(483,1174,o),
(528,1323,o),
(676,1323,cs),
(723,1323,o),
(752,1309,o),
(764,1292,c),
(737,1260,o),
(729,1221,o),
(729,1186,cs),
(729,1137,o),
(768,1057,o),
(868,1061,cs),
(952,1063,o),
(999,1133,o),
(999,1212,cs),
(999,1317,o),
(907,1466,o),
(653,1466,cs),
(426,1466,o),
(223,1288,o),
(223,973,cs),
(223,893,o),
(233,827,o),
(248,768,c)
);
}
);
width = 1174;
}
);
unicode = 163;
}
{
glyphname = currency;
layers = (
{
layerId = m001;
shapes = (
{
closed = 1;
nodes = (
(313,213,l),
(373,166,o),
(453,137,o),
(549,137,cs),
(645,137,o),
(725,166,o),
(786,215,c),
(891,82,l),
(973,147,l),
(852,285,l),
(901,352,o),
(926,434,o),
(926,520,cs),
(926,606,o),
(899,694,o),
(846,766,c),
(973,909,l),
(891,977,l),
(780,838,l),
(719,887,o),
(643,918,o),
(549,918,cs),
(457,918,o),
(379,887,o),
(319,838,c),
(209,977,l),
(125,909,l),
(252,766,l),
(199,694,o),
(172,606,o),
(172,520,cs),
(172,434,o),
(197,352,o),
(246,285,c),
(125,147,l),
(209,82,l)
);
},
{
closed = 1;
nodes = (
(387,217,o),
(348,424,o),
(348,555,cs),
(348,657,o),
(395,846,o),
(549,846,cs),
(702,846,o),
(750,657,o),
(750,555,cs),
(750,424,o),
(711,217,o),
(549,217,cs)
);
}
);
width = 1096;
},
{
layerId = "D346AEB9-DD6D-429C-AFEE-90B4948468D3";
shapes = (
{
closed = 1;
nodes = (
(375,178,l),
(430,145,o),
(500,127,o),
(580,127,cs),
(659,127,o),
(729,145,o),
(786,178,c),
(885,55,l),
(1032,174,l),
(913,309,l),
(950,371,o),
(969,444,o),
(969,520,cs),
(969,596,o),
(948,672,o),
(907,739,c),
(1032,881,l),
(885,997,l),
(782,870,l),
(725,905,o),
(657,928,o),
(580,928,cs),
(502,928,o),
(434,905,o),
(379,870,c),
(276,999,l),
(129,881,l),
(252,739,l),
(213,672,o),
(190,596,o),
(190,520,cs),
(190,444,o),
(211,371,o),
(246,309,c),
(129,174,l),
(276,55,l)
);
},
{
closed = 1;
nodes = (
(469,283,o),
(440,449,o),
(440,551,cs),
(440,629,o),
(473,776,o),
(580,776,cs),
(686,776,o),
(721,629,o),
(721,551,cs),
(721,449,o),
(690,283,o),
(580,283,cs)
);
}
);
width = 1159;
}
);
unicode = 164;
}
{
glyphname = yen;
layers = (
{
layerId = m001;
shapes = (
{
closed = 1;
nodes = (
(650,553,l),
(650,426,l),
(388,426,l),
(388,332,l),
(649,332,l),
(649,257,ls),
(649,151.532,o),
(639.437,70.697,o),
(510,68,c),
(510,0,l),
(991,0,l),
(991,90,l),
(821,82,l),
(825,116.667,o),
(827,170.667,o),
(827,244,c),
(826.333,244,o),
(826,274,o),
(826,334,c),
(1094,336,l),
(1094,424,l),
(826,425,l),
(827,555,l),
(1094,557,l),
(1094,645,l),
(845,645,l),
(1087,1102,ls),
(1181.928,1278.295,o),
(1253.317,1358.077,o),
(1388,1366,c),
(1388,1434,l),
(970,1434,l),
(970,1343,l),
(1132,1350,l),
(1094.665,1310.176,o),
(1057.039,1243.37,o),
(1034,1194,c),
(944.382,1025.626,o),
(867.515,881.723,o),
(772,696,c),
(768,696,l),
(646.131,864.955,o),
(584.513,970.413,o),
(477,1143,cs),
(443.667,1195,o),
(425,1238.667,o),
(425,1276,cs),
(425,1332,o),
(470.333,1366,o),
(585,1366,c),
(585,1434,l),
(57,1434,l),
(57,1343,l),
(184,1348,l),
(194.667,1296,o),
(224.333,1225.333,o),
(295,1116,cs),
(590,648,l),
(388,648,l),
(388,553,l),
(388,553,l)
);
}
);
userData = {
assembly = "NPUSHB[ ]	/* 97 values pushed */
20 1 0 1 1 74 6 1 3 2 1 1 3 112 0 13 11 12 11 13 112 7 1 0 16 1 8 9 0 8 101 15 1 9 14 1 10 11 9 10 101 4 1 1 1 2 94 5 1 2 2 32 75 0 11 11 12 93 0 12 12 33 12 76 67 66 65 64 63 62 57 56 55 54 53 52 48 47 46 45 44 43 42 41 36 35 34 33 32 31 17 17 20 16 17 8 24
CALL[ ]	/* CallFunction */";
};
width = 1444;
},
{
layerId = "D346AEB9-DD6D-429C-AFEE-90B4948468D3";
shapes = (
{
closed = 1;
nodes = (
(1120,438,l),
(916,438,l),
(916,546,l),
(1120,546,l),
(1120,697,l),
(980,697,l),
(1183,1080,ls),
(1262.739,1228.847,o),
(1318.833,1282.972,o),
(1415,1299,c),
(1415,1434,l),
(963,1434,l),
(963,1276,l),
(1120,1284,l),
(1120,1282,l),
(1087.563,1244.929,o),
(1029.469,1130.938,o),
(1012,1096,cs),
(906,887,ls),
(854.667,785.667,o),
(822.667,719.667,o),
(810,689,c),
(807,689,l),
(782.834,755.458,o),
(694.894,899.611,o),
(704,884,cs),
(547,1141,ls),
(529,1171,o),
(520,1196.667,o),
(520,1218,cs),
(520,1272.667,o),
(570,1300,o),
(646,1300,cs),
(649.333,1300,o),
(652.833,1299.833,o),
(656.5,1299.5,cs),
(660.167,1299.167,o),
(664,1299,o),
(668,1299,c),
(668,1434,l),
(65,1434,l),
(65,1276,l),
(164,1282,l),
(164,1233.784,o),
(203.213,1149.06,o),
(242,1087,cs),
(496,701,l),
(396,701,l),
(396,543,l),
(620,543,l),
(620,441,l),
(396,441,l),
(396,282,l),
(619,283,l),
(611.22,150.748,o),
(563.378,137.708,o),
(474,135,c),
(474,0,l),
(1072,0,l),
(1072,158,l),
(908,152,l),
(912,178.667,o),
(913.667,228.667,o),
(915,286,c),
(1120,286,l),
(1120,286,l)
);
}
);
userData = {
assembly = "NPUSHB[ ]	/* 88 values pushed */
26 1 6 8 43 1 5 6 2 74 57 1 8 1 73 11 1 6 12 1 5 4 6 5 101 13 1 4 15 14 2 3 0 4 3 101 9 1 8 8 7 93 10 1 7 7 32 75 2 1 0 0 1 93 0 1 1 33 1 76 0 0 0 69 0 69 68 67 66 65 64 63 56 55 54 52 65 24 17 17 17 20 17 17 19 16 8 29
CALL[ ]	/* CallFunction */";
};
width = 1479;
}
);
note = yen;
unicode = 165;
}
{
glyphname = section;
layers = (
{
layerId = m001;
shapes = (
{
closed = 1;
nodes = (
(825,-467,o),
(920,-240,o),
(920,-109,cs),
(920,-12,o),
(887,59,o),
(836,119,c),
(948,213,o),
(1016,344,o),
(1016,461,cs),
(1016,662,o),
(877,780,o),
(723,877,cs),
(530,997,o),
(313,1083,o),
(313,1255,cs),
(313,1346,o),
(377,1479,o),
(565,1479,cs),
(670,1479,o),
(752,1427,o),
(778,1360,c),
(760,1343,o),
(754,1307,o),
(754,1290,cs),
(754,1260,o),
(774,1204,o),
(840,1206,cs),
(893,1208,o),
(924,1251,o),
(924,1303,cs),
(924,1425,o),
(776,1556,o),
(557,1556,cs),
(266,1556,o),
(168,1333,o),
(172,1192,cs),
(176,1096,o),
(207,1022,o),
(258,963,c),
(145,866,o),
(78,737,o),
(78,623,cs),
(78,416,o),
(225,297,o),
(383,199,cs),
(571,82,o),
(778,-4,o),
(778,-172,cs),
(778,-262,o),
(715,-387,o),
(526,-387,cs),
(420,-387,o),
(328,-324,o),
(322,-256,c),
(336,-238,o),
(344,-207,o),
(344,-193,cs),
(344,-147,o),
(322,-98,o),
(256,-100,cs),
(203,-100,o),
(170,-154,o),
(170,-205,cs),
(170,-328,o),
(295,-467,o),
(535,-467,cs)
);
},
{
closed = 1;
nodes = (
(592,340,o),
(236,403,o),
(236,698,cs),
(236,772,o),
(258,854,o),
(305,915,c),
(506,741,o),
(860,678,o),
(860,385,cs),
(860,309,o),
(838,225,o),
(791,166,c)
);
}
);
width = 1092;
},
{
layerId = "D346AEB9-DD6D-429C-AFEE-90B4948468D3";
shapes = (
{
closed = 1;
nodes = (
(846,-467,o),
(958,-233,o),
(958,-78,cs),
(958,23,o),
(911,90,o),
(877,145,c),
(969,238,o),
(1034,356,o),
(1034,463,cs),
(1034,659,o),
(897,782,o),
(748,879,cs),
(608,969,o),
(401,1057,o),
(397,1241,c),
(399,1321,o),
(457,1409,o),
(582,1409,cs),
(643,1409,o),
(698,1380,o),
(719,1337,c),
(702,1313,o),
(696,1282,o),
(696,1253,cs),
(696,1208,o),
(731,1133,o),
(829,1135,cs),
(907,1139,o),
(952,1202,o),
(952,1280,cs),
(952,1413,o),
(799,1556,o),
(573,1556,cs),
(274,1556,o),
(164,1323,o),
(168,1165,cs),
(170,1087,o),
(186,1004,o),
(250,924,c),
(152,831,o),
(90,717,o),
(90,608,cs),
(90,408,o),
(236,287,o),
(385,190,cs),
(508,111,o),
(729,12,o),
(729,-156,cs),
(729,-238,o),
(670,-322,o),
(545,-322,cs),
(483,-322,o),
(422,-293,o),
(401,-250,c),
(418,-223,o),
(424,-193,o),
(424,-164,cs),
(424,-119,o),
(387,-43,o),
(291,-45,cs),
(213,-49,o),
(168,-115,o),
(168,-190,cs),
(168,-324,o),
(322,-467,o),
(547,-467,cs)
);
},
{
closed = 1;
nodes = (
(627,375,o),
(326,489,o),
(326,678,cs),
(326,723,o),
(336,768,o),
(354,809,c),
(502,696,o),
(803,582,o),
(803,393,cs),
(803,350,o),
(793,299,o),
(772,260,c)
);
}
);
width = 1124;
}
);
unicode = 167;
}
{
glyphname = copyright;
layers = (
{
layerId = m001;
shapes = (
{
closed = 1;
nodes = (
(90,243.604,o),
(410.478,-102,o),
(897,-102,cs),
(1120.388,-102,o),
(1325.498,-10.999,o),
(1473,137.5,cs),
(1624.452,289.975,o),
(1710,495.639,o),
(1710,713,cs),
(1710,937.982,o),
(1627.722,1144.289,o),
(1484,1294,cs),
(1339.229,1444.803,o),
(1136.434,1536,o),
(901,1536,cs),
(666.276,1536,o),
(463.526,1444.027,o),
(318.5,1294,cs),
(174.015,1144.533,o),
(90,937.535,o),
(90,713,cs)
);
},
{
closed = 1;
nodes = (
(228,908.668,o),
(295.987,1083.773,o),
(412,1216.5,cs),
(530.975,1352.615,o),
(698.824,1436,o),
(897,1436,cs),
(1097.695,1436,o),
(1268.398,1352.75,o),
(1388.5,1216.5,cs),
(1505.192,1084.119,o),
(1575,908.316,o),
(1575,713,cs),
(1575,525.187,o),
(1509.699,346.664,o),
(1392,215,cs),
(1273.235,82.145,o),
(1104.42,0,o),
(903,0,cs),
(696.43,0,o),
(526.189,82.222,o),
(408.5,215,cs),
(294.014,344.164,o),
(228,520.847,o),
(228,713,cs)
);
},
{
closed = 1;
nodes = (
(1066.825,1116,o),
(1174.842,1049.196,o),
(1196,872,c),
(1278,872,l),
(1278,1217,l),
(1176,1217,l),
(1183,1143,l),
(1111,1193.667,o),
(1016,1227,o),
(916,1227,cs),
(756.008,1227,o),
(625.592,1160.212,o),
(541,1058.5,cs),
(455.355,955.522,o),
(414,827.536,o),
(414,709,cs),
(414,429.658,o),
(624.341,209,o),
(910,209,cs),
(967.333,209,o),
(1041.5,220.167,o),
(1115.5,251.5,cs),
(1189.5,282.833,o),
(1265,335.333,o),
(1325,418,c),
(1264,489,l),
(1187.471,396.637,o),
(1060.223,338,o),
(969,338,cs),
(752.47,338,o),
(606,508.358,o),
(606,733,cs),
(606,858.333,o),
(646,955,o),
(706,1019,cs),
(766,1083,o),
(845.333,1116,o),
(924,1116,cs)
);
}
);
userData = {
assembly = "PUSHB[ ]	/* 2 values pushed */
6 100
WCVTP[ ]	/* WriteCVTInPixels */
NPUSHB[ ]	/* 82 values pushed */
90 1 4 7 70 69 2 5 9 2 74 0 0 0 3 7 0 3 103 10 1 4 9 7 4 87 8 1 7 0 9 5 7 9 101 0 5 0 6 2 5 6 103 0 2 1 1 2 87 0 2 2 1 95 0 1 2 1 79 55 54 94 93 92 91 88 86 76 74 65 63 54 98 55 98 44 42 44 38 11 8 24
CALL[ ]	/* CallFunction */
PUSHB[ ]	/* 2 values pushed */
6 0
WCVTP[ ]	/* WriteCVTInPixels */";
};
width = 1796;
},
{
layerId = "D346AEB9-DD6D-429C-AFEE-90B4948468D3";
shapes = (
{
closed = 1;
nodes = (
(1075.827,1066,o),
(1177.286,1007.57,o),
(1199,842,c),
(1335,842,l),
(1335,1201,l),
(1179,1201,l),
(1179,1190,ls),
(1179,1182.667,o),
(1179.63,1151.222,o),
(1182,1137,c),
(1104.667,1193,o),
(1028,1208,o),
(936,1208,cs),
(782.738,1208,o),
(659.404,1139.518,o),
(581,1039,cs),
(506.887,943.983,o),
(464,819.378,o),
(464,693,cs),
(464,412.99,o),
(671.124,192,o),
(955,192,cs),
(1012.333,192,o),
(1087.667,204,o),
(1165,240,cs),
(1242.333,276,o),
(1322,334.667,o),
(1390,428,c),
(1293,521,l),
(1213,422.333,o),
(1116,371,o),
(1020,371,cs),
(822.155,371,o),
(708,528.08,o),
(708,715,cs),
(708,922.776,o),
(825.349,1066,o),
(968,1066,cs)
);
},
{
closed = 1;
nodes = (
(95,207.76,o),
(439.45,-146,o),
(941,-146,cs),
(1172.803,-146,o),
(1384.044,-53.456,o),
(1536,99.5,cs),
(1692.747,257.278,o),
(1780,467.366,o),
(1780,694,cs),
(1780,932.919,o),
(1693.137,1140.964,o),
(1547,1295,cs),
(1398.211,1451.831,o),
(1187.813,1546,o),
(944,1546,cs),
(702.656,1546,o),
(489.383,1451.891,o),
(337,1296.5,cs),
(181.186,1137.61,o),
(95,925.71,o),
(95,697,cs)
);
},
{
closed = 1;
nodes = (
(240,894.445,o),
(310.258,1076.737,o),
(433.5,1211,cs),
(557.19,1345.752,o),
(733.82,1428,o),
(941,1428,cs),
(1150.122,1428,o),
(1324.403,1346.16,o),
(1447,1210.5,cs),
(1567.459,1077.206,o),
(1637,899.517,o),
(1637,697,cs),
(1637,302.086,o),
(1370.78,-28,o),
(947,-28,cs),
(733.81,-28,o),
(553.228,53.795,o),
(430.5,186.5,cs),
(308.998,317.88,o),
(240,495.105,o),
(240,697,cs)
);
}
);
userData = {
assembly = "PUSHB[ ]	/* 2 values pushed */
6 100
WCVTP[ ]	/* WriteCVTInPixels */
NPUSHB[ ]	/* 86 values pushed */
40 34 2 0 3 14 13 2 1 4 2 74 0 4 0 1 0 4 1 126 0 5 0 8 3 5 8 103 0 3 9 1 0 4 3 0 103 0 1 0 2 7 1 2 103 0 7 6 6 7 87 0 7 7 6 95 0 6 7 6 79 1 0 93 91 81 79 69 67 55 53 42 41 32 30 20 18 11 9 0 46 1 46 10 8 20
CALL[ ]	/* CallFunction */
PUSHB[ ]	/* 2 values pushed */
6 0
WCVTP[ ]	/* WriteCVTInPixels */";
};
width = 1874;
}
);
note = copyright;
unicode = 169;
}
{
glyphname = ordfeminine;
layers = (
{
layerId = m001;
shapes = (
{
closed = 1;
nodes = (
(461.333,894.333,o),
(406,865,o),
(350,865,cs),
(336,866,ls),
(303.974,866,o),
(256,892.666,o),
(256,954,cs),
(256,1055.049,o),
(387.33,1102,o),
(511,1102,c),
(508,941,l),
(508,941,l)
);
},
{
closed = 1;
nodes = (
(144,1239.333,o),
(169,1206,o),
(209,1206,cs),
(258.334,1206,o),
(276,1244.14,o),
(276,1270,cs),
(276,1290,o),
(270.333,1306.667,o),
(259,1320,c),
(274.411,1363.665,o),
(325.725,1398,o),
(382,1398,cs),
(504.383,1398,o),
(512,1320.025,o),
(512,1236,cs),
(512,1166,l),
(332.174,1166,o),
(111,1096.025,o),
(111,931,cs),
(111,843,o),
(178.667,779,o),
(312,779,cs),
(397.333,779,o),
(462.333,814,o),
(513,870,c),
(524.155,825.379,o),
(551.396,783,o),
(623,783,cs),
(671.869,783,o),
(730.989,818.318,o),
(754,849,c),
(731,888,l),
(715.667,876.667,o),
(703.667,871,o),
(695,871,cs),
(676.333,871,o),
(661.833,880.833,o),
(651.5,900.5,cs),
(641.167,920.167,o),
(636.333,951.333,o),
(637,994,cs),
(639,1222,ls),
(639,1391.333,o),
(558,1467,o),
(410,1467,cs),
(260.164,1467,o),
(144,1373.937,o),
(144,1278,cs)
);
}
);
userData = {
assembly = "NPUSHB[ ]	/* 65 values pushed */
63 61 2 8 7 39 28 13 3 1 0 29 1 4 1 3 74 0 8 7 6 7 8 6 126 0 6 0 0 1 6 0 103 3 1 1 5 1 4 1 4 99 0 7 7 2 95 0 2 2 40 7 76 43 21 22 38 39 21 39 55 16 9 8 29
CALL[ ]	/* CallFunction */";
};
width = 838;
},
{
layerId = "D346AEB9-DD6D-429C-AFEE-90B4948468D3";
shapes = (
{
closed = 1;
nodes = (
(282,1010.317,o),
(357.405,1044.741,o),
(440,1053,c),
(440,954,l),
(406.667,920.667,o),
(373.333,904,o),
(340,904,cs),
(301.333,904,o),
(284.667,926,o),
(282,950,cs),
(282,955,l),
(282,955,l)
);
},
{
closed = 1;
nodes = (
(102,1209,o),
(136,1165,o),
(200,1165,cs),
(273.215,1165,o),
(303,1225.678,o),
(303,1267,cs),
(303,1284.333,o),
(298.667,1310,o),
(288,1326,c),
(306.667,1344.667,o),
(336.333,1353,o),
(363,1353,cs),
(434.25,1353,o),
(440,1292.468,o),
(440,1239,cs),
(440,1150,l),
(274.477,1137.267,o),
(72,1073.187,o),
(72,916,cs),
(72,810.667,o),
(143.667,752,o),
(273,752,cs),
(330.285,752,o),
(416.638,790.967,o),
(457,869,c),
(459,869,l),
(466.85,790.503,o),
(523.815,752,o),
(584,752,cs),
(644,752,o),
(707.667,791,o),
(749,847,c),
(709,907,l),
(694.333,896.333,o),
(684.667,896,o),
(674,896,cs),
(641.967,896,o),
(638,941.241,o),
(638,967,cs),
(638,1035.294,o),
(640,1115.733,o),
(640,1200,cs),
(640,1385.333,o),
(549.333,1467,o),
(388,1467,cs),
(226.71,1467,o),
(102,1371.94,o),
(102,1265,cs)
);
}
);
userData = {
assembly = "NPUSHB[ ]	/* 61 values pushed */
65 1 6 5 56 33 11 6 5 5 0 6 42 34 2 3 0 3 74 0 6 5 0 5 6 0 126 2 1 0 3 5 0 3 124 4 1 3 3 130 0 5 5 1 95 0 1 1 40 5 76 41 44 41 37 43 44 34 7 8 27
CALL[ ]	/* CallFunction */";
};
width = 790;
}
);
note = ordfeminine;
unicode = 170;
}
{
glyphname = guillemotleft;
kernLeft = guillemotleft;
kernRight = guillemotleft;
layers = (
{
layerId = m001;
shapes = (
{
closed = 1;
nodes = (
(110,279.333,o),
(218.667,69.667,o),
(360,-1,c),
(369.333,-2.333,o),
(390.667,13.333,o),
(384,24,cs),
(296.667,160.667,o),
(253,312,o),
(253,478,cs),
(253,646,o),
(293.333,796.667,o),
(374,930,c),
(375.333,931.333,o),
(375,934,o),
(373,938,cs),
(366.333,952,o),
(359,958,o),
(351,956,c),
(199,865.333,o),
(110,703.333,o),
(110,486,cs)
);
},
{
closed = 1;
nodes = (
(425,279.333,o),
(534,69.667,o),
(674,-1,c),
(686,-2.333,o),
(707.667,13.333,o),
(697,24,c),
(611.667,160,o),
(569,311.333,o),
(569,478,cs),
(569,644.667,o),
(609,795.333,o),
(689,930,cs),
(689.667,930.667,o),
(689,933.333,o),
(687,938,cs),
(682.333,952,o),
(676,958,o),
(668,956,c),
(514.667,865.333,o),
(425,703.333,o),
(425,486,cs)
);
}
);
userData = {
assembly = "PUSHB[ ]	/* 6 values pushed */
29 21 13 4 2 48
CALL[ ]	/* CallFunction */";
};
width = 797;
},
{
layerId = "D346AEB9-DD6D-429C-AFEE-90B4948468D3";
shapes = (
{
closed = 1;
nodes = (
(90,291.333,o),
(200.333,75.667,o),
(351,1,cs),
(354,0,l),
(357,-1,l),
(367.667,-2.333,o),
(379,2,o),
(391,12,cs),
(407,25.333,o),
(410.333,39.667,o),
(401,55,cs),
(315.667,188.333,o),
(273,336,o),
(273,498,cs),
(273,662,o),
(312.667,809.667,o),
(392,941,cs),
(396,949,o),
(395.667,957.667,o),
(391,967,cs),
(387,975,o),
(382.667,981.333,o),
(378,986,cs),
(369.333,995.333,o),
(359,998.667,o),
(347,996,cs),
(344,995,l),
(341,993,ls),
(182.333,899.667,o),
(90,730,o),
(90,506,cs)
);
},
{
closed = 1;
nodes = (
(710.333,949.333,o),
(709.667,957.333,o),
(705,966,c),
(696.333,990,o),
(682.667,1000,o),
(664,996,cs),
(661,995,l),
(658,993,ls),
(499.333,898.333,o),
(405,730,o),
(405,506,cs),
(405,292.667,o),
(515.667,75.667,o),
(665,1,cs),
(668,0,l),
(671,-1,ls),
(683,-3,o),
(695,1.333,o),
(707,12,cs),
(723,26,o),
(725,41,o),
(713,57,c),
(630.333,189,o),
(589,336.167,o),
(589,498.5,cs),
(589,660.833,o),
(628.333,808.667,o),
(707,942,c)
);
}
);
userData = {
assembly = "PUSHB[ ]	/* 6 values pushed */
42 30 18 6 2 48
CALL[ ]	/* CallFunction */";
};
width = 797;
}
);
note = guillemotleft;
unicode = 171;
}
{
glyphname = logicalnot;
layers = (
{
layerId = m001;
shapes = (
{
closed = 1;
nodes = (
(950,581,l),
(957,322,l),
(1062,322,l),
(1062,700,l),
(150,705,l),
(150,578,l),
(150,578,l)
);
}
);
userData = {
assembly = "MPPEM[ ]	/* MeasurePixelPerEm */
PUSHB[ ]	/* 1 value pushed */
11
LT[ ]	/* LessThan */
IF[ ]	/* If */
NPUSHB[ ]	/* 22 values pushed */
0 1 2 2 1 111 0 0 2 2 0 85 0 0 0 2 93 0 2 0 2 77
ELSE[ ]	/* Else */
NPUSHB[ ]	/* 21 values pushed */
0 1 2 1 132 0 0 2 2 0 85 0 0 0 2 93 0 2 0 2 77
EIF[ ]	/* EndIf */
PUSHB[ ]	/* 6 values pushed */
17 17 16 3 8 23
CALL[ ]	/* CallFunction */";
};
width = 1212;
},
{
layerId = "D346AEB9-DD6D-429C-AFEE-90B4948468D3";
shapes = (
{
closed = 1;
nodes = (
(865,544,l),
(871,306,l),
(1050,306,l),
(1050,736,l),
(129,741,l),
(129,541,l),
(129,541,l)
);
}
);
userData = {
assembly = "MPPEM[ ]	/* MeasurePixelPerEm */
PUSHB[ ]	/* 1 value pushed */
11
LT[ ]	/* LessThan */
IF[ ]	/* If */
NPUSHB[ ]	/* 22 values pushed */
0 1 2 2 1 111 0 0 2 2 0 85 0 0 0 2 93 0 2 0 2 77
ELSE[ ]	/* Else */
NPUSHB[ ]	/* 21 values pushed */
0 1 2 1 132 0 0 2 2 0 85 0 0 0 2 93 0 2 0 2 77
EIF[ ]	/* EndIf */
PUSHB[ ]	/* 6 values pushed */
17 17 16 3 8 23
CALL[ ]	/* CallFunction */";
};
width = 1190;
}
);
note = logicalnot;
unicode = 172;
}
{
glyphname = registered;
layers = (
{
layerId = m001;
shapes = (
{
closed = 1;
nodes = (
(1040,319,o),
(1296,575,o),
(1296,938,cs),
(1296,1305,o),
(1042,1565,o),
(682,1565,cs),
(319,1565,o),
(61,1305,o),
(61,938,cs),
(61,575,o),
(317,319,o),
(680,319,cs)
);
},
{
closed = 1;
nodes = (
(381,401,o),
(168,625,o),
(168,938,cs),
(168,1257,o),
(381,1483,o),
(680,1483,cs),
(981,1483,o),
(1194,1257,o),
(1194,938,cs),
(1194,625,o),
(983,401,o),
(684,401,cs)
);
},
{
closed = 1;
nodes = (
(666,606,l),
(664,676,l),
(586,674,l),
(586,698,o),
(588,705,o),
(588,758,cs),
(588,889,l),
(606,889,o),
(641,887,o),
(662,889,c),
(684,856,o),
(707,815,o),
(772,715,cs),
(809,657,o),
(842,616,o),
(870,604,c),
(1016,604,l),
(1016,662,l),
(967,664,o),
(946,682,o),
(844,840,cs),
(821,874,o),
(801,897,o),
(780,907,c),
(905,940,o),
(956,1018,o),
(958,1110,cs),
(961,1208,o),
(903,1311,o),
(700,1321,cs),
(647,1323,o),
(520,1321,o),
(385,1319,c),
(385,1247,l),
(463,1253,l),
(461,1239,o),
(459,1219,o),
(459,1171,cs),
(459,774,ls),
(459,698,o),
(449,668,o),
(385,666,c),
(385,606,l)
);
},
{
closed = 1;
nodes = (
(625,963,o),
(618,965,o),
(588,965,c),
(588,1139,ls),
(588,1208,o),
(610,1247,o),
(672,1247,cs),
(764,1247,o),
(821,1196,o),
(821,1112,cs),
(821,1008,o),
(756,963,o),
(651,963,cs)
);
}
);
userData = {
RMXScaler = {
height = 75;
verticalShift = 200;
weight = -5;
width = 75;
};
};
width = 1358;
},
{
background = {
shapes = (
{
closed = 1;
nodes = (
(1575,575,l),
(1817,1237,l),
(1821,1163,o),
(1823,1057,o),
(1825,1028,cs),
(1835,791,ls),
(1837,694,o),
(1802,688,o),
(1749,686,c),
(1749,588,l),
(2118,588,l),
(2118,700,l),
(2025,696,l),
(2030,717,o),
(2032,762,o),
(2032,805,cs),
(2015,1233,ls),
(2013,1329,o),
(2048,1333,o),
(2103,1337,c),
(2103,1434,l),
(1780,1434,l),
(1595,954,ls),
(1583,926,o),
(1548,825,o),
(1534,776,c),
(1516,836,o),
(1499,891,o),
(1468,965,cs),
(1268,1434,l),
(954,1434,l),
(954,1323,l),
(1047,1327,l),
(1042,1305,o),
(1040,1231,o),
(1030,791,cs),
(1030,694,o),
(1001,688,o),
(948,686,c),
(948,588,l),
(1241,588,l),
(1241,700,l),
(1149,696,l),
(1151,717,o),
(1157,762,o),
(1157,805,cs),
(1155,1004,l),
(1157,1077,o),
(1153,1153,o),
(1153,1235,c),
(1176,1139,o),
(1219,1018,o),
(1239,975,cs),
(1415,575,l)
);
},
{
closed = 1;
nodes = (
(700,588,l),
(700,700,l),
(604,696,l),
(606,719,o),
(608,762,o),
(608,807,cs),
(608,1323,l),
(676,1323,ls),
(768,1325,o),
(825,1262,o),
(825,1130,c),
(905,1130,l),
(899,1434,l),
(109,1434,l),
(102,1130,l),
(182,1130,l),
(182,1262,o),
(240,1323,o),
(332,1323,cs),
(397,1323,l),
(397,793,ls),
(397,694,o),
(365,690,o),
(311,686,c),
(311,588,l)
);
}
);
};
layerId = "D346AEB9-DD6D-429C-AFEE-90B4948468D3";
shapes = (
{
closed = 1;
nodes = (
(1083,281,o),
(1356,551,o),
(1356,922,cs),
(1356,1298,o),
(1085,1575,o),
(717,1575,cs),
(338,1575,o),
(61,1300,o),
(61,924,cs),
(61,553,o),
(336,281,o),
(713,281,cs)
);
},
{
closed = 1;
nodes = (
(403,375,o),
(174,606,o),
(174,924,cs),
(174,1243,o),
(401,1477,o),
(713,1477,cs),
(1018,1477,o),
(1243,1243,o),
(1243,924,cs),
(1243,606,o),
(1022,375,o),
(719,375,cs)
);
},
{
closed = 1;
nodes = (
(737,573,l),
(737,666,l),
(645,662,l),
(645,678,o),
(645,727,o),
(645,766,cs),
(645,842,l),
(659,842,o),
(672,842,o),
(688,842,c),
(702,817,o),
(719,782,o),
(778,666,cs),
(791,643,o),
(813,608,o),
(840,578,c),
(1018,578,l),
(1018,655,l),
(983,655,o),
(938,711,o),
(889,799,cs),
(866,840,o),
(850,858,o),
(827,866,c),
(940,899,o),
(991,969,o),
(991,1061,cs),
(991,1225,o),
(897,1296,o),
(692,1296,cs),
(584,1296,o),
(471,1298,o),
(399,1298,c),
(399,1208,l),
(479,1208,l),
(475,1190,o),
(473,1143,o),
(473,1104,cs),
(473,723,ls),
(473,668,o),
(459,655,o),
(399,651,c),
(399,573,l)
);
},
{
closed = 1;
nodes = (
(659,944,o),
(651,946,o),
(645,950,c),
(645,1143,ls),
(645,1176,o),
(664,1198,o),
(702,1198,cs),
(766,1198,o),
(805,1153,o),
(805,1079,cs),
(805,987,o),
(768,944,o),
(670,944,cs)
);
}
);
userData = {
RMXScaler = {
height = 75;
verticalShift = 200;
weight = -40;
width = 75;
};
};
width = 1417;
}
);
unicode = 174;
userData = {
RMXScaler = {
source = registered;
};
};
}
{
glyphname = plusminus;
layers = (
{
layerId = m001;
shapes = (
{
closed = 1;
nodes = (
(522,615,l),
(522,276,l),
(654,276,l),
(654,616,l),
(1045,618,l),
(1045,733,l),
(654,735,l),
(654,1057,l),
(522,1057,l),
(522,735,l),
(133,737,l),
(133,614,l),
(133,614,l)
);
},
{
closed = 1;
nodes = (
(133,112,l),
(133,6,l),
(1045,6,l),
(1045,121,l),
(1045,121,l)
);
}
);
userData = {
assembly = "NPUSHB[ ]	/* 42 values pushed */
2 1 0 5 1 3 4 0 3 101 0 4 4 1 93 0 1 1 35 75 0 7 7 6 93 0 6 6 33 6 76 17 17 17 17 17 17 17 16 8 8 28
CALL[ ]	/* CallFunction */";
};
width = 1180;
},
{
layerId = "D346AEB9-DD6D-429C-AFEE-90B4948468D3";
shapes = (
{
closed = 1;
nodes = (
(466,565,l),
(466,254,l),
(671,254,l),
(671,566,l),
(1030,568,l),
(1030,757,l),
(671,758,l),
(671,1054,l),
(466,1054,l),
(466,758,l),
(109,760,l),
(109,564,l),
(109,564,l)
);
},
{
closed = 1;
nodes = (
(109,181,l),
(109,1,l),
(1030,1,l),
(1030,189,l),
(1030,189,l)
);
}
);
userData = {
assembly = "NPUSHB[ ]	/* 42 values pushed */
2 1 0 5 1 3 4 0 3 101 0 4 4 1 93 0 1 1 35 75 0 7 7 6 93 0 6 6 33 6 76 17 17 17 17 17 17 17 16 8 8 28
CALL[ ]	/* CallFunction */";
};
width = 1139;
}
);
note = plusminus;
unicode = 177;
}
{
glyphname = twosuperior;
layers = (
{
layerId = m001;
shapes = (
{
closed = 1;
nodes = (
(250.35,1356.401,o),
(303.407,1393,o),
(367,1393,cs),
(451,1393,o),
(496,1334,o),
(496,1246,cs),
(496,1182.01,o),
(472.087,1095.164,o),
(365,1008,cs),
(236.454,903.556,o),
(125,796.217,o),
(125,627,c),
(649,627,l),
(649,820,l),
(606,820,l),
(606,745.567,o),
(555.177,736,o),
(488,736,cs),
(465.333,736,o),
(438,736.667,o),
(410,738,cs),
(237,742,l),
(253.667,800,o),
(307.667,862.333,o),
(399,929,cs),
(503,1005,o),
(563.5,1064.333,o),
(597.5,1115,cs),
(631.5,1165.667,o),
(639,1208,o),
(639,1248,cs),
(639,1397.981,o),
(521.224,1467,o),
(393,1467,cs),
(228.665,1467,o),
(139,1350.727,o),
(139,1270,cs),
(139,1232.667,o),
(162.333,1204,o),
(197,1204,cs),
(243.503,1204,o),
(258,1241.387,o),
(258,1264,cs),
(258,1284,o),
(251.667,1299.667,o),
(239,1311,c)
);
}
);
userData = {
assembly = "NPUSHB[ ]	/* 48 values pushed */
2 0 2 0 5 1 74 0 0 5 3 5 0 3 126 0 3 2 2 3 110 0 2 0 4 2 4 98 0 5 5 1 95 0 1 1 40 5 76 44 17 20 91 38 38 6 8 26
CALL[ ]	/* CallFunction */";
};
width = 788;
},
{
layerId = "D346AEB9-DD6D-429C-AFEE-90B4948468D3";
shapes = (
{
closed = 1;
nodes = (
(270.667,1332.333,o),
(303.333,1348,o),
(330,1348,cs),
(390,1348,o),
(427,1316,o),
(427,1232,cs),
(427,1170.55,o),
(398.93,1086.783,o),
(300,998,cs),
(190.547,901.895,o),
(97.612,803.486,o),
(95,618,c),
(666,618,l),
(677,862,l),
(580,862,l),
(580,795.333,o),
(556,784.667,o),
(520,786,cs),
(268,791,l),
(286.329,827.658,o),
(300.208,852.247,o),
(338,885,cs),
(490.202,1021.181,o),
(650,1104.306,o),
(650,1248,cs),
(650,1407.015,o),
(507.019,1467,o),
(367,1467,cs),
(190.931,1467,o),
(88,1351.422,o),
(88,1264,cs),
(88,1204,o),
(120,1156.667,o),
(184,1154,cs),
(257.916,1154,o),
(288,1211.312,o),
(288,1251,cs),
(288,1265.667,o),
(282.667,1296.333,o),
(260,1315,c)
);
}
);
userData = {
assembly = "NPUSHB[ ]	/* 47 values pushed */
0 1 0 5 1 74 0 0 5 3 5 0 3 126 0 3 2 2 3 110 0 2 0 4 2 4 98 0 5 5 1 95 0 1 1 40 5 76 44 17 18 46 38 39 6 8 26
CALL[ ]	/* CallFunction */";
};
width = 767;
}
);
note = twosuperior;
unicode = 178;
}
{
glyphname = threesuperior;
layers = (
{
layerId = m001;
shapes = (
{
closed = 1;
nodes = (
(539,621,o),
(649,729,o),
(649,866,cs),
(649,977,o),
(578,1071,o),
(436,1085,c),
(551,1114,o),
(608,1200,o),
(608,1268,cs),
(608,1389,o),
(514,1466,o),
(375,1466,cs),
(213,1466,o),
(131,1354,o),
(131,1280,cs),
(131,1243,o),
(152,1212,o),
(188,1212,cs),
(233,1210,o),
(250,1249,o),
(250,1272,cs),
(250,1288,o),
(244,1307,o),
(231,1317,c),
(240,1358,o),
(281,1397,o),
(346,1399,cs),
(449,1403,o),
(479,1323,o),
(479,1255,cs),
(479,1212,o),
(469,1108,o),
(309,1108,cs),
(301,1108,o),
(295,1108,o),
(287,1108,c),
(287,1042,l),
(311,1044,o),
(332,1044,o),
(342,1044,cs),
(485,1042,o),
(512,934,o),
(512,866,cs),
(512,782,o),
(459,694,o),
(352,694,cs),
(293,694,o),
(229,719,o),
(221,772,c),
(231,784,o),
(238,803,o),
(238,817,cs),
(238,848,o),
(221,885,o),
(172,883,cs),
(133,883,o),
(111,846,o),
(111,809,cs),
(111,723,o),
(195,629,o),
(352,625,cs)
);
}
);
width = 758;
},
{
layerId = "D346AEB9-DD6D-429C-AFEE-90B4948468D3";
shapes = (
{
closed = 1;
nodes = (
(571,598,o),
(686,717,o),
(680,866,cs),
(674,969,o),
(614,1044,o),
(485,1071,c),
(571,1094,o),
(641,1174,o),
(641,1251,cs),
(641,1397,o),
(520,1466,o),
(365,1466,cs),
(172,1466,o),
(86,1354,o),
(86,1276,cs),
(86,1214,o),
(125,1174,o),
(186,1171,cs),
(262,1169,o),
(287,1233,o),
(287,1268,cs),
(287,1282,o),
(281,1315,o),
(258,1331,c),
(268,1341,o),
(295,1356,o),
(332,1356,cs),
(399,1356,o),
(436,1313,o),
(436,1239,cs),
(438,1178,o),
(406,1100,o),
(303,1100,cs),
(281,1100,o),
(256,1102,o),
(231,1102,c),
(231,991,l),
(248,991,o),
(281,993,o),
(301,993,cs),
(410,993,o),
(465,932,o),
(465,846,cs),
(465,766,o),
(414,709,o),
(336,709,cs),
(313,709,o),
(266,713,o),
(246,739,c),
(268,758,o),
(274,797,o),
(274,811,cs),
(274,860,o),
(252,915,o),
(176,913,cs),
(115,911,o),
(74,856,o),
(74,797,cs),
(74,696,o),
(176,598,o),
(344,598,cs)
);
}
);
width = 748;
}
);
unicode = 179;
}
{
glyphname = mu;
layers = (
{
layerId = m001;
shapes = (
{
closed = 1;
nodes = (
(832,218,l),
(780.214,140.321,o),
(689.845,72,o),
(586,72,cs),
(496.667,72,o),
(442.167,116.667,o),
(409.5,190,cs),
(376.833,263.333,o),
(367,367,o),
(367,483,cs),
(367,1024,l),
(195,1024,l),
(193,-355,ls),
(193,-464.333,o),
(222,-532,o),
(298,-532,cs),
(361.414,-532,o),
(392,-473.725,o),
(392,-421,cs),
(392,-375.921,o),
(376.275,-334.736,o),
(359,-276,cs),
(338.398,-205.955,o),
(313.17,-72.368,o),
(293,133,c),
(349,29,o),
(421,-33,o),
(525,-33,cs),
(643.549,-33,o),
(762.838,34.142,o),
(841,115,c),
(856.507,52.972,o),
(894.598,-12,o),
(998,-12,cs),
(1090.214,-12,o),
(1168.215,51.067,o),
(1205,102,c),
(1182,133,l),
(1144.667,106.333,o),
(1121.333,98,o),
(1096,98,cs),
(1039.867,98,o),
(1004,148.238,o),
(1004,289,cs),
(1006,1024,l),
(832,1024,l),
(832,1024,l)
);
}
);
userData = {
assembly = "NPUSHB[ ]	/* 61 values pushed */
56 28 20 10 9 5 0 4 1 74 0 0 4 5 4 0 5 126 7 6 2 4 4 35 75 0 1 1 33 75 0 5 5 2 95 0 2 2 41 75 0 3 3 37 3 76 0 0 0 57 0 57 37 19 45 40 40 21 8 8 26
CALL[ ]	/* CallFunction */";
};
width = 1257;
},
{
layerId = "D346AEB9-DD6D-429C-AFEE-90B4948468D3";
shapes = (
{
closed = 1;
nodes = (
(749,237,l),
(698.333,181,o),
(626.667,161,o),
(576,161,cs),
(525.333,161,o),
(488,191.667,o),
(464,245,cs),
(440,298.333,o),
(428,374,o),
(428,466,cs),
(428,1024,l),
(173,1024,l),
(172,-341,ls),
(172,-468.24,o),
(210.604,-555,o),
(316,-555,cs),
(414.764,-555,o),
(447,-476.682,o),
(447,-400,cs),
(447,-359.175,o),
(429.393,-283.963,o),
(412.5,-199.5,cs),
(394.5,-109.5,o),
(375.333,-1.333,o),
(370,112,c),
(372,112,l),
(411.333,16.667,o),
(466.333,-31,o),
(537,-31,cs),
(613,-31,o),
(697,22.667,o),
(777,120,c),
(779,120,l),
(801.667,26.667,o),
(868,-11,o),
(948,-11,cs),
(1051.596,-11,o),
(1149.983,71.698,o),
(1197,137,c),
(1128,223,l),
(1096,193.667,o),
(1071.667,187,o),
(1053,187,cs),
(1000.404,187,o),
(1003,258.83,o),
(1003,291,cs),
(1005,1024,l),
(749,1024,l),
(749,1024,l)
);
}
);
userData = {
assembly = "NPUSHB[ ]	/* 53 values pushed */
51 9 2 0 4 24 18 10 3 1 0 2 74 7 6 2 4 4 35 75 5 1 0 0 1 95 2 1 1 1 33 75 0 3 3 45 3 76 0 0 0 52 0 52 37 21 43 37 40 21 8 8 26
CALL[ ]	/* CallFunction */";
};
width = 1253;
}
);
note = mu;
unicode = 181;
}
{
glyphname = paragraph;
layers = (
{
layerId = m001;
shapes = (
{
closed = 1;
nodes = (
(496,-522,l),
(502,1343,l),
(680,1350,l),
(676,-522,l),
(819,-522,l),
(823,1434,l),
(358,1434,ls),
(213,1434,o),
(68,1331,o),
(68,1137,cs),
(68,926,o),
(221,848,o),
(356,838,c),
(352,-522,l)
);
}
);
width = 1026;
},
{
layerId = "D346AEB9-DD6D-429C-AFEE-90B4948468D3";
shapes = (
{
closed = 1;
nodes = (
(569,-522,l),
(573,1290,l),
(766,1292,l),
(762,-522,l),
(989,-522,l),
(993,1434,l),
(395,1434,ls),
(238,1434,o),
(84,1335,o),
(84,1124,cs),
(84,922,o),
(213,846,o),
(344,821,c),
(340,-522,l)
);
}
);
width = 1174;
}
);
unicode = 182;
}
{
glyphname = periodcentered;
layers = (
{
layerId = m001;
shapes = (
{
alignment = -1;
pos = (6,573);
ref = period;
}
);
userData = {
assembly = "PUSHB[ ]	/* 2 values pushed */
0 1
PUSHW[ ]	/* 1 value pushed */
573
PUSHB[ ]	/* 1 value pushed */
51
CALL[ ]	/* CallFunction */";
};
width = 512;
},
{
layerId = "D346AEB9-DD6D-429C-AFEE-90B4948468D3";
shapes = (
{
closed = 1;
nodes = (
(380,784.901,o),
(320.612,860,o),
(232,860,cs),
(153.467,860,o),
(83,789.858,o),
(83,699,cs),
(83,611.005,o),
(144.327,540,o),
(235,540,cs),
(322.583,540,o),
(380,610.883,o),
(380,699,cs)
);
}
);
userData = {
assembly = "NPUSHB[ ]	/* 21 values pushed */
0 1 0 0 1 87 0 1 1 0 95 0 0 1 0 79 40 36 2 8 22
CALL[ ]	/* CallFunction */";
};
width = 463;
}
);
note = periodcentered;
unicode = 183;
}
{
glyphname = onesuperior;
layers = (
{
layerId = m001;
shapes = (
{
closed = 1;
nodes = (
(473,616,l),
(473,686,l),
(438,684,o),
(403,684,o),
(369,682,c),
(373,705,o),
(373,731,o),
(373,762,cs),
(371,1466,l),
(319,1466,l),
(92,1300,l),
(125,1243,l),
(256,1319,l),
(256,825,ls),
(256,741,o),
(240,674,o),
(156,674,c),
(156,616,l)
);
}
);
width = 580;
},
{
layerId = "D346AEB9-DD6D-429C-AFEE-90B4948468D3";
shapes = (
{
closed = 1;
nodes = (
(498,616,l),
(498,707,l),
(479,707,o),
(434,707,o),
(410,705,c),
(412,725,o),
(414,768,o),
(414,809,cs),
(414,1466,l),
(342,1466,l),
(43,1272,l),
(84,1192,l),
(213,1268,l),
(213,797,ls),
(213,702,o),
(184,696,o),
(131,694,c),
(131,616,l)
);
}
);
width = 569;
}
);
unicode = 185;
}
{
glyphname = ordmasculine;
layers = (
{
background = {
shapes = (
{
closed = 1;
nodes = (
(623,778,o),
(764,926,o),
(762,1133,cs),
(760,1329,o),
(623,1466,o),
(434,1466,cs),
(242,1466,o),
(98,1311,o),
(98,1108,cs),
(98,915,o),
(242,778,o),
(428,778,cs)
);
},
{
closed = 1;
nodes = (
(309,848,o),
(248,985,o),
(248,1145,cs),
(248,1284,o),
(311,1393,o),
(426,1399,cs),
(563,1403,o),
(618,1253,o),
(618,1102,cs),
(618,965,o),
(557,854,o),
(444,852,cs)
);
}
);
};
layerId = m001;
shapes = (
{
closed = 1;
nodes = (
(623,778,o),
(764,926,o),
(762,1133,cs),
(760,1329,o),
(623,1466,o),
(434,1466,cs),
(242,1466,o),
(98,1311,o),
(98,1108,cs),
(98,915,o),
(242,778,o),
(428,778,cs)
);
},
{
closed = 1;
nodes = (
(309,848,o),
(248,985,o),
(248,1145,cs),
(248,1284,o),
(311,1393,o),
(426,1399,cs),
(563,1403,o),
(618,1253,o),
(618,1102,cs),
(618,965,o),
(557,854,o),
(444,852,cs)
);
}
);
width = 858;
},
{
background = {
shapes = (
{
closed = 1;
nodes = (
(590,745,o),
(715,899,o),
(713,1116,cs),
(711,1323,o),
(590,1466,o),
(391,1466,cs),
(188,1466,o),
(61,1305,o),
(61,1092,cs),
(61,891,o),
(188,745,o),
(385,745,cs)
);
},
{
closed = 1;
nodes = (
(315,858,o),
(281,961,o),
(281,1126,cs),
(281,1276,o),
(322,1352,o),
(387,1356,cs),
(469,1360,o),
(500,1249,o),
(500,1087,cs),
(500,940,o),
(461,862,o),
(395,860,cs)
);
}
);
};
layerId = "D346AEB9-DD6D-429C-AFEE-90B4948468D3";
shapes = (
{
closed = 1;
nodes = (
(590,745,o),
(715,899,o),
(713,1116,cs),
(711,1323,o),
(590,1466,o),
(391,1466,cs),
(188,1466,o),
(61,1305,o),
(61,1092,cs),
(61,891,o),
(188,745,o),
(385,745,cs)
);
},
{
closed = 1;
nodes = (
(315,858,o),
(281,961,o),
(281,1126,cs),
(281,1276,o),
(322,1352,o),
(387,1356,cs),
(469,1360,o),
(500,1249,o),
(500,1087,cs),
(500,940,o),
(461,862,o),
(395,860,cs)
);
}
);
width = 774;
}
);
unicode = 186;
}
{
glyphname = guillemetright;
layers = (
{
background = {
shapes = (
{
closed = 1;
nodes = (
(687,278,o),
(578,69,o),
(437,-1,cs),
(431,-2,o),
(426,1,o),
(419,7,cs),
(412,13,o),
(410,19,o),
(413,24,cs),
(500,160,o),
(544,311,o),
(544,478,cs),
(544,645,o),
(504,796,o),
(423,930,cs),
(422,931,o),
(422,934,o),
(424,938,cs),
(431,952,o),
(437,958,o),
(446,956,cs),
(594,868,o),
(687,709,o),
(687,486,cs)
);
},
{
closed = 1;
nodes = (
(372,279,o),
(263,69,o),
(123,-1,cs),
(117,-2,o),
(110,1,o),
(103,7,cs),
(96,13,o),
(95,19,o),
(100,24,cs),
(186,161,o),
(228,312,o),
(228,478,cs),
(228,644,o),
(188,795,o),
(108,930,cs),
(107,931,o),
(108,934,o),
(110,938,cs),
(115,952,o),
(120,958,o),
(129,956,cs),
(277,868,o),
(372,709,o),
(372,486,cs)
);
}
);
};
layerId = m001;
shapes = (
{
closed = 1;
nodes = (
(686,278,o),
(577,69,o),
(436,-1,cs),
(430,-2,o),
(425,1,o),
(418,7,cs),
(411,13,o),
(409,19,o),
(412,24,cs),
(499,160,o),
(543,311,o),
(543,478,cs),
(543,645,o),
(503,796,o),
(422,930,cs),
(421,931,o),
(421,934,o),
(423,938,cs),
(430,952,o),
(436,958,o),
(445,956,cs),
(593,868,o),
(686,709,o),
(686,486,cs)
);
},
{
closed = 1;
nodes = (
(371,278,o),
(262,69,o),
(121,-1,cs),
(115,-2,o),
(110,1,o),
(103,7,cs),
(96,13,o),
(94,19,o),
(97,24,cs),
(184,160,o),
(228,311,o),
(228,478,cs),
(228,645,o),
(188,796,o),
(107,930,cs),
(106,931,o),
(106,934,o),
(108,938,cs),
(115,952,o),
(121,958,o),
(130,956,cs),
(278,868,o),
(371,709,o),
(371,486,cs)
);
}
);
width = 797;
},
{
background = {
shapes = (
{
closed = 1;
nodes = (
(707,292.226,o),
(596.468,75.84,o),
(445.894,1.086,cs),
(443.226,-0.238,l),
(440.288,-0.728,ls),
(424.555,-3.351,o),
(413.159,5.665,o),
(405.984,11.815,cs),
(396.397,20.032,o),
(385.408,36.887,o),
(395.998,54.536,cs),
(481.31,187.896,o),
(524,334.454,o),
(524,498,cs),
(524,662.702,o),
(485.878,806.972,o),
(404.909,941.272,cs),
(398.986,953.243,o),
(403.263,961.247,o),
(406.111,966.944,cs),
(409.629,973.979,o),
(413.211,980.292,o),
(418.836,985.954,cs),
(426.386,993.553,o),
(438.646,998.122,o),
(450.339,995.523,cs),
(453.467,994.828,l),
(456.222,993.19,ls),
(610.68,901.351,o),
(707,734.812,o),
(707,506,cs)
);
},
{
closed = 1;
nodes = (
(83.61,956.998,o),
(91.276,965.224,o),
(91.575,965.86,cs),
(96.717,979.747,o),
(109.192,1000.89,o),
(133.339,995.523,cs),
(136.467,994.828,l),
(139.222,993.19,ls),
(293.568,901.417,o),
(392,734.966,o),
(392,506,cs),
(392,293.226,o),
(281.524,75.901,o),
(131.944,1.111,cs),
(129.255,-0.233,l),
(126.288,-0.728,ls),
(111.209,-3.241,o),
(98.958,4.123,o),
(89.984,11.815,cs),
(78.669,21.514,o),
(71.746,40.199,o),
(84.231,56.502,cs),
(167.243,189.411,o),
(208,336.194,o),
(208,498,cs),
(208,660.424,o),
(167.996,809.191,o),
(89.682,941.687,cs)
);
}
);
};
layerId = "D346AEB9-DD6D-429C-AFEE-90B4948468D3";
shapes = (
{
closed = 1;
nodes = (
(706,292,o),
(595,76,o),
(445,1,cs),
(432,-5,o),
(420,-1,o),
(405,12,cs),
(395,20,o),
(384,37,o),
(395,55,cs),
(480,188,o),
(523,334,o),
(523,498,cs),
(523,663,o),
(486,806,o),
(404,941,cs),
(401,948,o),
(402,960,o),
(405,967,cs),
(416,989,o),
(434,1006,o),
(455,993,cs),
(610,901,o),
(706,735,o),
(706,506,cs)
);
},
{
closed = 1;
nodes = (
(391,292,o),
(280,76,o),
(130,1,cs),
(117,-5,o),
(105,-1,o),
(90,12,cs),
(80,20,o),
(69,37,o),
(80,55,cs),
(165,188,o),
(208,334,o),
(208,498,cs),
(208,663,o),
(171,806,o),
(89,941,cs),
(86,948,o),
(87,960,o),
(90,967,cs),
(101,989,o),
(119,1006,o),
(140,993,cs),
(295,901,o),
(391,735,o),
(391,506,cs)
);
}
);
width = 797;
}
);
unicode = 187;
}
{
color = 4;
glyphname = Atilde;
kernLeft = A;
kernRight = A;
layers = (
{
background = {
anchors = (
{
name = bottom;
pos = (641,0);
},
{
name = ogonek;
pos = (1153,0);
},
{
name = top;
pos = (633,1864);
}
);
shapes = (
{
closed = 1;
nodes = (
(371,0,l),
(371,90,l),
(317,88,o),
(264,84,o),
(211,82,c),
(229,127,o),
(242,158,o),
(262,223,c),
(334,442,l),
(866,455,l),
(938,262,ls),
(967,186,o),
(991,72,o),
(838,68,c),
(838,0,l),
(1307,0,l),
(1307,90,l),
(1260,88,o),
(1214,84,o),
(1167,82,c),
(1171,143,o),
(1137,250,o),
(1114,307,cs),
(657,1473,l),
(608,1473,l),
(186,324,ls),
(129,172,o),
(111,68,o),
(-12,68,c),
(-12,0,l)
);
},
{
closed = 1;
nodes = (
(510,942,l),
(539,1020,o),
(567,1096,o),
(596,1174,c),
(600,1174,l),
(631,1090,o),
(662,1006,o),
(692,922,c),
(838,530,l),
(365,530,l)
);
},
{
closed = 1;
nodes = (
(963,1853,l),
(922,1782,o),
(870,1720,o),
(797,1720,cs),
(686,1720,o),
(631,1868,o),
(469,1864,cs),
(383,1862,o),
(285,1772,o),
(238,1653,c),
(307,1614,l),
(358,1690,o),
(399,1737,o),
(459,1737,cs),
(555,1737,o),
(627,1591,o),
(784,1591,cs),
(874,1591,o),
(971,1653,o),
(1028,1821,c)
);
}
);
};
layerId = m001;
shapes = (
{
ref = A;
},
{
pos = (146,0);
ref = tildecomb.case;
}
);
width = 1282;
},
{
background = {
anchors = (
{
name = bottom;
pos = (684,0);
},
{
name = ogonek;
pos = (1231,0);
},
{
name = top;
pos = (674,1954);
}
);
shapes = (
{
closed = 1;
nodes = (
(446,0,l),
(446,164,l),
(418,164,o),
(344,162,o),
(301,158,c),
(324,205,o),
(352,287,o),
(367,324,cs),
(399,420,l),
(844,428,l),
(885,315,ls),
(924,213,o),
(922,135,o),
(809,135,c),
(809,0,l),
(1360,0,l),
(1360,158,l),
(1331,158,o),
(1286,156,o),
(1241,152,c),
(1235,213,o),
(1200,313,o),
(1184,354,cs),
(748,1470,l),
(604,1470,l),
(205,375,ls),
(160,252,o),
(123,141,o),
(8,141,c),
(8,0,l)
);
},
{
closed = 1;
nodes = (
(543,840,ls),
(588,967,o),
(608,1063,o),
(618,1110,c),
(621,1110,l),
(633,1034,o),
(664,928,o),
(698,829,cs),
(793,573,l),
(451,573,l)
);
},
{
closed = 1;
nodes = (
(987,1954,l),
(948,1876,o),
(874,1821,o),
(821,1821,cs),
(717,1821,o),
(655,1921,o),
(520,1921,cs),
(422,1921,o),
(303,1853,o),
(242,1702,c),
(356,1626,l),
(410,1708,o),
(477,1733,o),
(528,1733,cs),
(641,1733,o),
(705,1630,o),
(831,1630,cs),
(915,1630,o),
(1030,1677,o),
(1104,1888,c)
);
}
);
};
layerId = "D346AEB9-DD6D-429C-AFEE-90B4948468D3";
shapes = (
{
ref = A;
},
{
pos = (150,0);
ref = tildecomb.case;
}
);
width = 1368;
}
);
unicode = 195;
}
{
color = 4;
glyphname = Adieresis;
kernLeft = A;
kernRight = A;
layers = (
{
background = {
anchors = (
{
name = bottom;
pos = (641,0);
},
{
name = ogonek;
pos = (1153,0);
},
{
name = top;
pos = (633,1849);
}
);
shapes = (
{
closed = 1;
nodes = (
(371,0,l),
(371,90,l),
(317,88,o),
(264,84,o),
(211,82,c),
(229,127,o),
(242,158,o),
(262,223,c),
(334,442,l),
(866,455,l),
(938,262,ls),
(967,186,o),
(991,72,o),
(838,68,c),
(838,0,l),
(1307,0,l),
(1307,90,l),
(1260,88,o),
(1214,84,o),
(1167,82,c),
(1171,143,o),
(1137,250,o),
(1114,307,cs),
(657,1473,l),
(608,1473,l),
(186,324,ls),
(129,172,o),
(111,68,o),
(-12,68,c),
(-12,0,l)
);
},
{
closed = 1;
nodes = (
(510,942,l),
(539,1020,o),
(567,1096,o),
(596,1174,c),
(600,1174,l),
(631,1090,o),
(662,1006,o),
(692,922,c),
(838,530,l),
(365,530,l)
);
},
{
closed = 1;
nodes = (
(508,1589,o),
(561,1647,o),
(561,1718,cs),
(561,1792,o),
(512,1849,o),
(451,1849,cs),
(391,1849,o),
(338,1792,o),
(338,1718,cs),
(338,1647,o),
(389,1589,o),
(449,1589,cs)
);
},
{
closed = 1;
nodes = (
(877,1589,o),
(928,1647,o),
(928,1718,cs),
(928,1792,o),
(881,1849,o),
(819,1849,cs),
(758,1849,o),
(707,1792,o),
(707,1718,cs),
(707,1647,o),
(758,1589,o),
(817,1589,cs)
);
}
);
};
layerId = m001;
shapes = (
{
ref = A;
},
{
pos = (246,0);
ref = dieresiscomb.case;
}
);
width = 1282;
},
{
background = {
anchors = (
{
name = bottom;
pos = (684,0);
},
{
name = ogonek;
pos = (1231,0);
},
{
name = top;
pos = (674,1944);
}
);
shapes = (
{
closed = 1;
nodes = (
(446,0,l),
(446,164,l),
(418,164,o),
(344,162,o),
(301,158,c),
(324,205,o),
(352,287,o),
(367,324,cs),
(399,420,l),
(844,428,l),
(885,315,ls),
(924,213,o),
(922,135,o),
(809,135,c),
(809,0,l),
(1360,0,l),
(1360,158,l),
(1331,158,o),
(1286,156,o),
(1241,152,c),
(1235,213,o),
(1200,313,o),
(1184,354,cs),
(748,1470,l),
(604,1470,l),
(205,375,ls),
(160,252,o),
(123,141,o),
(8,141,c),
(8,0,l)
);
},
{
closed = 1;
nodes = (
(543,840,ls),
(588,967,o),
(608,1063,o),
(618,1110,c),
(621,1110,l),
(633,1034,o),
(664,928,o),
(698,829,cs),
(793,573,l),
(451,573,l)
);
},
{
closed = 1;
nodes = (
(569,1632,o),
(633,1700,o),
(633,1786,cs),
(633,1872,o),
(573,1944,o),
(498,1944,cs),
(424,1944,o),
(358,1872,o),
(358,1786,cs),
(358,1700,o),
(422,1632,o),
(496,1632,cs)
);
},
{
closed = 1;
nodes = (
(926,1632,o),
(989,1700,o),
(989,1786,cs),
(989,1872,o),
(932,1944,o),
(854,1944,cs),
(782,1944,o),
(717,1872,o),
(717,1786,cs),
(717,1700,o),
(780,1632,o),
(852,1632,cs)
);
}
);
};
layerId = "D346AEB9-DD6D-429C-AFEE-90B4948468D3";
shapes = (
{
ref = A;
},
{
pos = (271,0);
ref = dieresiscomb.case;
}
);
width = 1368;
}
);
unicode = 196;
}
{
color = 4;
glyphname = Aring;
kernLeft = A;
kernRight = A;
layers = (
{
background = {
anchors = (
{
name = bottom;
pos = (641,0);
},
{
name = ogonek;
pos = (1153,0);
},
{
name = top;
pos = (633,1917);
}
);
shapes = (
{
closed = 1;
nodes = (
(371,0,l),
(371,90,l),
(317,88,o),
(264,84,o),
(211,82,c),
(229,127,o),
(242,158,o),
(262,223,c),
(334,442,l),
(866,455,l),
(938,262,ls),
(967,186,o),
(991,72,o),
(838,68,c),
(838,0,l),
(1307,0,l),
(1307,90,l),
(1260,88,o),
(1214,84,o),
(1167,82,c),
(1171,143,o),
(1137,250,o),
(1114,307,cs),
(657,1473,l),
(608,1473,l),
(186,324,ls),
(129,172,o),
(111,68,o),
(-12,68,c),
(-12,0,l)
);
},
{
closed = 1;
nodes = (
(510,942,l),
(539,1020,o),
(567,1096,o),
(596,1174,c),
(600,1174,l),
(631,1090,o),
(662,1006,o),
(692,922,c),
(838,530,l),
(365,530,l)
);
},
{
closed = 1;
nodes = (
(750,1464,o),
(870,1556,o),
(866,1704,cs),
(860,1851,o),
(741,1917,o),
(631,1917,cs),
(514,1917,o),
(395,1821,o),
(399,1679,cs),
(406,1530,o),
(520,1464,o),
(635,1464,cs)
);
},
{
closed = 1;
nodes = (
(567,1534,o),
(518,1599,o),
(518,1700,cs),
(518,1786,o),
(561,1843,o),
(625,1847,cs),
(694,1851,o),
(748,1792,o),
(748,1675,cs),
(748,1591,o),
(698,1538,o),
(643,1536,cs)
);
}
);
};
layerId = m001;
shapes = (
{
ref = A;
},
{
pos = (305,0);
ref = ringcomb.case;
}
);
width = 1282;
},
{
background = {
anchors = (
{
name = bottom;
pos = (684,0);
},
{
name = ogonek;
pos = (1231,0);
},
{
name = top;
pos = (674,2060);
}
);
shapes = (
{
closed = 1;
nodes = (
(446,0,l),
(446,164,l),
(418,164,o),
(344,162,o),
(301,158,c),
(324,205,o),
(352,287,o),
(367,324,cs),
(399,420,l),
(844,428,l),
(885,315,ls),
(924,213,o),
(922,135,o),
(809,135,c),
(809,0,l),
(1360,0,l),
(1360,158,l),
(1331,158,o),
(1286,156,o),
(1241,152,c),
(1235,213,o),
(1200,313,o),
(1184,354,cs),
(748,1470,l),
(604,1470,l),
(205,375,ls),
(160,252,o),
(123,141,o),
(8,141,c),
(8,0,l)
);
},
{
closed = 1;
nodes = (
(543,840,ls),
(588,967,o),
(608,1063,o),
(618,1110,c),
(621,1110,l),
(633,1034,o),
(664,928,o),
(698,829,cs),
(793,573,l),
(451,573,l)
);
},
{
closed = 1;
nodes = (
(807,1538,o),
(952,1640,o),
(948,1812,cs),
(940,1982,o),
(799,2060,o),
(674,2060,cs),
(539,2060,o),
(395,1950,o),
(401,1786,cs),
(408,1614,o),
(545,1538,o),
(676,1538,cs)
);
},
{
closed = 1;
nodes = (
(627,1645,o),
(584,1704,o),
(584,1812,cs),
(584,1896,o),
(616,1948,o),
(666,1952,cs),
(725,1958,o),
(766,1894,o),
(766,1776,cs),
(766,1692,o),
(733,1651,o),
(688,1649,cs)
);
}
);
};
layerId = "D346AEB9-DD6D-429C-AFEE-90B4948468D3";
shapes = (
{
ref = A;
},
{
pos = (312,0);
ref = ringcomb.case;
}
);
width = 1368;
}
);
unicode = 197;
}
{
glyphname = AE;
kernLeft = A;
kernRight = E;
layers = (
{
background = {
shapes = (
{
closed = 1;
nodes = (
(340,0,l),
(340,90,l),
(184,82,l),
(231,152,o),
(279,223,o),
(326,293,c),
(426,442,l),
(924,453,l),
(924,266,ls),
(924,115,o),
(895,82,o),
(782,74,c),
(782,0,l),
(1839,0,l),
(1851,399,l),
(1782,399,l),
(1782,162,o),
(1673,74,o),
(1499,76,cs),
(1096,82,l),
(1100,117,o),
(1102,168,o),
(1102,242,cs),
(1102,705,l),
(1251,711,ls),
(1425,717,o),
(1495,711,o),
(1495,530,c),
(1563,530,l),
(1563,961,l),
(1473,961,l),
(1487,784,l),
(1102,786,l),
(1102,1114,ls),
(1102,1280,o),
(1104,1354,o),
(1257,1358,cs),
(1434,1362,ls),
(1587,1366,o),
(1710,1317,o),
(1710,1075,c),
(1778,1075,l),
(1767,1434,l),
(741,1434,l),
(741,1343,l),
(926,1352,l),
(186,256,ls),
(131,174,o),
(66,68,o),
(-43,68,c),
(-43,0,l)
);
},
{
closed = 1;
nodes = (
(924,1192,l),
(924,530,l),
(483,530,l)
);
}
);
};
guides = (
{
angle = 90;
pos = (451,400);
}
);
layerId = m001;
shapes = (
{
closed = 1;
nodes = (
(340,0,l),
(340,90,l),
(184,82,l),
(231,152,o),
(279,223,o),
(326,293,c),
(426,442,l),
(924,453,l),
(924,266,ls),
(924,115,o),
(895,82,o),
(782,74,c),
(782,0,l),
(1839,0,l),
(1851,399,l),
(1782,399,l),
(1782,162,o),
(1673,74,o),
(1499,76,cs),
(1096,82,l),
(1100,117,o),
(1102,168,o),
(1102,242,cs),
(1102,705,l),
(1251,711,ls),
(1425,717,o),
(1495,711,o),
(1495,530,c),
(1563,530,l),
(1563,961,l),
(1473,961,l),
(1487,784,l),
(1102,786,l),
(1102,1114,ls),
(1102,1280,o),
(1104,1354,o),
(1257,1358,cs),
(1434,1362,ls),
(1587,1366,o),
(1710,1317,o),
(1710,1075,c),
(1778,1075,l),
(1767,1434,l),
(741,1434,l),
(741,1343,l),
(926,1352,l),
(186,256,ls),
(131,174,o),
(66,68,o),
(-43,68,c),
(-43,0,l)
);
},
{
closed = 1;
nodes = (
(924,1192,l),
(924,530,l),
(483,530,l)
);
}
);
width = 1944;
},
{
background = {
shapes = (
{
closed = 1;
nodes = (
(446,0,l),
(446,158,l),
(283,154,l),
(326,186,o),
(369,246,o),
(412,309,cs),
(483,414,l),
(885,424,l),
(885,313,ls),
(885,147,o),
(831,139,o),
(739,135,c),
(739,0,l),
(1821,0,l),
(1833,451,l),
(1698,451,l),
(1698,229,o),
(1569,156,o),
(1448,156,cs),
(1174,156,l),
(1178,190,o),
(1182,262,o),
(1182,336,cs),
(1182,672,l),
(1235,674,ls),
(1346,676,o),
(1436,666,o),
(1436,494,c),
(1571,494,l),
(1571,991,l),
(1413,991,l),
(1421,813,l),
(1182,813,l),
(1182,1120,ls),
(1182,1280,o),
(1233,1296,o),
(1319,1298,cs),
(1393,1300,ls),
(1503,1305,o),
(1640,1260,o),
(1640,1036,c),
(1776,1036,l),
(1763,1434,l),
(739,1434,l),
(739,1276,l),
(893,1282,l),
(231,350,ls),
(164,254,o),
(84,135,o),
(-12,135,c),
(-12,0,l)
);
},
{
closed = 1;
nodes = (
(885,1024,l),
(885,565,l),
(584,565,l)
);
}
);
};
guides = (
{
angle = 90;
pos = (432,341);
}
);
layerId = "D346AEB9-DD6D-429C-AFEE-90B4948468D3";
shapes = (
{
closed = 1;
nodes = (
(446,0,l),
(446,158,l),
(283,154,l),
(326,186,o),
(369,246,o),
(412,309,cs),
(483,414,l),
(885,424,l),
(885,313,ls),
(885,147,o),
(831,139,o),
(739,135,c),
(739,0,l),
(1821,0,l),
(1833,451,l),
(1698,451,l),
(1698,229,o),
(1569,156,o),
(1448,156,cs),
(1174,156,l),
(1178,190,o),
(1182,262,o),
(1182,336,cs),
(1182,672,l),
(1235,674,ls),
(1346,676,o),
(1436,666,o),
(1436,494,c),
(1571,494,l),
(1571,991,l),
(1413,991,l),
(1421,813,l),
(1182,813,l),
(1182,1120,ls),
(1182,1280,o),
(1233,1296,o),
(1319,1298,cs),
(1393,1300,ls),
(1503,1305,o),
(1640,1260,o),
(1640,1036,c),
(1776,1036,l),
(1763,1434,l),
(739,1434,l),
(739,1276,l),
(893,1282,l),
(231,350,ls),
(164,254,o),
(84,135,o),
(-12,135,c),
(-12,0,l)
);
},
{
closed = 1;
nodes = (
(885,1024,l),
(885,565,l),
(584,565,l)
);
}
);
width = 1915;
}
);
unicode = 198;
}
{
glyphname = Ccedilla;
kernLeft = O;
kernRight = C;
layers = (
{
background = {
anchors = (
{
name = bottom;
pos = (889,-532);
},
{
name = top;
pos = (797,1434);
}
);
shapes = (
{
closed = 1;
nodes = (
(1319,977,l),
(1319,1452,l),
(1208,1452,l),
(1219,1341,l),
(1092,1425,o),
(958,1466,o),
(805,1466,cs),
(328,1466,o),
(94,1079,o),
(94,694,cs),
(94,287,o),
(379,-33,o),
(791,-33,cs),
(958,-33,o),
(1194,23,o),
(1370,266,c),
(1317,309,l),
(1206,156,o),
(1022,74,o),
(844,74,cs),
(541,74,o),
(295,338,o),
(295,725,cs),
(295,1126,o),
(528,1382,o),
(819,1382,cs),
(1057,1382,o),
(1217,1233,o),
(1245,977,c)
);
},
{
closed = 1;
nodes = (
(823,-512,o),
(1106,-436,o),
(1106,-270,cs),
(1106,-188,o),
(1053,-125,o),
(948,-125,cs),
(915,-125,o),
(854,-133,o),
(815,-158,c),
(870,16,l),
(752,16,l),
(692,-217,l),
(766,-252,l),
(827,-213,o),
(922,-205,o),
(922,-289,cs),
(922,-369,o),
(811,-430,o),
(672,-455,c),
(684,-532,l)
);
}
);
};
layerId = m001;
shapes = (
{
ref = C;
},
{
pos = (580,0);
ref = cedillacomb.case;
}
);
width = 1432;
},
{
background = {
anchors = (
{
name = bottom;
pos = (831,-563);
},
{
name = top;
pos = (825,1434);
}
);
shapes = (
{
closed = 1;
nodes = (
(1292,975,l),
(1292,1452,l),
(1135,1452,l),
(1143,1366,l),
(1030,1432,o),
(895,1466,o),
(788,1466,cs),
(311,1466,o),
(72,1069,o),
(72,696,cs),
(72,289,o),
(352,-33,o),
(774,-33,cs),
(942,-33,o),
(1190,18,o),
(1391,295,c),
(1292,385,l),
(1178,227,o),
(995,133,o),
(823,133,cs),
(549,133,o),
(393,385,o),
(393,737,cs),
(393,1032,o),
(528,1319,o),
(815,1319,cs),
(1006,1317,o),
(1122,1202,o),
(1159,975,c)
);
},
{
closed = 1;
nodes = (
(762,-541,o),
(1075,-449,o),
(1075,-256,cs),
(1075,-160,o),
(1006,-109,o),
(920,-106,cs),
(883,-104,o),
(813,-121,o),
(780,-137,c),
(838,20,l),
(672,20,l),
(610,-248,l),
(694,-279,l),
(735,-246,o),
(834,-223,o),
(834,-299,cs),
(834,-383,o),
(653,-438,o),
(588,-451,c),
(604,-563,l)
);
}
);
};
layerId = "D346AEB9-DD6D-429C-AFEE-90B4948468D3";
shapes = (
{
ref = C;
},
{
pos = (496,0);
ref = cedillacomb.case;
}
);
width = 1409;
}
);
unicode = 199;
}
{
glyphname = Egrave;
kernLeft = I;
kernRight = E;
layers = (
{
background = {
anchors = (
{
name = bottom;
pos = (709,0);
},
{
name = ogonek;
pos = (1147,10);
},
{
name = top;
pos = (670,1434);
},
{
name = topleft;
pos = (41,1434);
}
);
shapes = (
{
closed = 1;
nodes = (
(893,530,l),
(893,961,l),
(803,961,l),
(817,784,l),
(432,786,l),
(432,1114,ls),
(432,1280,o),
(434,1354,o),
(588,1358,cs),
(764,1362,ls),
(918,1366,o),
(1040,1317,o),
(1040,1075,c),
(1108,1075,l),
(1098,1434,l),
(113,1434,l),
(113,1343,l),
(162,1346,o),
(211,1350,o),
(260,1352,c),
(256,1311,o),
(254,1260,o),
(254,1204,cs),
(254,319,ls),
(254,174,o),
(266,74,o),
(113,68,c),
(113,0,l),
(1169,0,l),
(1182,399,l),
(1112,399,l),
(1112,156,o),
(995,84,o),
(817,82,cs),
(426,76,l),
(430,111,o),
(432,162,o),
(432,236,cs),
(432,705,l),
(582,711,ls),
(756,717,o),
(825,711,o),
(825,530,c)
);
},
{
closed = 1;
nodes = (
(788,1616,l),
(530,1862,ls),
(451,1931,o),
(399,1882,o),
(393,1872,cs),
(381,1853,o),
(354,1796,o),
(446,1739,cs),
(743,1556,l)
);
}
);
};
layerId = m001;
shapes = (
{
ref = E;
},
{
pos = (287,0);
ref = gravecomb.case;
}
);
width = 1274;
},
{
background = {
anchors = (
{
name = bottom;
pos = (682,0);
},
{
name = ogonek;
pos = (1151,10);
},
{
name = top;
pos = (664,1434);
},
{
name = topleft;
pos = (41,1434);
}
);
shapes = (
{
closed = 1;
nodes = (
(934,494,l),
(934,991,l),
(776,991,l),
(784,813,l),
(545,813,l),
(545,1120,ls),
(545,1280,o),
(596,1296,o),
(682,1298,cs),
(756,1300,ls),
(866,1305,o),
(1004,1260,o),
(1004,1036,c),
(1139,1036,l),
(1126,1434,l),
(102,1434,l),
(102,1276,l),
(131,1278,o),
(213,1280,o),
(256,1282,c),
(252,1247,o),
(248,1171,o),
(248,1098,cs),
(248,313,ls),
(248,147,o),
(195,139,o),
(102,135,c),
(102,0,l),
(1184,0,l),
(1194,451,l),
(1061,451,l),
(1061,229,o),
(932,156,o),
(811,156,cs),
(537,156,l),
(541,190,o),
(545,262,o),
(545,336,cs),
(545,672,l),
(598,674,ls),
(709,678,o),
(799,666,o),
(799,494,c)
);
},
{
closed = 1;
nodes = (
(784,1636,l),
(557,1878,ls),
(500,1935,o),
(410,1950,o),
(358,1882,cs),
(311,1812,o),
(356,1731,o),
(420,1690,cs),
(711,1536,l)
);
}
);
};
layerId = "D346AEB9-DD6D-429C-AFEE-90B4948468D3";
shapes = (
{
ref = E;
},
{
pos = (271,0);
ref = gravecomb.case;
}
);
width = 1278;
}
);
unicode = 200;
}
{
color = 4;
glyphname = Eacute;
kernLeft = I;
kernRight = E;
layers = (
{
background = {
anchors = (
{
name = bottom;
pos = (709,0);
},
{
name = ogonek;
pos = (1147,10);
},
{
name = top;
pos = (670,1434);
},
{
name = topleft;
pos = (41,1434);
}
);
shapes = (
{
closed = 1;
nodes = (
(893,530,l),
(893,961,l),
(803,961,l),
(817,784,l),
(432,786,l),
(432,1114,ls),
(432,1280,o),
(434,1354,o),
(588,1358,cs),
(764,1362,ls),
(918,1366,o),
(1040,1317,o),
(1040,1075,c),
(1108,1075,l),
(1098,1434,l),
(113,1434,l),
(113,1343,l),
(162,1346,o),
(211,1350,o),
(260,1352,c),
(256,1311,o),
(254,1260,o),
(254,1204,cs),
(254,319,ls),
(254,174,o),
(266,74,o),
(113,68,c),
(113,0,l),
(1169,0,l),
(1182,399,l),
(1112,399,l),
(1112,156,o),
(995,84,o),
(817,82,cs),
(426,76,l),
(430,111,o),
(432,162,o),
(432,236,cs),
(432,705,l),
(582,711,ls),
(756,717,o),
(825,711,o),
(825,530,c)
);
},
{
closed = 1;
nodes = (
(895,1739,ls),
(987,1796,o),
(961,1853,o),
(948,1872,cs),
(942,1882,o),
(891,1931,o),
(811,1862,cs),
(553,1616,l),
(598,1556,l)
);
}
);
};
layerId = m001;
shapes = (
{
ref = E;
},
{
pos = (486,0);
ref = acutecomb.case;
}
);
width = 1274;
},
{
background = {
anchors = (
{
name = bottom;
pos = (682,0);
},
{
name = ogonek;
pos = (1151,10);
},
{
name = top;
pos = (664,1434);
},
{
name = topleft;
pos = (41,1434);
}
);
shapes = (
{
closed = 1;
nodes = (
(934,494,l),
(934,991,l),
(776,991,l),
(784,813,l),
(545,813,l),
(545,1120,ls),
(545,1280,o),
(596,1296,o),
(682,1298,cs),
(756,1300,ls),
(866,1305,o),
(1004,1260,o),
(1004,1036,c),
(1139,1036,l),
(1126,1434,l),
(102,1434,l),
(102,1276,l),
(131,1278,o),
(213,1280,o),
(256,1282,c),
(252,1247,o),
(248,1171,o),
(248,1098,cs),
(248,313,ls),
(248,147,o),
(195,139,o),
(102,135,c),
(102,0,l),
(1184,0,l),
(1194,451,l),
(1061,451,l),
(1061,229,o),
(932,156,o),
(811,156,cs),
(537,156,l),
(541,190,o),
(545,262,o),
(545,336,cs),
(545,672,l),
(598,674,ls),
(709,678,o),
(799,666,o),
(799,494,c)
);
},
{
closed = 1;
nodes = (
(872,1690,ls),
(936,1731,o),
(981,1812,o),
(934,1882,cs),
(883,1950,o),
(793,1935,o),
(735,1878,cs),
(508,1636,l),
(582,1536,l)
);
}
);
};
layerId = "D346AEB9-DD6D-429C-AFEE-90B4948468D3";
shapes = (
{
ref = E;
},
{
pos = (453,0);
ref = acutecomb.case;
}
);
width = 1278;
}
);
unicode = 201;
}
